<?xml version="1.0" encoding="UTF-8" standalone="no"?>
<svg
   width="1024"
   height="1024"
   viewBox="0 0 1024 1024"
   version="1.1"
   id="svg111"
   sodipodi:docname="calendarloveheart.svg"
   inkscape:version="1.4.2 (f4327f4, 2025-05-13)"
   xmlns:inkscape="http://www.inkscape.org/namespaces/inkscape"
   xmlns:sodipodi="http://sodipodi.sourceforge.net/DTD/sodipodi-0.dtd"
   xmlns="http://www.w3.org/2000/svg"
   xmlns:svg="http://www.w3.org/2000/svg">
  <defs
     id="defs111" />
  <sodipodi:namedview
     id="namedview111"
     pagecolor="#ffffff"
     bordercolor="#000000"
     borderopacity="0.25"
     inkscape:showpageshadow="2"
     inkscape:pageopacity="0.0"
     inkscape:pagecheckerboard="0"
     inkscape:deskcolor="#d1d1d1"
     inkscape:zoom="1.1396484"
     inkscape:cx="511.56127"
     inkscape:cy="512"
     inkscape:window-width="2560"
     inkscape:window-height="1406"
     inkscape:window-x="-11"
     inkscape:window-y="-11"
     inkscape:window-maximized="1"
     inkscape:current-layer="svg111" />
  <path
     fill="#6C3453"
     d="M199.467 152.151C200.332 146.847 200.608 141.378 201.496 135.916C211.297 75.6944 282.607 27.4748 338.578 63.8732C366.041 81.7332 384.154 118.82 390.698 150.717C404.141 216.234 383.041 283.883 363.187 345.877C359.928 356.025 351.35 384.66 346.283 392.392C341.942 391.939 337.659 391.041 333.502 389.712C333.065 477.057 404.088 529.876 479.223 556.479C496.893 562.735 515.806 567.406 533.934 572.167C529.433 565.683 523.088 559.52 517.948 553.399C502.778 535.332 488.28 512.659 479.822 490.518C458.654 434.033 452.492 369.081 468.798 310.609C485.407 251.052 536.814 207.964 600.284 225.128C632.852 233.935 652.961 268.517 642.066 300.799C639.885 307.26 636.013 313.008 633.757 320.078C633.333 323.037 632.085 328.846 633.466 331.436L634.993 332.107C648.095 335.199 659.91 349.657 655.419 363.442C649.972 380.161 638.112 391.238 632.012 408.203C630.714 411.475 629.442 414.757 628.196 418.049L624.331 406.76C616.814 386.666 596.329 361.166 614.922 341.836C619.031 337.564 622.593 335.135 628.007 332.813L630.219 331.91C632.291 329.696 631.605 323.239 631.651 319.789L631.597 319.194C629.329 320.748 627.435 322.95 625.092 324.708C615.75 331.72 608.54 334.656 597.105 335.855C595.298 335.507 593.495 335.139 591.696 334.752C606.645 333.389 620.065 327.099 629.727 315.425C638.387 305.083 642.457 291.657 641 278.247C639.596 263.654 632.369 250.243 620.953 241.045C584.923 211.969 532.795 226.508 506.162 261.56C466.969 313.14 469.396 382.927 482.493 443.3C504.974 538.772 592.177 597.433 670.949 645.006C675.65 647.844 681.024 652.15 685.579 654.467C683.26 651.264 682.135 648.58 679.021 648.444C679.006 648.443 675.443 641.25 674.991 640.565C669.405 631.009 665.468 623.076 662.628 612.257C659.316 599.646 659.665 587.759 658.495 575.097C655.54 543.122 649.356 510.934 630.044 484.524C616.432 487.313 594.367 493.132 582.332 484.824C570.831 476.885 563.783 461.242 553.956 450.842C546.401 442.846 541.041 439.798 532.447 433.696C536.359 433.079 541.829 432.053 545.664 431.874L546.316 432.591C550.204 432.072 560.736 429.876 563.352 431.832C560.163 431.873 548.485 432.014 546.378 434.125L546.544 434.669C556.341 438.207 572.354 444.148 582.132 446.769C582.35 445.497 581.619 444.77 580.883 443.316L581.178 442.026C585.706 449.388 590.506 451.465 598.839 454.749C598.975 454.749 599.111 454.749 599.247 454.748L600.672 454.522C602.384 457.454 612.676 464.925 615.937 464.965C616.034 463.518 615.993 463.993 615.467 462.495L616.701 462.58C618.006 468.866 624.665 472.986 629.778 476.989C626.865 461.653 623.317 451.733 611.035 441.999C611.317 444.513 611.497 446.023 612.068 448.516L611.109 449.259C610.092 445.899 609.641 444.593 609.28 441.087C602.407 436.976 597.028 435.103 589.205 434.021L588.487 434.489C586.016 433.122 580.757 432.858 577.648 432.463L577.695 432.033C576.502 431.781 575.661 431.545 574.49 431.198L575.301 431.378L575.567 430.602L578.054 429.961C593.009 430.004 608.195 433.718 619.052 444.477C631.559 456.871 629.891 470.387 635.159 485.477C636.377 488.967 641.69 497.224 643.715 501.066C647.881 508.969 650.009 515.133 652.439 523.626C654.423 530.542 656.11 537.539 657.498 544.599C658.735 550.763 660.233 560.178 662.522 565.628C668.406 545.781 656.454 534.292 660.741 516.485C667.31 489.196 703.827 475.624 720.175 451.882C716.817 465.335 715.63 474.644 715.029 488.225C714.047 510.428 723.183 533.957 699.757 546.902C688.58 553.078 680.053 556.105 667.641 558.714C658.629 587.289 661.379 604.135 674.353 631.064C686.062 657.176 705.721 666.458 728.516 680.493C753.496 695.873 778.585 714.768 801.766 732.919C813.357 741.994 824.54 753.133 836.144 762.141C831.127 743.694 830.9 719.697 834.885 701.068C835.971 695.988 839.803 685.565 839.823 681.189C839.895 665.503 836.128 641.999 831.789 627.138L831.016 626.69C815.906 618.022 793.625 613.352 789.057 595.018C786.55 584.958 788.528 571.292 788.145 560.721C787.712 548.802 785.354 537.999 781.924 526.679C801.493 538.024 837.788 557.76 844.165 580.39C848.496 595.758 841.094 612.839 834.712 626.641C838.95 645.171 840.662 657.119 843.102 675.791C845.805 671.136 847.269 668.457 849.492 663.505C848.573 656.479 848.846 645.989 849.441 638.947C852.471 603.059 893.507 599.698 921.127 589.873C924.438 588.698 927.397 587.526 930.648 586.188C926.832 592.581 922.317 599.792 919.578 606.644C914.893 618.363 911.786 630.771 907.17 642.556C903.061 652.323 899.024 658.618 888.658 662.918C879.635 666.661 862.002 666.613 852.343 665.168C839.413 690.414 833.198 713.984 836.239 742.446C836.882 748.467 837.496 754.779 839.334 760.562C843.06 772.284 867.829 793.836 877.006 804.091C884.911 812.925 892.337 822.277 899.664 831.594C932.186 872.949 958.975 919.747 980.102 967.851C982.562 973.452 984.555 979.209 986.888 984.851C976.098 976.862 968.306 965.502 958.995 956.207C959.219 954.457 959.742 954.165 959.39 952.457C955.123 944.238 945.059 929.402 939.923 921.072C889.664 839.56 822.339 772.496 743.36 718.823C728.084 708.441 710.232 695.584 693.537 687.653C685.822 683.987 672.998 682.395 664.392 681.173C633.053 676.724 598.619 676.952 568.977 689.181C546.558 698.43 526.318 715.327 514.684 736.804C510.636 744.277 507.408 753.352 504.146 761.37C505.387 764.397 506.585 767.789 507.746 770.876C523.287 772.467 534.408 776.321 545.525 787.6C573.58 816.064 564.185 857.648 571.976 893.182C575.258 908.148 578.548 917.498 585.846 930.944C580.63 929.797 574.2 926.345 569.379 923.958C545.609 912.187 529.914 895.699 516.146 873.501C496.739 890.55 479.831 905.316 466.57 927.979C463.542 933.154 460.089 939.293 458.312 945.023C446.058 914.404 436.24 880.367 448.109 847.679C410.391 851.772 379.593 844.891 346.038 828.17C384.369 826.984 407.517 797.774 433.974 776.299C418.558 764.959 407.094 748.943 403.574 729.924C401.445 718.418 402.587 707.307 403.801 695.821C425.819 734.415 456.55 722.703 489.263 744.375C493.79 747.374 498.32 752.561 501.826 756.674C510.432 734.906 520.349 717.437 538.846 702.413C571.12 676.201 612.348 672.53 652.274 675.58C661.706 676.301 670.822 678.272 680.213 679.286C672.323 673.358 661.915 668.289 653.344 662.471L620.594 639.781C614.8 635.725 607.875 630.582 601.906 626.987C569.416 627.529 542.799 615.995 513.631 603.36C507.255 606.649 502.093 609.515 496.839 614.405C498.124 627.471 503.076 642.343 502.052 655.147C499.713 684.389 463.968 684.976 453.441 713.316C447.405 692.84 444.45 665.874 450.307 644.976C454.035 630.268 467.977 618.111 482.244 613.765C493.943 610.202 499.802 607.982 510.789 602.141C502.897 597.538 494.149 593.313 486.404 588.799C452.477 569.026 417.907 555.648 378.054 565.66C356.094 571.177 334.069 582.547 321.84 602.722C338.664 609.492 347.897 613.824 359.213 628.811C389.83 669.359 353.141 715.852 369.213 759.619C349.62 748.151 322.062 720.355 312.562 700.255C286.968 717.005 265.841 740.824 249.603 766.563C241.131 738.149 234.146 716.563 242.052 686.414C243.637 680.37 245.14 674.105 247.778 668.37C241.448 667.932 235.966 668.125 229.318 667.364C196.354 663.588 177.257 651.457 152.39 632.038C190.713 634.289 216.747 611.063 248.914 595.337C232.712 583.893 225.08 563.974 224.368 544.675C223.942 533.108 226.346 522.321 229.06 511.19C241.67 535.524 258.123 543.983 282.327 554.371C303.816 563.593 316.626 572.071 320.568 596.429C322.517 594.149 324.54 591.933 326.635 589.787C352.717 563.444 394.835 552.766 430.687 560.697C451.659 565.337 470.691 575.235 489.475 585.276C521.487 602.388 557.78 621.975 594.981 621.932C578.172 608.708 561.516 593.882 544.474 581.153C541.581 578.992 526.558 577.029 522.033 575.991C446.807 558.733 364.259 518.858 335.853 441.721C329.183 423.616 327.429 407.7 327.008 388.712C316.149 385.593 298.409 383.304 286.666 380.909C267.934 376.966 249.257 372.767 230.639 368.311C164.437 352.257 92.437 328.412 65.4187 258.78C53.7955 228.824 58.9672 194.498 82.748 172.362C103.238 153.29 132.563 142.942 160.463 144.222C172.809 144.788 188.317 146.884 199.467 152.151ZM869.013 645.617C871.78 645.99 874.487 646.404 877.281 646.506L876.382 647.712C873.601 647.484 870.9 647.382 868.233 646.551C865.376 649.267 864.565 650.114 862.282 653.302L861.22 654.668C858.498 656.39 855.97 660.156 854.133 662.801C859.335 663.314 876.617 663.989 880.938 661.692L881.234 661.078L880.403 660.381L880.004 659.296C882.117 659.586 884.379 660.088 886.487 660.504C890.762 659.034 900.472 653.205 901.122 648.538L900 648.185C900.289 647.672 901.113 647.621 901.982 647.344C904.06 644.16 905.117 640.947 906.238 637.363C907.471 634.371 908.907 629.012 909.882 625.762C906.548 626.166 903.818 626.504 900.532 627.178L898.623 626.181C902.041 625.411 906.552 624.647 910.029 624.359C911.187 621.598 913.019 617.151 913.325 614.219L912.862 612.803C915.046 611.947 922.194 595.019 923.425 591.808L922.564 591.989C915.032 594.431 904.442 597.633 897.224 600.695C896.279 604.918 895.388 609.154 894.552 613.401C899.736 609.404 906.195 604.149 911.498 600.481L912.697 601.703C910.524 603.569 899.659 612.614 899.399 614.341L899.481 615.897C895.476 616.598 887.446 624.138 886.641 627.487C887.5 627.865 888.38 627.616 889.435 627.52L889.053 628.634C881.496 629.69 873.789 639.265 869.346 645.169L869.013 645.617ZM190.632 350.623C220.519 359.694 250.87 367.156 281.555 372.979L314.037 379.311C323.545 381.118 333.455 382.699 342.637 385.667C351.106 361.867 358.97 337.856 366.223 313.657C379.365 270.146 390.59 226.547 387.892 180.161C385.259 134.899 365.436 78.9543 319.197 61.7025C312.063 59.0408 299.005 56.9111 291.375 58.1937C264.759 60.7923 244.566 72.7053 227.549 93.3366C219.555 103.221 213.566 114.57 209.917 126.748C208.761 130.479 208.096 133.674 207.331 137.244C206.551 140.876 205.433 156.59 203.738 158.497C200.265 158.731 192.01 155.692 188.224 154.628C151.437 144.29 108.068 153.172 82.2873 182.672C70.5557 196.111 64.7249 213.705 66.1088 231.49C66.933 242.498 70.4771 254.23 75.0202 264.479C94.8641 309.244 139.592 333.439 183.783 348.516C185.803 349.205 188.627 350.224 190.632 350.623ZM487.094 487.441C490.22 493.549 492.949 500.426 496.588 506.215C508.47 525.119 523.46 542.281 538.577 558.655C543.694 564.197 550.067 572.291 555.462 577.242L554.769 579.503C544.399 569.445 534.355 559.055 524.653 548.35C522.178 545.612 511.39 531.943 508.958 531.773C506.648 539.545 551.337 583.817 560.296 587.711L561.007 587.582C562.589 592.68 596.616 619.365 603.149 620.816L603.006 621.677L604.341 622.116C606.597 627.393 654.527 659.134 661.91 662.064C662.442 662.278 662.977 662.483 663.515 662.681C659.845 658.809 654.574 655.697 650.213 652.554C642.524 647.013 634.103 641.735 626.545 636.057L627.354 634.846C642.479 645.033 657.779 654.959 673.246 664.62C682.325 670.287 692.605 676.118 701.373 681.865L700.546 683.023C697.37 681.341 692.893 678.565 689.273 679.086C689.374 681.185 700.536 686.812 702.837 688.182C710.953 693.08 719.024 698.053 727.048 703.1C729.308 704.545 736.378 709.619 738.001 710.397C744.914 713.709 778.246 740.374 782.079 741.124L782.82 740.511C782.906 739.412 783.129 738.622 782.086 737.719C777.947 734.134 771.5 730.151 766.999 726.999L767.017 725.598C774.432 730.737 783.39 736.615 790.513 741.933C791.308 742.547 792.802 743.619 793.443 744.292C830.265 768.715 870.734 807.203 898.204 841.964C910.045 857.243 921.069 873.139 931.229 889.584C933.918 893.889 945.958 912.753 947.755 917.048L945.879 917.306C936.692 902.589 926.66 885.879 916.588 871.881C889.065 833.631 856.447 797.85 820.334 767.54C814.64 762.761 806.568 755.13 799.909 751.703C798.495 750.976 797.183 751.92 795.678 752.574C807.487 762.696 819.635 772.055 831.139 782.6C861.189 810.677 888.625 841.427 913.108 874.472C920.185 884.133 927.054 893.945 933.709 903.902C938.151 910.61 959.723 946.753 963.405 949.348L964.367 948.879C965.243 945.422 960.511 934.79 957.779 933.295L957.819 932.217C957.48 926.983 934.491 888.641 929.939 881.341C880.071 801.041 810.165 738.571 731.442 687.594C667.849 646.415 591.264 607.043 539.416 551.078C526.574 537.162 515.066 522.072 505.042 506.007C501.864 500.879 499.274 496.056 496.584 490.66C496.003 489.494 495.854 489.65 495.02 489.485C493.939 490.785 494.167 491.557 494.299 493.301C492.084 492.146 489.883 486.585 488.908 484.262L485.857 476.079C489.237 480.338 488.09 482.203 493.709 486.838C491.196 478.356 486.953 469.516 484.006 460.891C481.276 452.898 479.772 445.475 477.338 437.594C470.215 406.715 469.105 374.896 471.85 343.468C472.183 339.657 472.182 336.105 472.31 332.304L472.697 331.153C474.591 328.649 474.103 322.286 473.694 319.326C473.38 317.158 473.024 314.997 472.628 312.843C469.523 322.759 468.317 331.142 466.673 341.501C458.304 394.255 467.275 448.796 486.996 498.08C487.477 499.281 488.501 500.452 489.57 501.142L490.101 500.807C490.394 496.415 487.619 492.209 485.775 488.039C482.202 480.624 479.838 473.755 477.309 465.965L478.766 465.744C480.633 470.052 484.955 483.542 486.947 486.284L487.094 487.441ZM165.377 637.604C169.018 639.819 178.081 646.413 182.052 644.792C182.469 643.501 182.394 643.94 182.421 642.63L183.046 641.681C185.013 641.991 187.36 642.1 188.868 643.269C188.859 644.636 188.904 644.241 188.584 645.53C190.173 649.902 201.937 651.515 206.123 652.273L205.916 653.294C198.697 652.071 184.887 647.69 177.587 645.346C189.812 653.884 210.727 660.78 225.274 662.914C254.748 667.236 287.158 656.42 305.431 632.252C309.179 627.294 314.44 619.186 315.248 612.887L314.716 610.067C314.935 609.528 314.811 609.917 314.819 608.846C313.676 607.738 312.705 607.772 311.113 607.508L310.992 606.579L316.859 605.999C312.995 600.469 309.981 596.928 303.545 594.251C264.974 578.207 232.047 612.697 198.946 626.611C191.223 629.858 183.532 632.781 175.225 634.174C173.495 634.464 171.416 634.83 170.094 636.027L170.385 636.824C174.692 638.468 183.914 636.273 188.626 635.828L188.569 636.71C180.093 638.441 173.755 639.321 165.377 637.604ZM378.006 826.522L378.022 827.674C375.303 828.021 361.038 829.655 359.805 830.224C361.393 832.622 374.962 835.998 378.11 836.648C382.985 837.669 387.967 838.085 392.944 837.887L393.126 838.729C390.934 839.153 386.846 838.953 384.476 838.926C388.385 840.247 392.863 841.753 396.951 842.205C400.451 842.591 400.227 843.051 402.536 841.272C403.649 841.502 404.106 842.114 404.824 842.988C405.913 844.018 409.079 844.152 410.5 844.335C453.272 849.849 497.241 833.283 503.344 785.752C503.654 783.333 503.499 781.831 501.879 779.885L500.977 778.785C501.066 777.745 501.016 777.884 500.848 776.828C499.278 776.435 499.568 776.707 497.65 777.687L497.281 777.06C499.287 775.663 499.442 776.016 500.329 774.124C498.993 772.514 496.683 772.783 494.937 771.395C494.1 770.73 493.251 767.903 492.858 767.732C457.912 752.56 429.311 786.566 405.672 806.842C395.219 815.808 383.326 821.697 371.255 827.223L378.006 826.522ZM518.495 791.156L517.823 792.078C514.411 784.841 514.107 785.175 508.808 779.735C508.525 784.655 508.326 790.011 507.767 794.871C507.545 793.948 507.332 793.964 506.616 793.112C504.698 794.94 502.333 804.052 503.689 806.544C503.601 807.047 503.574 807.565 503.352 807.969C499.852 809.198 496.423 817.321 493.779 821.064C490.738 825.359 486.995 829.112 482.708 832.165C475.696 837.159 468.006 839.441 463.995 847.001L463.068 846.997L465.255 842.647L452.062 846.453C446.791 867.339 444.252 885.165 450.155 906.233C451.016 909.306 452.834 918.507 455.661 919.434C456.964 918.044 456.502 917.342 456.939 915.037C457.262 916.608 457.612 918.03 457.706 919.634C457.911 922.109 458.032 925.682 458.329 928.022L459.706 928.883L459.942 929.415L460.499 929.556C461.849 928.099 465.621 921.711 467.372 919.285C472.775 911.747 478.461 904.033 484.731 897.175C499.735 881.012 517.347 870.236 529.677 851.401C544.041 829.461 539.255 803.295 520.273 785.837C519.188 784.839 517.995 783.93 516.507 784.091L516.128 784.836C516.244 787.164 517.436 789.014 518.495 791.156ZM255.344 745.937L255.828 746.727C255.114 747.982 255.087 747.929 254.814 749.33L255.499 749.371C258.108 747.124 259.398 743.542 262.322 740.404C267.066 735.314 271.912 730.569 276.976 725.801C284.455 718.766 292.164 711.98 300.092 705.454C321.532 687.673 346.083 668.436 337.695 636.093C335.224 626.567 330.217 618.33 323.176 611.429C324.521 614.177 324.925 615.172 325.889 618.079L325.037 618.583C324.206 616.22 323.65 613.949 322.049 612.085L321.247 612.079C320.219 613.645 319.411 620.561 319.474 622.484C318.949 621.99 319.303 622.205 318.296 622.09L317.816 622.61C313.432 627.424 310.475 633.462 306.3 638.254C300.005 645.478 291.649 650.875 284.07 656.725C280.526 659.461 278.279 662.364 275.444 664.723L275.313 663.926C276.819 662.233 278.403 660.376 279.994 658.785C273.448 661.855 266.269 663.298 259.869 666.107C258.111 668.787 257.649 669.813 256.42 672.654L255.311 672.291C256.063 670.443 256.935 668.46 257.537 666.577L251.978 667.675C243.593 687.835 239.155 711 244.267 732.625C244.728 734.576 246.029 738.344 247.364 739.739L247.73 739.294L248.885 739.04C249.009 742.732 249.021 743.518 251.218 746.386L252.066 746.945C251.966 748.264 251.77 748.841 252.313 750.02C253.507 749.431 254.507 747.289 255.344 745.937ZM531.476 862.865L530.772 863.764C530.136 861.846 530.469 861.643 529.168 860.984C525.706 862.215 522.209 867.544 519.257 870.467C527.519 882.744 547.487 910.273 561.775 913.876L562.584 913.554C562.088 912.076 560.49 910.834 559.296 909.701L559.738 908.844C561.806 910.845 562.601 911.599 565.013 913.28C563.479 910.818 561.251 907.507 560.209 904.932L560.476 903.88L560.067 904.321L560.475 903.869C561.831 905.589 561.356 906.092 562.331 907.581C565.757 912.811 567.909 915.342 573.416 918.203C572.026 915.143 570.94 912.729 569.261 909.811L570.265 909.405L574.116 916.342C572.315 908.493 568.457 899.556 567.258 892.257C566.029 884.778 564.681 874.612 564.31 867.112C562.707 834.723 561.343 797.393 528.726 780.217C527.203 779.416 524.889 778.662 523.192 779.285L522.765 780.315C523.593 782.546 524.172 782.53 526.113 784.209C527.811 788.41 527.747 785.258 528.49 787.91C527.341 788.79 527.795 788.501 526.316 788.905L526.597 789.291C528.149 789.094 528.886 788.818 530.342 789.59C530.62 790.004 531.072 790.552 531.158 790.971C540.18 807.674 545.148 819.761 540.528 839.337C538.74 846.915 529.362 854.09 531.17 861.71C531.272 862.095 531.374 862.48 531.476 862.865ZM543.682 878.051L545.078 878.255C547.346 883.854 551.25 891.716 554.124 896.979C551.534 894.167 548.149 888.716 545.257 888C543.607 891.122 554.892 904.003 557.364 906.393L556.583 907.004C549.395 898.798 543.112 892.544 538.31 882.664L539.318 881.74L541.012 884.085C542.477 884.713 541.744 884.684 543.283 884.111C544.652 881.868 544.275 880.509 543.682 878.051ZM344.014 660.041L341.791 660.999C341.229 661.591 330.925 682.648 330.708 683.758L329.492 684.907C325.096 689.07 320.246 694.109 315.758 697.99C322.304 708.862 332.086 723.858 341.47 732.215L347.451 738.097L344.134 731.932C342.354 728.751 339.959 725.567 338.543 722.252C339.6 721.986 339.739 721.903 340.729 721.423C341.329 720.08 340.566 715.382 340.385 713.477L342.161 714.817C343.024 719.644 346.621 740.748 354.887 736.975L356.048 737.002C357.913 743.42 360.507 748.997 365.127 753.883C364.863 752.488 363.994 747.452 363.197 746.871C360.629 745.504 360.197 744.958 361.111 742.002C362.606 737.395 361.334 732.56 361.518 727.806C362.576 700.363 374.126 672.58 364.177 645.407C357.745 627.843 342.457 615.312 325.933 607.548C329.684 611.606 333.68 615.381 337.377 619.497L336.861 620.168C334.919 618.452 332.876 616.565 330.845 614.979C342.505 631.47 343.732 640.061 344.014 660.041ZM300.546 586.215C305.081 589.586 308.112 591.926 313.18 594.474C308.914 589.104 304.429 584.056 299.271 579.525L298.082 578.041L298.482 577.756C303.678 580.566 311.47 593.387 314.764 592.895L315.365 591.657C315.269 587.262 309.873 578.34 306.466 575.04C291.695 560.729 269.453 555.731 252.246 544.267C249.252 542.272 238.125 533.631 236.354 533.598L235.949 534.387C236.749 539.151 242.088 547.943 245.088 551.882L244.125 552.211C240.862 547.694 236.43 540.219 234.793 534.954L233.331 530.195L233.044 530.501C233.122 533.473 233.412 536.513 233.647 539.484L232.786 539.543C232.208 535.996 231.839 532.12 230.955 528.698C226.818 544.905 228.509 561.317 237.007 575.939C241.032 582.865 246.435 588.239 252.125 593.818C254.516 592.762 259.714 590.914 260.946 589.01L261.869 587.813C265.103 589.495 275.376 585.833 280.429 585.743C290.073 585.572 296.599 588.132 305.444 591.23C302.221 588.56 300.848 587.749 297.285 585.76L298.002 584.937L300.546 586.215ZM490.126 614.282C479.983 617.752 469.948 621.465 462.819 630.007C463.531 630.538 463.156 630.375 463.918 630.554L463.978 631.696C457.793 633.434 455.285 641.247 453.684 646.924C455.363 646.919 455.458 646.73 457.077 646.205C458.983 644.453 469.693 640.009 472.757 638.711C475.867 637.654 478.397 632.352 480.18 629.384L479.8 628.79L479.363 627.327C483.235 626.396 484.909 622.889 487.098 619.311C488.118 617.641 489.127 615.965 490.126 614.282ZM472.442 446.903C468.486 432.568 465.218 404.328 465.578 389.316L466.341 392.233L466.922 392.445C467.205 399.251 468.07 400.242 469.81 406.625C470.192 408.025 470.09 413.754 470.541 416.082C471.99 423.574 474.148 430.902 475.678 438.343C476 440.138 476.307 442.065 476.712 443.833L475.747 445.296C474.608 439.677 473.128 434.907 471.197 429.504C471.805 435.154 472.349 440.539 473.29 446.151L472.442 446.903ZM486.138 628.343C489.18 630.538 491.773 636.19 494.462 639.318C495.713 640.97 497.141 642.976 498.536 644.461C498.324 640.752 495.87 618.842 494.329 616.911C491.309 620.55 488.487 624.221 486.138 628.343ZM690.212 516.719C687.204 518.737 682.37 525.425 683.015 529.169C684.563 529.522 683.961 529.424 685.69 528.927L686.887 529.405C679.613 532.164 679.614 534.459 676.18 541.495L676.032 543.299C673.75 544.717 670.935 552.02 669.795 554.634C682.148 551.479 689.084 548.94 700.044 542.654C701.46 542.267 701.994 541.366 702.981 540.234L703.963 539.227C707.981 535.186 714.378 526.359 712.469 520.402L711.515 520.082L710.844 518.907L712.132 518.249C713.742 516.124 712.981 508.228 713.079 504.757L713.049 503.115C712.327 500.872 713.229 493.873 711.989 491.427L711.307 490.119C711.602 489.851 711.897 489.583 712.192 489.315C713.052 480.564 713.121 472.256 714.929 463.584C706.969 469.509 697.956 477.484 690.546 484.118C691.287 488.886 691.88 493.855 693.418 498.409C695.335 494.165 707.786 473.115 711.433 472.109C711.009 473.507 708.609 476.353 707.614 477.934C705.218 481.738 699.28 492.715 698.471 496.818L699.198 498.143C694.302 501.024 691.761 509.643 689.357 514.93C689.346 515.24 689.336 515.55 689.325 515.86L690.212 516.719ZM481.89 295.71C486.057 289.294 489.298 281.069 492.991 274.215C495.204 270.106 503.572 260.35 503.847 256.846L503.47 256.442C502.245 257.827 500.109 260.271 499.174 261.787C495.319 268.034 477.746 288.733 481.89 295.71ZM790.249 583.315C790.618 604.211 802.663 609.966 819.621 617.868C823.13 619.504 826.654 621.257 830.228 622.761C829.014 617.761 828.068 613.912 826.393 609.009C821.877 609.776 809.724 608.514 804.898 607.714C814.164 606.27 817.892 608.201 826.337 608.049C824.715 603.965 822.709 598.442 820.632 594.706L815.288 592.774L815.848 591.652C817.165 592.047 819.086 592.858 820.229 592.605C820.32 588.539 813.768 580.785 810.405 578.495L811.079 577.805L812.526 578.257L812.668 577.558C810.161 570.496 806.006 565.194 799.755 561.151L801 560.405L802.051 560.731L802.167 559.671C800.326 555.284 791.115 541.29 787.887 537.829C788.837 543.097 789.351 547.662 790.653 552.967L790.726 555.111C790.762 557.591 790.504 565.387 791.591 567.013L790.701 568.073C790.454 571.87 790.293 577.777 789.878 581.293C789.897 582.781 789.596 582.546 790.249 583.315ZM502.663 767.648C501.249 763.369 501.393 762.877 496.771 762.401C495.199 762.24 494.865 761.872 492.882 761.886L492.611 763.397C493.947 764.693 501.167 767.796 502.663 767.648ZM463.67 675.783C461.997 679.489 456.555 692.669 458.465 696.125L459.667 696.26C462.496 694.759 463.934 693.821 466.223 691.525C465.683 688.299 464.507 677.884 463.67 675.783ZM879.675 626.468L881.49 625.761C885.869 622.266 889.344 618.749 893.071 614.597C893.592 610.744 894.984 605.457 895.714 601.207C891.947 602.226 888.546 603.361 884.842 604.601C884.476 606.215 884.176 607.885 883.862 609.514C883.13 608.245 883.051 607.825 882.563 606.458L882.579 605.616C880.106 606.009 875.996 608.232 873.807 609.503C873.369 612.122 872.51 616.502 872.324 619.005L871.216 617.135C871.448 614.831 871.615 612.4 872.114 610.152C858.442 619.211 860.029 621.824 861.232 637.663C861.464 640.715 861.679 644.198 861.789 647.286C864.518 644.123 867.321 640.959 869.865 637.65L869.972 630.026L871.66 629.335L871.511 636.353C875.033 632.77 877.03 630.725 879.675 626.468ZM468.081 756.765C472.284 758.101 490.247 764.358 492.45 760.126L492.115 759.071L492.355 758.412C493.885 760.493 494.957 761.65 497.613 760.85L498.081 759.847C496.856 746.437 460.628 736.361 449.332 733.064C443.822 731.456 436.142 728.131 430.697 727.085C432.443 729.025 434.319 730.415 435.829 732.479C431.487 730.245 413.892 715.187 412.28 714.868L412.518 715.991L411.443 716.648L409.919 715.777C409.321 717.304 410.62 720.097 411.237 721.844L410.822 722.718C409.683 719.973 408.379 715.691 406.893 713.535L406.314 713.616C405.641 717.83 406.398 723.508 407.183 727.698C410.829 747.161 421.699 762.419 437.712 773.84C440.112 772.379 442.669 771.086 444.475 769.001C444.392 767.791 444.596 768.332 443.645 767.438L443.629 766.297C444.088 766.655 445.291 767.636 445.753 767.582C449.11 767.185 467.646 760.402 469.154 759.062C468.241 757.888 467.84 757.946 466.369 757.271L468.081 756.765ZM668.494 546.758C669.434 544.689 670.499 542.468 671.374 540.391C668.35 536.668 665.529 526.276 663.482 524.302C663.634 529.849 664.934 542.465 667.181 547.406L667.838 547.924L668.494 546.758ZM789.037 534.902C791.76 539.04 803.595 556.996 806.713 560.12C807.127 558.183 807.254 557.23 807.4 555.254C807.488 557.207 807.484 559.978 808.016 561.777C808.627 564.129 814.511 574.582 816.352 575.582L816.929 575.339L818.043 575.475C817.983 579.859 826.952 597.544 829.405 603.475C833.926 596.528 835.802 589.25 839.385 582.143C840.177 585.522 832.31 601.513 829.89 605.038C831.275 610.411 832.721 615.204 834.367 620.492C844.61 596.756 847.469 584.992 830.303 564.082L829.086 563.333C826.554 560.575 823.588 558.172 820.732 555.74C820.225 558.294 820.069 560.384 819.832 562.961L818.653 563.002C820.212 552.669 817.496 552.677 809.218 547.642C809.112 549.862 808.988 551.636 808.72 553.841L808.304 552.485L807.624 552.191C807.644 550.062 807.692 548.858 807.971 546.752C800.429 540.924 795.754 539.445 789.037 534.902ZM477.135 309.785C478.726 306.443 481.396 302.081 480.688 298.625C479.959 297.857 479.554 297.444 478.748 296.763C476.995 300.872 475.665 305.467 476.577 309.962L477.026 309.922L477.135 309.785ZM452.854 649.069C452.138 651.786 450.058 658.443 451.787 660.676C453.084 660.425 453.015 660.421 454.159 659.738L454.574 660.674L450.982 662.763C450.942 666.377 450.76 671.004 451.145 674.501L451.717 674.593L452.361 675.589C449.169 679.03 452.495 694.836 453.586 699.292C454.893 695.531 462.786 672.313 462.408 670.074L461.249 670.004L460.404 669.193L463.742 667.178C465.435 662.466 466.92 658.234 468.353 653.412L467.462 652.046C470.349 650.37 473.074 643.664 473.931 640.489L473.269 640.141C468.466 642.132 462.833 644.4 458.155 646.628L452.854 649.069ZM524.043 238.525C520.827 240.815 514.594 245.028 512.516 248.067C512.771 248.744 512.552 248.59 512.905 248.768C516.695 245.577 520.612 242.361 524.271 239.035L524.043 238.525ZM671.397 502.032C671.88 509.303 674.689 522.564 676.703 529.493C680.453 522.388 683.023 519.62 681.789 511.714L682.784 509.632C683.223 511.619 683.476 513.836 683.757 515.866C686.853 510.771 689.709 505.533 692.313 500.17C691.077 495.492 690.238 489.885 689.038 484.924C686.809 486.866 681.494 491.244 680.106 493.595L678.965 494.253C676.28 495.624 673.244 499.651 671.397 502.032ZM603.582 464.659L604.538 464.308C603.018 461.49 592.942 456.646 589.651 456.157L584.924 455.472L587.952 454.715C586.246 452.446 576.102 448.538 573.099 447.49C570.554 448.252 561.171 450.993 559.001 449.833C563.344 448.356 567.709 448.022 572.119 446.812C561.422 442.788 551.374 438.874 540.388 435.644C547.155 440.91 560.22 450.961 564.046 458.477L564.325 460.136L565.104 460.305C568.679 464.062 571.137 469.768 575.218 472.837L575.779 473.593C577.021 476.683 582.806 481.568 585.76 482.947C597.862 488.594 614.952 484.987 626.828 481.067C624.307 478.522 619.572 473.245 616.32 472.48L615.308 471.968C614.864 469.762 611.18 467.546 609.198 466.513C606.671 465.195 606.228 464.943 603.557 465.774L603.582 464.659ZM521.729 779.426L521.898 778.042C519.321 775.921 514.277 775.175 510.955 774.991C514.394 777.408 516.102 778.737 520.253 779.866L521.729 779.426ZM477.275 683.148L477.887 682.021C480.981 681.347 487.315 675.601 489.958 673.294L487.894 667.007L489.058 667.403C489.752 669.126 490.215 670.58 490.778 672.353C507.112 654.287 496.498 644.466 485.733 628.963C483.994 631.902 482.661 634.757 481.18 637.828C481.62 640.376 482.15 642.37 482.807 644.846L481.755 646.379L479.895 639.565C474.924 648.349 473.118 649.755 474.783 659.849L473.614 660.401C473.349 658.487 472.965 656.173 472.833 654.28C464.482 670.449 464.769 672.544 467.218 690.17C470.623 687.863 473.979 685.619 477.275 683.148ZM853.467 657.549C855.736 654.362 858.183 651.446 860.663 648.426C859.982 643.389 860.067 623.884 858.773 621.907C852.043 634.443 851.055 643.111 852.46 657.314L852.953 657.816L853.467 657.549ZM976.162 971.839C976.895 968.651 974.152 962.745 970.802 961.677C969.178 966.312 972.974 968.68 976.162 971.839ZM669.725 504.285C662.066 518.03 664.045 525.382 671.46 538.917L672.327 538.649C673.723 535.79 674.554 534.031 675.645 531.018C673.906 523.953 671.92 510.047 669.725 504.285Z"
     id="path1"
     style="fill:#c01d19;fill-opacity:0.90725714" />
  <path
     fill="#773551"
     fill-opacity="0.96470588"
     d="M877.281 646.506C882.216 646.704 898.404 646.775 901.982 647.344C901.113 647.621 900.289 647.672 900 648.185C893.549 648.222 882.619 648.255 876.382 647.712L877.281 646.506Z"
     id="path2"
     style="fill:#c01d19;fill-opacity:0.90725714" />
  <path
     fill="#773551"
     fill-opacity="0.98431373"
     d="M862.282 653.302C869.146 656.311 872.763 657.414 880.004 659.296L880.403 660.381C873.8 659.261 867.359 657.343 861.22 654.668L862.282 653.302Z"
     id="path3"
     style="fill:#c01d19;fill-opacity:0.90725714" />
  <path
     fill="#87717A"
     fill-opacity="0.96078432"
     d="M899.399 614.341C902.961 614.673 909.144 613.401 912.862 612.803L913.325 614.219C908.887 614.693 903.712 615.608 899.481 615.897L899.399 614.341Z"
     id="path4"
     style="fill:#c01d19;fill-opacity:0.90725714" />
  <path
     fill="#773551"
     fill-opacity="0.97254902"
     d="M923 593.122C920.525 595.181 915.019 600.06 912.697 601.703L911.498 600.481C915.481 597.526 918.495 595.27 923 593.122Z"
     id="path5"
     style="fill:#c01d19;fill-opacity:0.90725714" />
  <path
     fill="#773551"
     fill-opacity="0.97254902"
     d="M889.435 627.52C892.362 626.999 895.648 626.599 898.623 626.181L900.532 627.178C896.807 627.706 892.792 628.331 889.053 628.634L889.435 627.52Z"
     id="path6"
     style="fill:#c01d19;fill-opacity:0.90725714" />
  <path
     fill="#AD8699"
     d="M624.331 406.76C616.814 386.666 596.329 361.166 614.922 341.836C619.031 337.564 622.593 335.135 628.007 332.813L629.509 333.413C629.716 334.967 628.657 338.306 628.116 339.987C621.243 361.361 621.975 378.693 625.862 400.508C626.423 397.155 624.307 384.387 623.954 380.094C622.779 365.811 626.622 345.069 631.653 331.429C633.087 353.326 633.929 370.797 630.42 392.579C629.711 396.979 629.704 403.66 626.885 407.05C625.324 407.429 626.114 407.337 624.331 406.76Z"
     id="path7"
     style="fill:#c01d19;fill-opacity:0.90725714" />
  <path
     fill="#AD8699"
     d="M634.993 332.107C648.095 335.199 659.91 349.657 655.419 363.442C649.972 380.161 638.112 391.238 632.012 408.203C631.214 407.838 630.909 407.613 630.166 407.145C629.248 401.808 631.524 391.286 632.323 385.444C633.167 379.204 633.767 372.934 634.122 366.648C634.699 355.34 633.579 342.74 632.97 331.294C640.673 342.608 644.925 355.871 642.597 369.553C641.888 373.721 640.211 376.984 639.85 381.179C641.014 380.387 641.509 377.962 641.892 376.486C646.638 358.215 644.532 347.78 634.993 332.107Z"
     id="path8"
     style="fill:#c01d19;fill-opacity:0.90725714" />
  <path
     fill="#773551"
     d="M921.127 589.873C924.438 588.698 927.397 587.526 930.648 586.188C926.832 592.581 922.317 599.792 919.578 606.644C914.893 618.363 911.786 630.771 907.17 642.556C906.301 640.084 907.88 640.74 906.238 637.363C907.471 634.371 908.907 629.012 909.882 625.762C906.548 626.166 903.818 626.504 900.532 627.178L898.623 626.181C902.041 625.411 906.552 624.647 910.029 624.359C911.187 621.598 913.019 617.151 913.325 614.219L912.862 612.803C915.046 611.947 922.194 595.019 923.425 591.808L922.564 591.989L921.127 589.873Z"
     id="path9"
     style="fill:#c01d19;fill-opacity:0.90725714" />
  <path
     fill="#8B445E"
     fill-opacity="0.98431373"
     d="M495.328 495.657L495.624 495.585C496.761 496.092 497.911 497.539 498.508 498.589C515.844 529.737 538.187 555.398 564.345 579.252C589.828 602.488 617.74 620.046 646.804 638.35C660.141 646.749 671.791 657.19 684.827 665.957C692.232 670.938 700.484 674.851 708.074 679.626C732.045 694.629 755.386 710.616 778.038 727.546C787.247 734.433 796.427 741.161 805.167 748.638C803.274 748.307 802.131 747.811 800.593 746.597C764.856 718.667 727.252 693.006 688.386 669.645C682.928 666.364 677.478 662.045 672.063 658.524C656.337 648.298 641.669 636.586 625.428 627.157C603.202 614.256 581.853 598.198 562.984 580.778C543.426 562.617 525.916 542.369 510.765 520.397C505.212 512.208 500.662 503.612 495.328 495.657Z"
     id="path10"
     style="fill:#c01d19;fill-opacity:0.90725714" />
  <path
     fill="#592940"
     fill-opacity="0.94509804"
     d="M245.459 544.857C247.859 545.516 254.552 551.713 257.332 553.339C267.825 559.479 279.853 564.81 289.824 571.636C285.026 570.454 259.111 555.772 253.615 552.177C250.807 550.34 247.569 547.612 245.459 544.857Z"
     id="path11"
     style="fill:#c01d19;fill-opacity:0.90725714" />
  <path
     fill="#1A151C"
     fill-opacity="0.023529412"
     d="M234.611 539.926C235.589 540.644 235.655 541.055 236.312 542.151C235.677 542.457 236.029 542.387 235.243 542.289L234.611 539.926Z"
     id="path12"
     style="fill:#c01d19;fill-opacity:0.90725714" />
  <path
     fill="#773551"
     d="M793.443 744.292C830.265 768.715 870.734 807.203 898.204 841.964C910.045 857.243 921.069 873.139 931.229 889.584C933.918 893.889 945.958 912.753 947.755 917.048L945.879 917.306C936.692 902.589 926.66 885.879 916.588 871.881C889.065 833.631 856.447 797.85 820.334 767.54C814.64 762.761 806.568 755.13 799.909 751.703C798.495 750.976 797.183 751.92 795.678 752.574C795.796 751.349 795.828 750.754 795.808 749.525C795.09 748.244 794.376 748.05 793.067 747.366L793.443 744.292Z"
     id="path13"
     style="fill:#c01d19;fill-opacity:0.90725714" />
  <path
     fill="#9E9C9F"
     fill-opacity="0.011764706"
     d="M473.29 446.151C472.349 440.539 471.805 435.154 471.197 429.504C473.128 434.907 474.608 439.677 475.747 445.296C477.123 450.531 481.767 468.283 484.583 471.684C484.121 468.493 482.295 463.762 481.258 460.454C479.512 454.979 477.996 449.434 476.712 443.833C476.307 442.065 476 440.138 475.678 438.343L477.338 437.594C479.772 445.475 481.276 452.898 484.006 460.891C486.953 469.516 491.196 478.356 493.709 486.838C488.09 482.203 489.237 480.338 485.857 476.079L488.908 484.262C488.228 485.028 487.754 485.657 486.947 486.284C484.955 483.542 480.633 470.052 478.766 465.744C476.586 459.046 475.009 452.95 473.29 446.151Z"
     id="path14"
     style="fill:#c01d19;fill-opacity:0.90725714" />
  <path
     fill="#592940"
     fill-opacity="0.96862745"
     d="M526.113 784.209C554.983 804.426 553.278 829.725 556.155 861.071C557.476 875.471 564.444 895.648 570.265 909.405L569.261 909.811C563.491 897.329 559.637 883.736 556.447 870.557C553.427 858.081 553.793 820.359 546.793 812.055L545.861 812.826C542.291 802.035 540.896 797.614 531.158 790.971C531.072 790.552 530.62 790.004 530.342 789.59C528.886 788.818 528.149 789.094 526.597 789.291L526.316 788.905C527.795 788.501 527.341 788.79 528.49 787.91C527.747 785.258 527.811 788.41 526.113 784.209Z"
     id="path15"
     style="fill:#c01d19;fill-opacity:0.90725714" />
  <path
     fill="#6C3453"
     d="M465.578 389.316L466.341 392.233L466.922 392.445C467.205 399.251 468.07 400.242 469.81 406.625C470.192 408.025 470.09 413.754 470.541 416.082C471.99 423.574 474.148 430.902 475.678 438.343C476 440.138 476.307 442.065 476.712 443.833L475.747 445.296C474.608 439.677 473.128 434.907 471.197 429.504C471.805 435.154 472.349 440.539 473.29 446.151L472.442 446.903C468.486 432.568 465.218 404.328 465.578 389.316Z"
     id="path16"
     style="fill:#c01d19;fill-opacity:0.90725714" />
  <path
     fill="#944D59"
     fill-opacity="0.91764706"
     d="M325.889 618.079C330.329 629.982 327.916 647.871 322.435 659.163C308.743 687.373 281.2 705.857 264.648 732.333C261.673 737.091 258.852 742.137 255.828 746.727L255.344 745.937C262.796 731.564 273.282 717.608 284.297 705.726C307.51 680.686 334.534 656.442 325.037 618.583L325.889 618.079Z"
     id="path17"
     style="fill:#c01d19;fill-opacity:0.90725714" />
  <path
     fill="#592940"
     fill-opacity="0.97254902"
     d="M337.377 619.497C373.307 657.02 349.481 694.579 356.048 737.002L354.887 736.975C352.522 728.024 352.929 715.906 353.966 706.78C358.107 670.333 360.872 650.659 336.861 620.168L337.377 619.497Z"
     id="path18"
     style="fill:#c01d19;fill-opacity:0.90725714" />
  <path
     fill="#3B383D"
     fill-opacity="0.9254902"
     d="M518.495 791.156C531.848 825.185 497.383 850.919 480.162 875.201C470.322 889.077 462 911.648 459.706 928.883L458.329 928.022C459.23 926.504 462.16 913.543 462.942 910.718C465.248 901.64 468.388 893.293 472.734 885.004C488.339 855.238 531.184 830.504 517.823 792.078L518.495 791.156Z"
     id="path19"
     style="fill:#c01d19;fill-opacity:0.90725714" />
  <path
     fill="#3B383D"
     fill-opacity="0.95686275"
     d="M506.616 793.112C507.332 793.964 507.545 793.948 507.767 794.871C505.838 823.165 485.493 834.63 472.745 858.075C461.955 877.916 458.878 897.6 457.706 919.634C457.612 918.03 457.262 916.608 456.939 915.037C456.978 894.914 465.148 865.162 477.047 849.275C485.129 838.484 500.884 820.638 503.352 807.969C503.574 807.565 503.601 807.047 503.689 806.544C505.976 801.286 506.107 798.85 506.616 793.112Z"
     id="path20"
     style="fill:#c01d19;fill-opacity:0.90725714" />
  <path
     fill="#3B383D"
     fill-opacity="0.92941177"
     d="M318.296 622.09C319.303 622.205 318.949 621.99 319.474 622.484C316.947 639.23 311.147 649.728 300.185 662.718C282.186 684.046 264.046 705.84 255.516 732.932C254.086 737.449 253.457 742.442 252.066 746.945L251.218 746.386C254.693 725.042 266.795 703.375 279.692 686.169C294.261 666.731 316.41 647.638 318.296 622.09Z"
     id="path21"
     style="fill:#c01d19;fill-opacity:0.90725714" />
  <path
     fill="#3B383D"
     fill-opacity="0.92941177"
     d="M392.944 837.887C394.623 837.327 408.889 837.84 412.11 837.512C454.473 833.201 482.066 817.816 500.977 778.785L501.879 779.885C495.814 792.191 489.927 801.968 479.838 811.458C460.224 829.909 434.134 836.867 407.927 838.83C403.644 839.151 396.91 838.039 393.126 838.729L392.944 837.887Z"
     id="path22"
     style="fill:#c01d19;fill-opacity:0.90725714" />
  <path
     fill="#3B383D"
     fill-opacity="0.96470588"
     d="M229.272 654.089C251.957 652.383 272.008 645.973 289.874 631.37C298.325 624.462 306.149 616.886 314.716 610.067L315.248 612.887C308.481 615.823 296.743 627.193 290.557 632.31C269.013 650.132 233.182 660.208 205.916 653.294L206.123 652.273C210.418 653.124 213.688 653.446 217.838 654.113C221.858 654.683 225.263 654.756 229.272 654.089Z"
     id="path23"
     style="fill:#c01d19;fill-opacity:0.90725714" />
  <path
     fill="#3B383D"
     fill-opacity="0.94509804"
     d="M311.113 607.508C310.166 607.92 310.567 607.81 309.641 607.987C297.34 610.34 285.252 617.423 274.34 623.717C253.558 635.704 222.34 649 197.927 644.538L197.987 644.288C205.315 644.203 213.395 644.19 220.573 643.162C241.099 640.222 259.976 630.708 277.839 620.641C289.717 613.946 297.533 609.179 310.992 606.579L311.113 607.508Z"
     id="path24"
     style="fill:#c01d19;fill-opacity:0.90725714" />
  <path
     fill="#565558"
     fill-opacity="0.9254902"
     d="M378.006 826.522C418.165 817.135 437.459 785.264 475.99 773.897C478.058 773.287 481.989 771.861 483.834 772.647C480.871 773.843 477.363 774.325 474.202 775.342C437.354 787.202 417.035 819.207 378.022 827.674L378.006 826.522Z"
     id="path25"
     style="fill:#c01d19;fill-opacity:0.90725714" />
  <path
     fill="#3B383D"
     fill-opacity="0.9254902"
     d="M453.221 808.736C438.32 819.46 421.89 827.183 403.887 830.971C395.243 832.791 389.474 833.967 380.502 832.982C376.384 832.53 369.902 834.587 366.268 831.253C368.325 831.005 370.2 832.573 373.432 832.324C379.548 832.044 385.647 832.183 391.757 831.67C415.671 829.658 433.183 820.655 452.757 807.775L453.221 808.736Z"
     id="path26"
     style="fill:#c01d19;fill-opacity:0.90725714" />
  <path
     fill="#5D394F"
     d="M543.682 878.051L545.078 878.255C547.346 883.854 551.25 891.716 554.124 896.979C551.534 894.167 548.149 888.716 545.257 888C543.607 891.122 554.892 904.003 557.364 906.393L556.583 907.004C549.395 898.798 543.112 892.544 538.31 882.664L539.318 881.74L541.012 884.085C542.477 884.713 541.744 884.684 543.283 884.111C544.652 881.868 544.275 880.509 543.682 878.051Z"
     id="path27"
     style="fill:#c01d19;fill-opacity:0.90725714" />
  <path
     fill="#8B445E"
     fill-opacity="0.97647059"
     d="M412.518 715.991L413.257 716.672C417.099 720.265 421.91 726.791 425.917 730.826C437.134 742.121 453.13 751.469 468.081 756.765L466.369 757.271C437.809 746.552 431.049 738.138 411.443 716.648L412.518 715.991Z"
     id="path28"
     style="fill:#c01d19;fill-opacity:0.90725714" />
  <path
     fill="#3B383D"
     fill-opacity="0.93725491"
     d="M249.512 720.607C251.585 700.45 260.86 678.314 275.313 663.926L275.444 664.723C255.455 689.541 250.502 707.103 248.885 739.04L247.73 739.294C248.201 735.285 248.403 730.464 248.678 726.382C249.272 724.72 249.351 722.414 249.512 720.607Z"
     id="path29"
     style="fill:#c01d19;fill-opacity:0.90725714" />
  <path
     fill="#773551"
     fill-opacity="0.96470588"
     d="M232.786 539.543L233.647 539.484C235.628 554.303 241.688 567.094 251.656 578.556C253.562 580.748 260.775 586.299 261.869 587.813L260.946 589.01C245.713 579.065 234.624 557.425 232.786 539.543Z"
     id="path30"
     style="fill:#c01d19;fill-opacity:0.90725714" />
  <path
     fill="#773551"
     fill-opacity="0.96078432"
     d="M244.125 552.211L245.088 551.882C260.577 570.277 278.669 573.471 298.002 584.937L297.285 585.76C278.168 575.787 257.803 569.561 244.125 552.211Z"
     id="path31"
     style="fill:#c01d19;fill-opacity:0.90725714" />
  <path
     fill="#592940"
     fill-opacity="0.97647059"
     d="M701.373 681.865L767.017 725.598L766.999 726.999C744.438 711.766 723.945 697.461 700.546 683.023L701.373 681.865Z"
     id="path32"
     style="fill:#c01d19;fill-opacity:0.90725714" />
  <path
     fill="#592940"
     fill-opacity="0.98823529"
     d="M341.791 660.999L344.014 660.041C343.344 674.976 339.195 701.914 342.161 714.817L340.385 713.477C338.804 701.56 340.551 689.436 341.373 677.536C341.694 672.904 342.714 665.366 341.791 660.999Z"
     id="path33"
     style="fill:#c01d19;fill-opacity:0.90725714" />
  <path
     fill="#6C3453"
     fill-opacity="0.96862745"
     d="M435.829 732.479C440.566 734.164 446.832 737.379 451.827 739.409C463.992 744.351 482.63 749.461 492.355 758.412L492.115 759.071C486.296 754.871 482.754 753.162 476.58 750.372C469.201 747.037 440.257 737.46 435.829 732.479Z"
     id="path34"
     style="fill:#c01d19;fill-opacity:0.90725714" />
  <path
     fill="#773551"
     fill-opacity="0.96862745"
     d="M411.237 721.844C421.337 740.743 427.253 751.71 443.629 766.297L443.645 767.438C428.618 757.689 418.624 738.3 410.822 722.718L411.237 721.844Z"
     id="path35"
     style="fill:#c01d19;fill-opacity:0.90725714" />
  <path
     fill="#773551"
     fill-opacity="0.98431373"
     d="M596.052 612.732C603.174 617.138 610.822 623.177 617.74 628.101C620.24 629.88 625.288 633.175 627.354 634.846L626.545 636.057C621.693 633.072 608.565 622.843 604.341 622.116L603.006 621.677L603.149 620.816C601.658 618.144 597.555 615.092 595.128 613.118L596.052 612.732Z"
     id="path36"
     style="fill:#c01d19;fill-opacity:0.90725714" />
  <path
     fill="#3B383D"
     fill-opacity="0.90588236"
     d="M249.489 610.852L250.015 611.639C234.099 619.129 205.464 634.226 188.569 636.71L188.626 635.828C211.395 630.297 228.378 620.713 249.489 610.852Z"
     id="path37"
     style="fill:#c01d19;fill-opacity:0.90725714" />
  <path
     fill="#592940"
     fill-opacity="0.94901961"
     d="M468.229 341.339L469.216 342.126C466.624 360.688 466.555 373.461 466.922 392.445L466.341 392.233L465.578 389.316C464.569 377.629 466.583 352.812 468.229 341.339Z"
     id="path38"
     style="fill:#c01d19;fill-opacity:0.90725714" />
  <path
     fill="#3B383D"
     fill-opacity="0.93725491"
     d="M543.682 878.051C539.054 863.497 539.305 850.887 542.613 836.005C543.015 834.192 543.695 830.469 544.684 829.039C545.038 830.351 543.325 838.148 542.995 840.057C540.607 853.88 540.17 864.964 545.078 878.255L543.682 878.051Z"
     id="path39"
     style="fill:#c01d19;fill-opacity:0.90725714" />
  <path
     fill="#773551"
     fill-opacity="0.98039216"
     d="M555.462 577.242C560.844 583.81 573.848 594.673 580.564 600.313L580.487 601.547C576.204 597.937 566.547 589.398 562.254 587.177L561.007 587.582L560.296 587.711C560.107 583.895 557.655 582.377 554.769 579.503L555.462 577.242Z"
     id="path40"
     style="fill:#c01d19;fill-opacity:0.90725714" />
  <path
     fill="#3B383D"
     fill-opacity="0.94509804"
     d="M497.281 777.06L497.65 777.687C484.857 785.27 469.531 797.396 457.048 806.113L456.016 805.578C467.531 797.203 485.383 783.693 497.281 777.06Z"
     id="path41"
     style="fill:#c01d19;fill-opacity:0.90725714" />
  <path
     fill="#3B383D"
     fill-opacity="0.015686275"
     d="M299.271 579.525C304.429 584.056 308.914 589.104 313.18 594.474C308.112 591.926 305.081 589.586 300.546 586.215C299.853 585.02 299.561 584.528 299.015 583.229C299.223 581.856 299.338 580.93 299.271 579.525Z"
     id="path42"
     style="fill:#c01d19;fill-opacity:0.90725714" />
  <path
     fill="#565558"
     fill-opacity="0.88627452"
     d="M249.489 610.852C266.797 603.579 275.889 599.076 294.897 597.879L295.375 598.146C293.358 599.457 283.311 599.903 279.988 600.749C270.455 603.178 258.892 607.323 250.015 611.639L249.489 610.852Z"
     id="path43"
     style="fill:#c01d19;fill-opacity:0.90725714" />
  <path
     fill="#773551"
     d="M477.309 465.965L478.766 465.744C480.633 470.052 484.955 483.542 486.947 486.284L487.094 487.441L485.775 488.039C482.202 480.624 479.838 473.755 477.309 465.965Z"
     id="path44"
     style="fill:#c01d19;fill-opacity:0.90725714" />
  <path
     fill="#773551"
     fill-opacity="0.98039216"
     d="M789.878 581.293L815.848 591.652L815.288 592.774C806.733 589.733 799.066 586.123 790.249 583.315C789.596 582.546 789.897 582.781 789.878 581.293Z"
     id="path45"
     style="fill:#c01d19;fill-opacity:0.90725714" />
  <path
     fill="#3B383D"
     fill-opacity="0.94509804"
     d="M463.068 846.997L463.995 847.001C458.709 857.006 455.797 866.115 454.508 877.306C454.258 879.483 453.798 885.303 452.927 886.917L452.501 886.707C453.61 883.369 453.357 878.575 453.787 875.004C455.047 864.55 458.026 856.113 463.068 846.997Z"
     id="path46"
     style="fill:#c01d19;fill-opacity:0.90725714" />
  <path
     fill="#8B445E"
     fill-opacity="0.98039216"
     d="M676.18 541.495C680.89 541.715 698.836 541.341 702.981 540.234C701.994 541.366 701.46 542.267 700.044 542.654C696.636 541.102 681.659 543.476 676.032 543.299L676.18 541.495Z"
     id="path47"
     style="fill:#c01d19;fill-opacity:0.90725714" />
  <path
     fill="#592940"
     fill-opacity="0.96078432"
     d="M603.582 464.659L603.557 465.774C594.792 467.988 584.244 470.543 575.779 473.593L575.218 472.837C580.093 470.129 597.375 466.187 603.582 464.659Z"
     id="path48"
     style="fill:#c01d19;fill-opacity:0.90725714" />
  <path
     fill="#3B383D"
     fill-opacity="0.92156863"
     d="M255.311 672.291L256.42 672.654C253.475 680 251.408 686.354 249.582 694.018C248.979 696.546 248.473 701.936 247.296 703.55C245.944 698.386 253.176 678.108 255.311 672.291Z"
     id="path49"
     style="fill:#c01d19;fill-opacity:0.90725714" />
  <path
     fill="#565558"
     fill-opacity="0.94117647"
     d="M329.492 684.907L330.708 683.758C330.711 696.328 331.705 707.413 337.109 718.951L336.56 719.103C331.042 708.577 329.734 696.692 329.492 684.907Z"
     id="path50"
     style="fill:#c01d19;fill-opacity:0.90725714" />
  <path
     fill="#8B445E"
     fill-opacity="0.94509804"
     d="M689.325 515.86C696.826 511.42 705.299 507.095 713.049 503.115L713.079 504.757C704.931 508.499 698.037 512.321 690.212 516.719L689.325 515.86Z"
     id="path51"
     style="fill:#c01d19;fill-opacity:0.90725714" />
  <path
     fill="#2A0A13"
     fill-opacity="0.97254902"
     d="M476.712 443.833C477.996 449.434 479.512 454.979 481.258 460.454C482.295 463.762 484.121 468.493 484.583 471.684C481.767 468.283 477.123 450.531 475.747 445.296L476.712 443.833Z"
     id="path52"
     style="fill:#c01d19;fill-opacity:0.90725714" />
  <path
     fill="#5D394F"
     fill-opacity="0.96078432"
     d="M685.69 528.927C688.245 526.961 707.276 519.941 710.844 518.907L711.515 520.082C705.329 521.925 692.719 526.494 686.887 529.405L685.69 528.927Z"
     id="path53"
     style="fill:#c01d19;fill-opacity:0.90725714" />
  <path
     fill="#8B445E"
     fill-opacity="0.98823529"
     d="M584.924 455.472L589.651 456.157C581.423 457.257 573.236 458.641 565.104 460.305L564.325 460.136L564.046 458.477C568.594 458.731 579.727 456.2 584.924 455.472Z"
     id="path54"
     style="fill:#c01d19;fill-opacity:0.90725714" />
  <path
     fill="#5D394F"
     fill-opacity="0.95686275"
     d="M829.086 563.333L830.303 564.082C829.096 568.547 826.308 587.108 824.582 589.149C824.503 586.023 828.193 566.954 829.086 563.333Z"
     id="path55"
     style="fill:#c01d19;fill-opacity:0.90725714" />
  <path
     fill="#773551"
     fill-opacity="0.98823529"
     d="M945.879 917.306L947.755 917.048C949.963 920.717 955.123 929.879 957.819 932.217L957.779 933.295C954.338 931.883 948.061 920.837 945.879 917.306Z"
     id="path56"
     style="fill:#c01d19;fill-opacity:0.90725714" />
  <path
     fill="#5D394F"
     fill-opacity="0.96470588"
     d="M474.783 659.849C475.766 665.962 477.514 676.104 477.887 682.021L477.275 683.148C476.199 679.512 474.315 664.992 473.614 660.401L474.783 659.849Z"
     id="path57"
     style="fill:#c01d19;fill-opacity:0.90725714" />
  <path
     fill="#8B445E"
     fill-opacity="0.96078432"
     d="M790.701 568.073L791.591 567.013C794.355 568.506 809.737 576.675 811.079 577.805L810.405 578.495L790.701 568.073Z"
     id="path58"
     style="fill:#c01d19;fill-opacity:0.90725714" />
  <path
     fill="#592940"
     fill-opacity="0.95686275"
     d="M482.807 644.846C484.784 652.042 487.469 660.307 489.058 667.403L487.894 667.007C486.165 660.55 484.004 652.59 481.755 646.379L482.807 644.846Z"
     id="path59"
     style="fill:#c01d19;fill-opacity:0.90725714" />
  <path
     fill="#2A0A13"
     fill-opacity="0.96470588"
     d="M472.442 446.903L473.29 446.151C475.009 452.95 476.586 459.046 478.766 465.744L477.309 465.965C475.548 459.781 473.756 453.187 472.442 446.903Z"
     id="path60"
     style="fill:#c01d19;fill-opacity:0.90725714" />
  <path
     fill="#8B445E"
     fill-opacity="0.97647059"
     d="M882.563 606.458C883.051 607.825 883.13 608.245 883.862 609.514C883.246 613.597 881.766 621.901 881.49 625.761L879.675 626.468C880.997 621.3 882.413 611.755 882.563 606.458Z"
     id="path61"
     style="fill:#c01d19;fill-opacity:0.90725714" />
  <path
     fill="#1A151C"
     fill-opacity="0.95686275"
     d="M530.772 863.764L531.476 862.865C533.666 869.139 536.169 875.889 539.318 881.74L538.31 882.664C535.088 876.52 532.876 870.345 530.772 863.764Z"
     id="path62"
     style="fill:#c01d19;fill-opacity:0.90725714" />
  <path
     fill="#6C3453"
     fill-opacity="0.98431373"
     d="M680.106 493.595C681.145 498.682 682.189 504.452 682.784 509.632L681.789 511.714C680.727 506.563 679.842 499.604 678.965 494.253L680.106 493.595Z"
     id="path63"
     style="fill:#c01d19;fill-opacity:0.90725714" />
  <path
     fill="#8B445E"
     fill-opacity="0.95686275"
     d="M616.32 472.48C613.417 475.1 604.113 481.527 600.421 482.42C603.15 479.834 611.807 474.25 615.308 471.968L616.32 472.48Z"
     id="path64"
     style="fill:#c01d19;fill-opacity:0.90725714" />
  <path
     fill="#773551"
     d="M472.757 638.711L473.269 640.141C468.466 642.132 462.833 644.4 458.155 646.628L457.077 646.205C458.983 644.453 469.693 640.009 472.757 638.711Z"
     id="path65"
     style="fill:#c01d19;fill-opacity:0.90725714" />
  <path
     fill="#8B445E"
     fill-opacity="0.98431373"
     d="M463.918 630.554C468.565 629.307 474.622 627.647 479.363 627.327L479.8 628.79C473.248 629.316 469.494 630.959 463.978 631.696L463.918 630.554Z"
     id="path66"
     style="fill:#c01d19;fill-opacity:0.90725714" />
  <path
     fill="#6C3453"
     fill-opacity="0.98823529"
     d="M468.229 341.339C468.513 338.176 468.626 332.883 470.22 330.288L471.168 330.096L472.697 331.153L472.31 332.304C469.705 334.317 469.694 338.697 469.216 342.126L468.229 341.339Z"
     id="path67"
     style="fill:#c01d19;fill-opacity:0.90725714" />
  <path
     fill="#944D59"
     fill-opacity="0.98431373"
     d="M467.462 652.046L468.353 653.412C463.942 655.602 458.689 658.06 454.574 660.674L454.159 659.738C458.558 657.094 462.904 654.409 467.462 652.046Z"
     id="path68"
     style="fill:#c01d19;fill-opacity:0.90725714" />
  <path
     fill="#9E9C9F"
     fill-opacity="0.84705883"
     d="M580.564 600.313C585.623 604.686 591.004 608.491 596.052 612.732L595.128 613.118C590.159 609.374 585.278 605.516 580.487 601.547L580.564 600.313Z"
     id="path69"
     style="fill:#c01d19;fill-opacity:0.90725714" />
  <path
     fill="#F2F0F2"
     fill-opacity="0.019607844"
     d="M248.678 726.382L248.033 725.619C248.035 727.1 248.306 727.354 247.611 728.323C244.515 725.795 246.546 721.632 248.855 719.588L248.648 720.111L248.376 719.642L248.912 719.407C248.792 720.3 248.671 719.964 248.977 720.475L249.512 720.607C249.351 722.414 249.272 724.72 248.678 726.382Z"
     id="path70"
     style="fill:#c01d19;fill-opacity:0.90725714" />
  <path
     fill="#8B445E"
     fill-opacity="0.95686275"
     d="M698.471 496.818C701.517 496.32 708.362 491.898 711.307 490.119L711.989 491.427C708.398 493.381 702.805 496.641 699.198 498.143L698.471 496.818Z"
     id="path71"
     style="fill:#c01d19;fill-opacity:0.90725714" />
  <path
     fill="#85587D"
     fill-opacity="0.96862745"
     d="M790.653 552.967C793.842 555.708 797.504 558.047 801 560.405L799.755 561.151C796.64 559.265 793.716 557.186 790.726 555.111L790.653 552.967Z"
     id="path72"
     style="fill:#c01d19;fill-opacity:0.90725714" />
  <path
     fill="#5D394F"
     fill-opacity="0.98823529"
     d="M871.216 617.135L872.324 619.005C871.946 622.263 871.504 626.056 871.66 629.335L869.972 630.026C870.242 625.417 870.427 621.722 871.216 617.135Z"
     id="path73"
     style="fill:#c01d19;fill-opacity:0.90725714" />
  <path
     fill="#F2F0F2"
     fill-opacity="0.023529412"
     d="M524.043 238.525L524.271 239.035C520.612 242.361 516.695 245.577 512.905 248.768C512.552 248.59 512.771 248.744 512.516 248.067C514.594 245.028 520.827 240.815 524.043 238.525Z"
     id="path74"
     style="fill:#c01d19;fill-opacity:0.90725714" />
  <path
     fill="#8B445E"
     fill-opacity="0.94901961"
     d="M818.653 563.002L819.832 562.961C819.296 566.157 818.619 573.07 818.043 575.475L816.929 575.339C817.145 572.105 818.162 566.393 818.653 563.002Z"
     id="path75"
     style="fill:#c01d19;fill-opacity:0.90725714" />
  <path
     fill="#8B445E"
     fill-opacity="0.96470588"
     d="M460.404 669.193L461.249 670.004C459.405 671.214 454.06 674.871 452.361 675.589L451.717 674.593C454.588 672.753 457.484 670.953 460.404 669.193Z"
     id="path76"
     style="fill:#c01d19;fill-opacity:0.90725714" />
  <path
     fill="#8B445E"
     d="M790.513 741.933C791.308 742.547 792.802 743.619 793.443 744.292L793.067 747.366C791.017 745.582 789.713 745.707 789.046 743.866L790.513 741.933Z"
     id="path77"
     style="fill:#c01d19;fill-opacity:0.90725714" />
  <path
     fill="#5D394F"
     fill-opacity="0.96862745"
     d="M182.421 642.63C179.581 642.428 176.36 641.943 174.034 640.216C176.169 640.083 180.626 641.247 183.046 641.681L182.421 642.63Z"
     id="path78"
     style="fill:#c01d19;fill-opacity:0.90725714" />
  <path
     fill="#F2F0F2"
     fill-opacity="0.027450981"
     d="M341.47 732.215L344.134 731.932L347.451 738.097L341.47 732.215Z"
     id="path79"
     style="fill:#c01d19;fill-opacity:0.90725714" />
  <path
     fill="#AD8699"
     fill-opacity="0.98039216"
     d="M807.624 552.191L808.304 552.485L808.72 553.841C808.621 556.233 808.649 559.56 808.016 561.777C807.484 559.978 807.488 557.207 807.4 555.254L807.624 552.191Z"
     id="path80"
     style="fill:#c01d19;fill-opacity:0.90725714" />
  <path
     fill="#87717A"
     fill-opacity="0.61960787"
     d="M217.838 654.113C221.749 654.032 225.365 653.984 229.272 654.089C225.263 654.756 221.858 654.683 217.838 654.113Z"
     id="path81"
     style="fill:#c01d19;fill-opacity:0.90725714" />
  <path
     fill="#3B383D"
     fill-opacity="0.82352942"
     d="M452.757 807.775L456.016 805.578L457.048 806.113L453.221 808.736L452.757 807.775Z"
     id="path82"
     style="fill:#c01d19;fill-opacity:0.90725714" />
  <path
     fill="#87717A"
     fill-opacity="0.54509807"
     d="M557.364 906.393L559.738 908.844L559.296 909.701C558.879 909.418 557.051 907.483 556.583 907.004L557.364 906.393Z"
     id="path83"
     style="fill:#c01d19;fill-opacity:0.90725714" />
  <path
     fill="#6C3453"
     d="M628.744 735.635C637.41 739.595 642.671 741.627 651.492 744.779C669.325 751.15 697.948 754.448 705.191 774.35C709.039 784.923 708.288 799.858 705.973 810.471C724.566 825.425 731.54 822.008 752.395 826.341C817.676 839.905 876.336 877.686 925.556 921.456C937.029 931.635 948.012 942.209 959.39 952.457C959.742 954.165 959.219 954.457 958.995 956.207C930.252 928.858 881.153 884.296 845.819 867.303C838.104 868.862 822.022 871.59 815.05 874.361C816.614 882.017 815.935 896.759 812.225 904.355C802.349 924.575 771.084 921.71 752.115 926.319C741.864 928.809 733.37 931.961 723.502 935.228C733.494 921.174 741.353 903.748 749.786 888.665C756.706 876.287 764.66 866.867 778.621 862.923C784.545 862.064 788.689 862.354 794.551 863.604C802.099 865.821 805.921 867.772 812.837 871.309C822.18 868.818 832.513 865.826 842.036 864.827C833.399 860.111 824.955 855.537 816.084 851.262C771.858 829.945 716.636 817.525 668.845 834.821C669.813 845.882 669.758 855.439 663.838 865.341C651.4 886.146 625.255 878.175 605.672 877.191C596.723 876.741 586.455 877.672 577.776 879.896C588.814 862.528 603.224 843.556 619.944 831.113C628.07 825.064 636.425 823.528 646.343 825.269C652.256 826.387 656.104 827.319 661.653 829.619C663.528 830.261 665.063 830.848 666.893 831.611C687.546 825.443 698.386 824.634 720.005 822.992C714.098 819.759 709.474 816.708 703.825 813.101C646.031 819.255 651.503 785.924 632.674 743.828C631.485 741.17 630.141 738.16 628.744 735.635ZM790.482 916.823L791.363 916.484C793.778 917.262 803.945 911.798 804.985 908.795L805.565 908.682C813.616 901.601 813.534 884.827 812.283 875.073C809.692 876.003 805.524 878.239 803.269 879.888L801.847 880.933C797.674 882.579 785.462 888.93 783.757 893.158C783.592 893.566 783.195 894.986 783.064 895.507L781.747 894.626L781.436 893.709C777.775 894.62 770.935 899.569 768.32 902.383C768.06 903.267 767.889 903.762 767.733 904.67C767.003 907.28 763.16 919.451 762.031 921.504C765.021 921.524 772.194 920.984 774.939 919.918C776.416 919.344 776.312 918.25 776.655 916.76L777.516 917.882C777.447 918.279 777.496 918.968 777.505 919.403C779.984 920.228 788.482 918.271 790.482 916.823ZM791.999 904.98L791.002 905.026C791.358 900.149 791.638 892.32 792.514 887.791L792.784 888.089C793.057 893.142 792.71 899.947 791.999 904.98ZM774.72 867.177L773.93 868.458C768.474 867.42 761.67 875.714 758.53 879.675C767.091 881.878 776.134 881.652 784.468 883.278C788.559 884.183 804.286 874.022 808.814 871.459C802.803 868.246 799.706 867.21 793.109 865.298C788.256 864.507 786.173 864.386 781.364 864.699C779.664 865.146 775.687 865.917 774.72 867.177ZM639.587 843.034C642.228 841.862 646.704 840.269 648.449 838.272C647.692 837.229 648.026 837.53 646.931 836.914L647.746 836.247L649.576 837.425C652.139 837.73 661.111 834.282 661.927 832.008L660.501 831.221C655.763 829.372 652.284 828.106 647.264 827.293C634.491 825.969 623.975 829.834 615.012 839.232C623.622 840.449 631.03 841.324 639.587 843.034ZM752.058 892.514C751.489 892.786 750.455 893.321 749.906 893.511C747.822 896.942 745.901 901.149 744.124 904.8L743.918 905.642C742.731 907.494 734.446 923.579 734.362 924.969L734.941 924.798C740.007 920.455 746.661 914.465 751.908 910.631C753.157 909.303 754.551 907.995 755.861 906.718C756.535 906.371 757.953 905.14 758.616 904.603C762.915 901.851 767.848 897.69 772.068 894.541C768.79 894.54 765.296 894.241 762.004 894.021L760.953 892.908C763.081 892.993 765.209 893.059 767.337 893.106C774.303 893.245 780.237 889.656 785.159 884.918L784.461 884.734C775.955 882.992 766.691 883.076 757.598 881.141C755.069 884.266 752.964 887.712 751.337 891.388C751.635 892.375 751.348 892.035 752.058 892.514ZM750.74 923.384C751.876 924.065 758.911 922.424 760.681 922.083C761.642 916.329 765.46 910.332 766.122 904.133L765.562 903.777C762.584 905.749 760.246 907.397 757.41 909.565C753.619 914.755 752.939 917.22 750.74 923.384ZM735.455 926.406C734.788 926.927 734.579 927.219 734.005 927.844C735.889 928.14 747.529 924.621 749.406 923.514C750.456 919.625 751.357 916.616 753.115 912.996L752.589 912.866C747.236 916.867 740.638 922.082 735.455 926.406ZM654.882 840.967C650.001 843.006 640.434 845.416 638.663 850.5L637.454 849.887L637.029 849.185C616.915 857.657 622.019 859.901 610.827 874.885C613.779 875.553 623.262 877.424 625.449 875.371L626.579 876.162C632.339 878.224 645.9 877.801 649.681 872.182L651.561 872.434C651.569 873.045 651.497 872.695 651.996 873.413C654.576 872.909 659.141 866.92 660.5 864.717C665.028 857.382 667.834 844.416 666.121 835.99C662.688 837.363 659.299 838.843 655.96 840.429C656.259 848.024 655.704 851.285 654.398 858.77L653.968 854.897C654.532 849.738 654.941 846.198 654.882 840.967ZM688.887 794.64C688.959 793.019 689.066 788.025 689.262 786.643C689.644 787.625 689.728 788.043 690.288 788.922L689.643 795.36C691.438 797.307 693.755 800.25 696.017 801.306L696.837 801.072L697.613 798.605L698.598 799.175C696.478 804.26 700.024 805.473 703.916 808.468C704.189 799.104 706.139 790.006 703.822 780.751L703.272 781.744L701.974 781.914C704.455 772.889 698.511 766.305 691.341 761.939C690.867 768.57 691.339 775.894 690.596 782.246C690.332 778.951 690.447 776.007 690.096 772.486C690.124 768.637 690.12 765.187 689.932 761.346C684.774 758.47 675.806 754.994 670.008 754.158L668.217 753.544C665.545 752.287 660.586 750.909 657.628 750.1C659.479 764.588 659.635 768.008 671.611 778.036L671.068 770.993L672.404 771.001C673.206 782.21 680.159 787.114 688.242 794.087L688.887 794.64ZM654.377 791.438L659.388 791.796C664.238 792.194 672.365 792.628 676.969 793.432L681.995 794.254C668.984 780.507 667.449 785.915 650.183 782.028L649.652 781.903C651.294 785.701 652.312 787.881 654.377 791.438ZM645.595 768.902C644.954 771.226 648.159 777.965 649.486 780.098C656.666 781.867 664.679 782.969 672.073 783.714C667.812 779.545 662.857 773.076 658.041 770.705L658.16 769.6C658.162 768.113 641.319 750.845 640.199 747.039C640.588 747.13 655.526 762.222 658.447 764.341L659.035 764.761C657.98 759.462 657.019 755.123 656.105 749.721C649.015 746.568 642.808 745.465 634.616 741.351C638.235 749.846 641.038 758.671 644.851 767.054C645.207 767.252 645.563 767.45 645.918 767.648L645.595 768.902ZM606.85 848.886L605.75 849.847C597.885 854.912 590.268 867.866 584.306 875.143C585.85 874.422 592.39 871.087 593.461 871.305L593.729 871.1L592.914 871.26L592.502 872.086L587.839 874.91C594.793 874.299 602.603 874.881 609.687 874.545C612.372 870.951 618.027 862.122 619.886 858.156C611.751 862.083 601.587 868.703 593.595 870.628C596.894 868.757 600.993 867.22 602.009 863.932L601.47 862.498L601.679 862.04C611.309 860.023 617.325 855.662 625.811 851.012L618.958 851.031L620.482 849.517L626.442 850.183C629.037 848.754 634.972 846.485 636.398 844.257C635.426 843.279 616.936 840.701 614.045 840.231C611.768 842.243 608.179 845.562 606.56 848.029L606.85 848.886ZM700.865 811.367C698.14 809.425 695.211 806.842 692.615 804.658L688.582 805.041C686.427 804.953 685.468 805.103 683.611 804.153C685.911 804.06 688.801 803.6 691.132 803.296C685.238 797.569 684.344 795.709 676.515 794.638C671.54 794.335 660.001 793.844 655.603 792.935C657.934 797.799 663.941 804.934 669.678 805.039L669.867 806.325L669.804 806.788C675.189 810.986 693.889 811.424 700.865 811.367Z"
     id="path84"
     style="fill:#c01d19;fill-opacity:0.90725714" />
  <path
     fill="#5D394F"
     fill-opacity="0.98823529"
     d="M801.847 880.933L803.269 879.888C804.473 885.997 805.516 901.927 805.565 908.682L804.985 908.795C803.38 904.496 802.864 887.741 801.847 880.933Z"
     id="path85"
     style="fill:#c01d19;fill-opacity:0.90725714" />
  <path
     fill="#773551"
     d="M751.908 910.631L752.818 911.328L752.589 912.866C747.236 916.867 740.638 922.082 735.455 926.406L734.941 924.798C740.007 920.455 746.661 914.465 751.908 910.631Z"
     id="path86"
     style="fill:#c01d19;fill-opacity:0.90725714" />
  <path
     fill="#8B445E"
     d="M758.53 879.675C767.091 881.878 776.134 881.652 784.468 883.278L784.461 884.734C775.955 882.992 766.691 883.076 757.598 881.141L758.53 879.675Z"
     id="path87"
     style="fill:#c01d19;fill-opacity:0.90725714" />
  <path
     fill="#773551"
     fill-opacity="0.98431373"
     d="M774.72 867.177C780.888 871.643 791.196 872.301 796.9 876.757L796.683 877.151C794.23 876.662 776.039 869.819 773.93 868.458L774.72 867.177Z"
     id="path88"
     style="fill:#c01d19;fill-opacity:0.90725714" />
  <path
     fill="#8B445E"
     fill-opacity="0.92941177"
     d="M781.747 894.626L783.064 895.507C781.261 902.977 779.412 910.436 777.516 917.882L776.655 916.76C778.27 910.441 780.881 900.833 781.747 894.626Z"
     id="path89"
     style="fill:#c01d19;fill-opacity:0.90725714" />
  <path
     fill="#944D59"
     d="M766.122 904.133L767.733 904.67C767.003 907.28 763.16 919.451 762.031 921.504L760.681 922.083C761.642 916.329 765.46 910.332 766.122 904.133Z"
     id="path90"
     style="fill:#c01d19;fill-opacity:0.90725714" />
  <path
     fill="#8B445E"
     fill-opacity="0.97254902"
     d="M744.124 904.8C748.136 904.211 754.473 904.45 758.616 904.603C757.953 905.14 756.535 906.371 755.861 906.718C755.084 906.124 746.314 905.998 743.918 905.642L744.124 904.8Z"
     id="path91"
     style="fill:#c01d19;fill-opacity:0.90725714" />
  <path
     fill="#944D59"
     d="M753.115 912.996C754.427 910.896 755.235 910.393 757.41 909.565C753.619 914.755 752.939 917.22 750.74 923.384L749.406 923.514C750.456 919.625 751.357 916.616 753.115 912.996Z"
     id="path92"
     style="fill:#c01d19;fill-opacity:0.90725714" />
  <path
     fill="#773551"
     fill-opacity="0.95294118"
     d="M646.931 836.914C643.933 835.924 636.04 832.419 633.447 830.78C635.634 830.156 645.486 835.126 647.746 836.247L646.931 836.914Z"
     id="path93"
     style="fill:#c01d19;fill-opacity:0.90725714" />
  <path
     fill="#AD8699"
     fill-opacity="0.97647059"
     d="M791.999 904.98C791.893 908.871 791.853 912.613 791.363 916.484L790.482 916.823C790.289 913.295 790.895 908.801 791.002 905.026L791.999 904.98Z"
     id="path94"
     style="fill:#c01d19;fill-opacity:0.90725714" />
  <path
     fill="#8B445E"
     fill-opacity="0.97254902"
     d="M752.058 892.514C755.266 892.518 757.768 892.462 760.953 892.908L762.004 894.021C758.616 894.064 753.531 893.623 749.906 893.511C750.455 893.321 751.489 892.786 752.058 892.514Z"
     id="path95"
     style="fill:#c01d19;fill-opacity:0.90725714" />
  <path
     fill="#773551"
     d="M723.502 935.228C733.494 921.174 741.353 903.748 749.786 888.665C756.706 876.287 764.66 866.867 778.621 862.923L780.648 863.543C780.72 863.865 780.793 864.187 780.865 864.509L781.364 864.699C779.664 865.146 775.687 865.917 774.72 867.177L773.93 868.458C768.474 867.42 761.67 875.714 758.53 879.675L757.598 881.141C755.069 884.266 752.964 887.712 751.337 891.388C751.635 892.375 751.348 892.035 752.058 892.514C751.489 892.786 750.455 893.321 749.906 893.511C747.822 896.942 745.901 901.149 744.124 904.8L743.918 905.642C742.731 907.494 734.446 923.579 734.362 924.969L734.941 924.798L735.455 926.406C734.788 926.927 734.579 927.219 734.005 927.844C735.889 928.14 747.529 924.621 749.406 923.514L750.74 923.384C751.876 924.065 758.911 922.424 760.681 922.083L762.031 921.504C765.021 921.524 772.194 920.984 774.939 919.918C776.416 919.344 776.312 918.25 776.655 916.76L777.516 917.882C777.447 918.279 777.496 918.968 777.505 919.403C779.984 920.228 788.482 918.271 790.482 916.823L791.363 916.484C793.778 917.262 803.945 911.798 804.985 908.795L805.565 908.682C813.616 901.601 813.534 884.827 812.283 875.073L815.05 874.361C816.614 882.017 815.935 896.759 812.225 904.355C802.349 924.575 771.084 921.71 752.115 926.319C741.864 928.809 733.37 931.961 723.502 935.228Z"
     id="path96"
     style="fill:#c01d19;fill-opacity:0.90725714" />
  <path
     fill="#8B445E"
     d="M646.343 825.269C652.256 826.387 656.104 827.319 661.653 829.619L660.501 831.221C655.763 829.372 652.284 828.106 647.264 827.293L646.343 825.269Z"
     id="path97"
     style="fill:#c01d19;fill-opacity:0.90725714" />
  <path
     fill="#944D59"
     fill-opacity="0.96862745"
     d="M637.454 849.887L638.663 850.5C635.078 859.396 630.915 867.613 626.579 876.162L625.449 875.371C627.97 868.425 634.033 859.487 637.454 849.887Z"
     id="path98"
     style="fill:#c01d19;fill-opacity:0.90725714" />
  <path
     fill="#8B445E"
     d="M659.388 791.796C664.238 792.194 672.365 792.628 676.969 793.432L676.515 794.638C671.54 794.335 660.001 793.844 655.603 792.935C657.366 791.925 657.322 792.011 659.388 791.796Z"
     id="path99"
     style="fill:#c01d19;fill-opacity:0.90725714" />
  <path
     fill="#773551"
     fill-opacity="0.97647059"
     d="M668.217 753.544L670.008 754.158C670.936 759.596 671.293 765.789 672.404 771.001L671.068 770.993C670.292 764.982 669.305 759.501 668.217 753.544Z"
     id="path100"
     style="fill:#c01d19;fill-opacity:0.90725714" />
  <path
     fill="#773551"
     fill-opacity="0.97254902"
     d="M669.678 805.039C672.727 804.466 680.224 804.266 683.611 804.153C685.468 805.103 686.427 804.953 688.582 805.041C683.062 806.114 675.68 805.342 669.867 806.325L669.678 805.039Z"
     id="path101"
     style="fill:#c01d19;fill-opacity:0.90725714" />
  <path
     fill="#8B445E"
     fill-opacity="0.94901961"
     d="M653.968 854.897L654.398 858.77C653.966 862.014 652.555 869.393 651.561 872.434L649.681 872.182C652.306 865.427 652.882 862.14 653.968 854.897Z"
     id="path102"
     style="fill:#c01d19;fill-opacity:0.90725714" />
  <path
     fill="#773551"
     fill-opacity="0.97647059"
     d="M701.974 781.914L703.272 781.744C701.817 787.604 700.01 793.444 698.598 799.175L697.613 798.605C699.22 793.093 700.574 787.484 701.974 781.914Z"
     id="path103"
     style="fill:#c01d19;fill-opacity:0.90725714" />
  <path
     fill="#8B445E"
     fill-opacity="0.98039216"
     d="M606.85 848.886C611.042 849.107 616.329 849.519 620.482 849.517L618.958 851.031C614.379 850.584 610.316 850.665 605.75 849.847L606.85 848.886Z"
     id="path104"
     style="fill:#c01d19;fill-opacity:0.90725714" />
  <path
     fill="#8B445E"
     fill-opacity="0.97254902"
     d="M645.918 767.648C649.699 768.153 654.83 769.25 658.16 769.6L658.041 770.705C653.376 769.79 650.325 769.336 645.595 768.902L645.918 767.648Z"
     id="path105"
     style="fill:#c01d19;fill-opacity:0.90725714" />
  <path
     fill="#AD8699"
     fill-opacity="0.9137255"
     d="M690.096 772.486C690.447 776.007 690.332 778.951 690.596 782.246C690.574 784.672 690.56 786.482 690.288 788.922C689.728 788.043 689.644 787.625 689.262 786.643L690.096 772.486Z"
     id="path106"
     style="fill:#c01d19;fill-opacity:0.90725714" />
  <path
     fill="#8B445E"
     fill-opacity="0.98431373"
     d="M545.664 431.874C549.562 430.165 572.575 429.859 578.054 429.961L575.567 430.602L575.301 431.378L574.49 431.198C575.661 431.545 576.502 431.781 577.695 432.033L577.648 432.463L577.008 433.299C577.43 436.176 579.629 439.418 581.178 442.026L580.883 443.316C578.445 440.329 576.321 436.172 575.138 432.509C569.57 432.39 551.633 433.237 546.544 434.669L546.378 434.125C548.485 432.014 560.163 431.873 563.352 431.832C560.736 429.876 550.204 432.072 546.316 432.591L545.664 431.874Z"
     id="path107"
     style="fill:#c01d19;fill-opacity:0.90725714" />
  <path
     fill="#6C3453"
     fill-opacity="0.95294118"
     d="M588.487 434.489L589.205 434.021C593.102 440.252 598.037 447.784 600.672 454.522L599.247 454.748C597.285 447.878 591.741 440.946 588.487 434.489Z"
     id="path108"
     style="fill:#c01d19;fill-opacity:0.90725714" />
  <path
     fill="#8B445E"
     fill-opacity="0.95686275"
     d="M597.105 335.855C589.563 336.307 574.594 335.612 567.771 332.08C568.059 331.799 568.78 331.867 569.143 331.937C576.817 333.417 583.053 335.545 591.01 334.821L591.696 334.752C593.495 335.139 595.298 335.507 597.105 335.855Z"
     id="path109"
     style="fill:#c01d19;fill-opacity:0.90725714" />
  <path
     fill="#5D394F"
     fill-opacity="0.95686275"
     d="M791.002 905.026C791.358 900.149 791.638 892.32 792.514 887.791L792.784 888.089C793.057 893.142 792.71 899.947 791.999 904.98L791.002 905.026Z"
     id="path110"
     style="fill:#c01d19;fill-opacity:0.90725714" />
  <path
     fill="#592940"
     fill-opacity="0.94117647"
     d="M612.068 448.516C613.17 451.707 616.064 459.567 616.701 462.58L615.467 462.495L611.109 449.259L612.068 448.516Z"
     id="path111"
     style="fill:#c01d19;fill-opacity:0.90725714" />
</svg>
