<?xml version="1.0" encoding="UTF-8" standalone="no"?>
<svg
   width="1024"
   height="1024"
   viewBox="0 0 1024 1024"
   version="1.1"
   id="svg11"
   sodipodi:docname="click_hand.svg"
   inkscape:version="1.4.2 (f4327f4, 2025-05-13)"
   xmlns:inkscape="http://www.inkscape.org/namespaces/inkscape"
   xmlns:sodipodi="http://sodipodi.sourceforge.net/DTD/sodipodi-0.dtd"
   xmlns="http://www.w3.org/2000/svg"
   xmlns:svg="http://www.w3.org/2000/svg">
  <defs
     id="defs11" />
  <sodipodi:namedview
     id="namedview11"
     pagecolor="#ffffff"
     bordercolor="#000000"
     borderopacity="0.25"
     inkscape:showpageshadow="2"
     inkscape:pageopacity="0.0"
     inkscape:pagecheckerboard="0"
     inkscape:deskcolor="#d1d1d1"
     inkscape:zoom="1.1396484"
     inkscape:cx="512"
     inkscape:cy="512"
     inkscape:window-width="2560"
     inkscape:window-height="1406"
     inkscape:window-x="-11"
     inkscape:window-y="-11"
     inkscape:window-maximized="1"
     inkscape:current-layer="svg11" />
  <path
     fill="#212222"
     transform="scale(0.5 0.5)"
     d="M502.322 299.633C518.956 296.997 536.779 299.246 552.867 303.798C622.835 323.6 649.769 404.668 678.799 463.691L768.691 648.03C781.016 673.191 793.787 701.468 806.922 726.004C814.143 701.537 821.564 679.473 840.811 661.746C879.211 626.377 938.952 629.65 980.853 656.898C996.773 667.251 1008.9 681.024 1021.52 694.741C1027.7 680.643 1033.38 669.295 1043.28 657.19C1084.98 606.229 1171.27 610.186 1219.4 649.263C1224.63 653.511 1229.84 657.865 1235.01 662.189C1263.57 642.821 1291.84 632.062 1326.89 631.884C1378.35 632.067 1427.6 652.841 1463.64 689.572C1493.25 719.156 1526.9 781.507 1548.34 818.949C1587.59 886.383 1624.33 955.252 1658.47 1025.42C1702.14 1113.79 1738.97 1195.35 1764.55 1291.22C1786.4 1373.11 1787.99 1426.18 1788.39 1509.24C1808.92 1505.2 1825.32 1504.42 1845.53 1509.97C1892.28 1522.81 1923.86 1573.07 1908.08 1620.33C1902.97 1635.62 1895.36 1651.18 1881.67 1660.5C1843.21 1686.67 1799.7 1705.25 1758.81 1727.27L1520.26 1853.61C1472.28 1878.71 1425.05 1902.8 1377.31 1928.65C1330.74 1949.35 1280.92 1988.46 1231.01 1996.1C1171.75 2005.16 1106.57 1949.51 1119.39 1887.41C1123.75 1866.27 1131.62 1856.35 1144.78 1840.39C1093.21 1755.35 1005.07 1743.06 920.51 1710.74C884.187 1695.81 849.348 1675.73 817.359 1653.3C767.288 1618.18 730.468 1572.29 689.238 1528.14C661.405 1498.33 624.355 1470.1 589.721 1448.67C565.672 1433.78 535.734 1421.79 509.081 1412.32C463.006 1398.29 419.652 1389.44 377.755 1364.65C322.589 1332 308.998 1276.51 343.822 1222.21C368.524 1183.69 414.113 1156.35 458.931 1147.27C566.822 1125.42 676.567 1171.16 765.653 1228.85C744.765 1193.05 726.593 1151.64 708.356 1113.96L594.197 873.155L463.845 597.262C443.441 554.426 420.886 513.212 401.867 469.626C367.275 390.351 417.146 309.015 502.322 299.633ZM1173.85 1820.79C1194.36 1810.54 1217.31 1796.98 1238.24 1785.95L1400.58 1700.96L1751.84 1519.22C1759.24 1405.1 1742.24 1330.18 1706.59 1223.72C1654.56 1082.39 1583.73 948.677 1506.69 819.522C1488.67 789.305 1473.28 757.52 1451.89 729.561C1407.4 671.395 1322.94 647.126 1259.37 689.95C1282.83 732.911 1302.2 774.967 1324.29 818.418L1349.93 868.637C1357.26 883.047 1376.67 913.291 1356.13 924.04C1337.79 933.631 1321.19 890.436 1315.74 879.38C1301.31 850.065 1286.9 821.849 1272.68 792.513C1244.52 736.1 1226.09 675.402 1157.32 658.729C1138.23 654.1 1118.95 654.039 1100.4 660.562C1080.71 667.335 1064.65 681.884 1055.98 700.818C1050.46 712.719 1047.09 727.249 1047.4 740.396C1054.53 750.81 1062.22 767.287 1067.84 778.859L1098.17 842.681C1112.06 871.768 1126.92 900.234 1140.88 929.252C1151.35 951.003 1150.16 952.822 1131.5 965.232C1126.66 963.551 1121.89 962.057 1117.3 959.795C1108.37 946.444 1098.33 922.064 1091.21 906.89L1044.46 809.499C1030.79 780.749 1017.62 748.565 999.217 722.788C983.558 700.852 959.355 680.102 932.504 674.295C890.07 665.119 849.897 685.418 841.992 730.466C831.357 791.07 868.094 850.758 891.886 903.906C904.559 931.593 917.231 957.982 930.421 985.519C940.241 1006.02 953.785 1029.8 958.551 1052.19C959.828 1058.19 956.979 1066.48 951.475 1070.27C948.128 1072.58 943.991 1073.44 939.998 1072.67C934.212 1071.51 929.575 1066.8 926.997 1061.81C919.26 1046.83 912.287 1030.41 905.26 1015.09C890.909 983.375 876.176 951.838 861.062 920.483L667.446 519.498C657.058 498.718 646.854 477.847 636.837 456.887C625.429 432.95 605.305 390.025 589.794 369.94C577.261 353.918 559.852 342.41 540.2 337.156C528.324 333.986 518.079 333.476 505.888 334.458C490.521 337.653 480.017 340.214 466.525 348.428C437.454 366.125 420.334 398.985 428.167 432.884C435.609 465.092 452.483 493.092 466.699 522.647L519.903 633.941L706.149 1030.49L771.806 1167.46L798.732 1223.53C804.656 1235.86 822.193 1264.74 814.752 1278.63C810.471 1286.63 798.162 1287.91 790.951 1283.35C701.262 1230.88 607.415 1169.67 498.691 1176.38C459.455 1178.8 410.972 1195.17 384.477 1226.45C357.238 1258 347.337 1296.27 383.446 1326.45C408.905 1348.34 441.459 1355.43 472.726 1365.15C492.645 1371.21 512.544 1377.53 532.236 1384.28C602.417 1408.33 666.128 1453.11 717.17 1506.54C739.492 1529.9 759.633 1554.36 782.874 1577.14C809.028 1602.64 837.657 1625.46 868.339 1645.28C955.367 1702.04 1068.32 1703.83 1143.54 1780.86C1157.21 1794.86 1162.81 1806.68 1173.85 1820.79ZM1229.98 1960.03C1259.5 1954.8 1330.39 1912.64 1360.94 1896.54L1565.29 1788.72L1762.39 1685.38C1780.74 1675.76 1855.63 1639.21 1863.86 1627.77C1872.45 1615.67 1875.7 1600.57 1872.86 1586C1865.89 1549.32 1834.39 1536.44 1800.74 1540.36C1759.99 1548.35 1673.78 1598.42 1634.12 1619.57L1473.14 1703.92L1308.11 1789.82C1284.66 1801.88 1261.3 1814.11 1238.03 1826.54C1221.47 1835.22 1205.05 1843.7 1188.8 1852.91C1165.91 1865.89 1149.28 1884.87 1155.02 1913.11C1162.27 1948.74 1196.94 1962.95 1229.98 1960.03Z"
     id="path1"
     style="fill:#ffffff;fill-opacity:1" />
  <path
     fill="#212222"
     transform="scale(0.5 0.5)"
     d="M346.745 628.144C366.086 626.288 376.619 647.484 358.701 660.41C327.438 682.962 295.306 704.158 262.967 725.133C254.037 730.924 241.317 740.278 231.539 743.654C229.617 743.567 227.808 743.386 225.921 742.996C220.578 741.891 214.543 737.361 211.764 732.662C209.658 729.102 209.734 723.734 211.019 719.912C216.333 704.103 325.8 638.897 346.745 628.144Z"
     id="path2"
     style="fill:#ffffff;fill-opacity:1" />
  <path
     fill="#212222"
     transform="scale(0.5 0.5)"
     d="M287.999 508.443C308.224 507.462 317.343 512.804 313.315 533.771C310.565 536.834 307.513 540.144 303.536 541.446C290.688 545.65 275.098 547.506 261.675 549.565C230.647 554.468 199.493 558.538 168.247 561.772C155.94 563.099 143.774 564.709 140.738 549.476C137.751 536.547 145.087 529.186 157.679 527.107C200.575 520.024 244.943 514.278 287.999 508.443Z"
     id="path3"
     style="fill:#ffffff;fill-opacity:1" />
  <path
     fill="#212222"
     transform="scale(0.5 0.5)"
     d="M731.554 86.1836C734.899 85.7669 738.159 85.541 741.499 86.2006C746.001 87.0897 750.405 89.1289 752.872 93.1641C754.905 96.4898 755.401 100.354 754.461 104.087C751.857 114.43 694.069 223.672 685.599 236.077C682.668 240.369 679.96 243.037 675.441 245.622C666.864 246.749 658.008 245.753 653.478 237.483C646.999 225.652 659.456 206.977 664.976 196.807C679.641 170.167 695.212 144.052 709.611 117.265C715.439 106.422 720.345 91.9958 731.554 86.1836Z"
     id="path4"
     style="fill:#ffffff;fill-opacity:1" />
  <path
     fill="#212222"
     transform="scale(0.5 0.5)"
     d="M865.663 231.276C881.167 233.147 882.895 240.408 882.362 254.117C879.98 257.871 877.183 261.988 873.559 264.529C856.244 276.668 766.196 344.47 754.263 347.718C740.033 344.394 726.622 333.204 739.201 319.007C754.589 303.302 775.88 289.32 793.957 276.649C810.795 264.846 846.997 233.434 865.663 231.276Z"
     id="path5"
     style="fill:#ffffff;fill-opacity:1" />
  <path
     fill="#212222"
     transform="scale(0.5 0.5)"
     d="M807.859 440.365C828.731 438.854 851.989 440.922 873.123 440.928C893.854 441.001 913.705 440.192 934.468 441.646C948.988 442.662 960.598 455.415 949.897 468.657C944.385 475.478 933.476 475.945 925.163 476.617C909.14 477.781 889.873 476.478 873.458 476.901C848.58 477.461 824.206 478.473 799.31 476.498C787.318 475.546 774.019 462.435 782.17 450.439C787.215 443.015 799.522 441.788 807.859 440.365Z"
     id="path6"
     style="fill:#ffffff;fill-opacity:1" />
  <path
     fill="#212222"
     transform="scale(0.5 0.5)"
     d="M257.498 180.03C265.08 179.065 269.648 180.396 275.749 185.078C290.023 196.033 301.954 209.598 314.918 222.014C334.921 241.319 357.609 258.835 374.269 281.264C383.457 293.635 376.938 300.387 366.242 306.98C360.031 309.205 355.337 309.241 350.206 304.929C328.946 287.058 309.635 266.795 289.652 247.504C277.459 234.922 263.196 223.428 251.984 210.005C242.445 198.586 246.655 187.732 257.498 180.03Z"
     id="path7"
     style="fill:#ffffff;fill-opacity:1" />
  <path
     fill="#212222"
     transform="scale(0.5 0.5)"
     d="M160.669 336.001C180.484 333.516 266.482 368.651 291.491 374.614C311.606 379.411 315.107 395.805 296.583 410.085C288.301 413.037 247.794 398.455 236.847 395.212C213.205 388.209 186.975 381.381 163.986 372.357C144.378 364.661 141.807 347.866 160.669 336.001Z"
     id="path8"
     style="fill:#ffffff;fill-opacity:1" />
  <path
     fill="#212222"
     transform="scale(0.5 0.5)"
     d="M358.482 87.0354C374.638 88.1752 377.808 99.2151 385.277 112.176C404.361 145.288 423.815 178.341 441.353 212.288C448.406 225.939 441.412 233.177 428.855 238.364C410.072 236.651 404.354 218.414 395.683 203.248C385.968 186.311 376.424 169.276 367.053 152.146C358.832 137.159 349.245 121.271 342.879 105.492C339.043 95.9876 351.117 89.1262 358.482 87.0354Z"
     id="path9"
     style="fill:#ffffff;fill-opacity:1" />
  <path
     fill="#212222"
     transform="scale(0.5 0.5)"
     d="M421.679 723.102C423.821 722.764 425.779 722.552 427.951 722.765C433.05 723.264 438.208 725.995 441.272 730.146C443.964 733.795 444.936 738.784 443.897 743.209C442.329 749.895 377.759 846.896 368.696 858.133C365.905 861.594 362.778 863.988 359.094 866.435C356.514 866.566 353.739 866.81 351.189 866.337C346.506 865.47 341.544 861.978 339.199 857.829C336.695 853.396 336.509 847.858 338.145 843.106C343.081 828.767 398.092 746.62 410.161 732.529C413.6 728.514 416.972 725.547 421.679 723.102Z"
     id="path10"
     style="fill:#ffffff;fill-opacity:1" />
  <path
     fill="#212222"
     transform="scale(0.5 0.5)"
     d="M548.568 39.2427C552.121 39.3355 555.78 39.443 559.14 40.7201C562.733 42.086 566.667 44.928 568.125 48.6198C571.474 57.0986 571.154 170.582 569.826 186.545C569.515 190.288 568.769 193.756 567.231 197.198C564.712 202.837 560.948 204.884 555.347 206.927C552.277 206.928 549.449 206.837 546.576 205.622C542.236 203.788 538.546 200.071 536.832 195.669C533.009 185.849 533.173 73.2954 534.159 57.3243C534.407 53.8472 535.374 50.4593 536.998 47.3749C539.641 42.2667 543.403 40.7824 548.568 39.2427Z"
     id="path11"
     style="fill:#ffffff;fill-opacity:1" />
</svg>
