<?xml version="1.0" encoding="utf-8" ?><svg xmlns="http://www.w3.org/2000/svg" xmlns:xlink="http://www.w3.org/1999/xlink" width="1024" height="1024" viewBox="0 0 1024 1024"><path fill="white" d="M828.745 126.782C830.027 126.701 831.309 126.633 832.592 126.579C835.79 126.45 838.993 126.289 841.442 128.553C844.125 133.373 831.829 185.379 830.123 193.858C828.585 201.321 827.146 208.803 825.805 216.303C824.639 222.926 823.107 234.214 820.742 240.073C813.513 259.23 776.325 267.884 762.979 252.548C747.587 234.862 781.015 215.63 796.481 217.724C800.068 218.209 805.401 218.591 808.862 218.854C807.955 218.4 808.448 218.674 807.402 217.999C807.343 216.32 807.211 217.154 808.126 215.481C810.253 214.796 810.44 214.017 810.754 211.763C812.787 197.171 816.066 182.765 818.193 168.224C818.369 167.02 817.574 165.831 816.791 165.021C808.865 162.571 773.83 163.734 763.943 163.666C760.593 163.643 757.177 163.97 754.78 166.599C751.901 168.845 747.681 204.714 746.444 210.781C744.399 220.712 744.247 234.13 740.529 243.352C734.829 257.486 714.447 264.817 700.352 263.477C678.731 261.422 673.094 242.904 689.974 229.247C699.386 221.78 711.37 218.34 723.309 219.679L723.871 219.75C725.051 218.139 726.326 216.024 727.991 215.065L728.632 215.576C730.205 214.126 738.949 148.034 741.728 139.918C745.379 129.256 747.047 130.494 758.451 129.617C763.02 129.265 767.959 129.123 772.418 128.887C791.183 127.935 809.961 127.233 828.745 126.782ZM729.956 224.41C727.79 223.699 725.926 223.172 723.438 222.504C707.567 218.245 675.586 232.93 684.185 252.746C688.327 262.293 706.632 261.618 715.124 259.622C726.097 257.494 737.604 249.086 739.858 237.666C744.546 211.983 747.113 185.618 752.346 159.978C753.407 159.313 816.599 159.26 823.199 159.698C822.008 169.629 818.878 183.444 816.99 193.652C815.605 201.142 813.422 216.698 811.631 223.056C799.064 218.741 790.47 218.555 777.778 224.073C761.97 230.944 752.44 250.837 775.069 256.726C785.385 259.411 798.227 257.218 807.235 251.737C821.433 243.473 821.086 230.689 823.45 216.127C824.818 208.069 826.296 200.031 827.882 192.013C831.61 173 835.862 153.754 840.06 134.829C840.472 132.97 840.3 132.015 839.585 130.321C837.648 128.665 837.305 128.783 834.6 128.995C833.651 129.072 832.702 129.157 831.755 129.25C812.597 129.739 793.447 130.482 774.309 131.479C767.12 131.82 759.593 131.515 752.466 132.292C751.048 132.446 747.759 132.755 746.851 133.945C743.736 138.027 735.824 191.504 734.433 200.623C733.387 207.483 732.853 218.293 729.956 224.41Z"/><path fill="#0B090C" fill-opacity="0.035294119" d="M822.334 186.094L822.633 186.208L822.853 188.226C822.599 188.308 822.809 188.268 821.964 188.24L822.334 186.094Z"/><path fill="white" d="M497.742 100.028C499.835 99.7985 502.526 99.9501 503.343 102.163C507.333 112.967 510.54 125.137 513.672 136.169C517.83 150.813 522.411 165.267 525.934 179.983C528.298 192.632 518.427 202.273 508.757 208.429C495.848 216.647 482.062 209.602 486.444 193.94C489.395 183.395 499.971 175.647 509.549 170.646C506.547 160.732 503.708 149.447 500.083 139.696C498.94 136.622 495.043 135.577 492.174 134.745C484.368 139.012 475.831 142.735 467.926 146.936C459.339 151.499 458.015 152.477 454.146 161.557C456.042 166.858 458.014 172.133 460.06 177.378C463.592 187.099 470.024 201.77 471.736 211.438C473.011 223.765 461.333 239.012 450.958 244.119C434.349 252.295 419.871 241.18 428.028 223.508C433.398 211.875 440.626 205.556 452.304 200.837C449.528 187.506 431.744 144.77 432.221 136.73C434.919 131.558 447.626 126.239 453.245 123.23C467.973 115.297 482.806 107.562 497.742 100.028ZM456.425 202.869C444.941 204.815 441.043 208.664 433.948 217.698C429.604 223.23 424.747 238.297 432.544 242.86C444.046 249.592 459.624 236.995 464.983 227.084C473.24 214.148 468.414 206.307 463.55 193.4L454.495 169.402C452.531 164.356 450.3 158.934 448.563 153.84C455.819 149.605 465.8 144.98 473.573 141.087C481.017 137.36 491.873 131.679 499.387 128.744C503.721 143.561 508.266 158.316 513.022 173.004C503.359 175.517 496.909 180.218 491.543 188.736C488.552 193.485 485.219 205.072 491.89 208.475C503.939 214.622 524.604 196.228 524.056 184.042C523.802 178.388 520.363 167.441 518.665 161.529L510.507 133.254C507.694 123.537 504.948 113.717 501.887 104.077C501.34 102.355 500.829 101.96 499.088 101.885C491.845 105.632 437.658 132.969 434.827 136.272C433.576 143.67 453.118 191.915 456.425 202.869Z"/><path fill="white" d="M690.612 49.5927C692.598 50.1052 693.694 50.7679 694.262 52.8316C699.225 70.8936 703.641 89.1668 708.118 107.363C708.646 109.92 709.525 113.547 709.6 116.12C710.462 129.406 688.005 143.244 676.734 136.957C666.891 131.467 674.668 116.385 682.044 112.055C684.724 110.482 693.305 105.883 693.576 103.935C694.38 98.1599 689.19 82.9466 687.381 77.5295C680.59 78.421 657.194 85.9193 652.062 90.518C650.837 93.2923 652.707 98.1973 653.555 101.229C656.333 112.861 664.804 131.141 658.029 141.748C654.065 147.954 645.754 153.512 638.444 154.766C622.691 157.466 615.298 145.998 625.201 133.243C630.662 126.301 637.084 123.293 645.512 122.079C642.917 109.636 638.903 97.3886 635.888 85.0352C634.236 78.2656 631.117 71.072 639.641 67.8777C652.131 63.1973 664.769 59.105 677.144 54.0884C681.153 52.4629 686.444 50.5559 690.612 49.5927ZM649.368 95.1187C648.785 92.9811 647.803 89.7668 647.35 87.6823C660.114 82.6712 675.911 77.939 689.101 73.5174C692.418 85.0777 695.533 96.6949 698.445 108.364L697.706 108.425C689.422 109.171 683.399 112.837 678.246 119.064C670.642 128.253 675.064 138.867 687.831 135.652C696.275 133.525 708.411 125.458 707.217 115.313C703.363 94.8938 696.832 74.3752 692.55 53.9475C692.295 52.7319 691.783 52.2115 690.839 51.5718C674.316 56.9108 657.328 64.5433 640.725 70.0482C639.389 70.4913 636.949 71.8723 636.084 72.9205C635.82 79.1499 646.777 116.382 649.049 124.423C640.752 124.661 634.482 126.581 628.397 132.596C619.868 141.027 621.401 154.058 635.395 153.107C644.852 152.465 660.692 141.508 658.507 130.821C656.109 119.088 652.519 106.823 649.368 95.1187Z"/><path fill="white" d="M564.969 34.1634C572.509 36.7532 570.355 53.313 575.983 61.18C581.912 69.4676 599.824 66.8776 599.401 74.212C596.967 76.6891 587.785 77.542 583.912 79.038C579.109 80.8929 580.505 81.3339 577.306 83.9046C568.364 91.0887 573.012 103.467 566.151 110.185C565.355 109.781 563.83 109.115 563.457 108.333C560.65 102.461 561.637 96.0709 558.677 89.9058C553.44 78.9989 546.291 79.8011 536.114 76.4045C534.003 75.7 532.418 74.9549 531.501 72.9606L531.947 71.8778C536.914 67.8193 546.799 69.1875 552.986 65.0876C562.941 58.4905 559.893 41.6579 564.969 34.1634ZM565.334 108.963C570.865 99.926 564.849 81.2143 583.184 76.4924C587.794 75.3051 594.344 75.651 597.682 73.2912L597.67 72.5539C587.805 67.1393 574.631 72.2599 570.518 55.7534C569.356 51.0873 568.657 38.1159 565.475 36.1255C561.915 47.8761 565.383 60.3554 553.129 67.8772C546.122 72.1785 535.72 69.6991 532.739 73.0935L533.158 73.8329C542.877 76.3906 552.438 74.7335 559.428 85.8504C563.814 92.8261 562.145 104.033 565.334 108.963Z"/><path fill="white" d="M901.409 187.97C907.184 189.423 907.139 198.188 908.411 203.499C911.046 214.497 915.707 216.762 926.009 219.298C929.68 220.201 934.624 220.875 935.452 225.093C927.686 231.31 909.527 226.819 907.86 244.492C907.462 248.718 905.672 259.596 903.232 262.894C895.771 261.767 898.144 248.041 894.569 242.402C892.728 239.497 892.302 235.769 889.358 233.078C884.662 228.786 871.588 229.885 869.415 223.919C870.595 218.292 883.145 220.958 889.88 214.623C898.449 206.561 896.003 192.198 901.409 187.97ZM902.659 261.021C905.697 249.474 903.359 236.028 914.268 229.399C920.609 225.546 931.49 226.634 933.909 225.188C934.141 221.596 927.658 221.887 924.583 221.376C917.953 220.274 915.33 218.846 910.449 214.936C904.094 209.846 906.271 190.887 901.192 189.109C899.372 199.534 900.105 210.452 891.036 218.047C885.669 222.541 871.337 221.642 870.6 224.093C873.699 225.896 875.713 225.383 878.842 226.109C890.301 228.77 894.164 229.658 897.859 241.331C899.608 246.855 899.587 257.999 900.812 260.649C902.03 261.316 901.415 261.282 902.659 261.021Z"/><path fill="white" d="M877.476 406.112C883.978 405.8 887.173 408.774 888.081 415.257L886.772 415.392L886.14 416.234C890.747 417.085 901.169 418.531 894.568 427.088C893.378 428.632 888.26 428.461 886.161 428.461C885.485 434.158 886.936 438.188 880.2 439.503C873.023 439.625 873.911 436.768 873.543 431.369C873.272 427.392 866.536 429.097 863.809 426.885C860.734 424.391 862.529 421.482 864.232 418.697C865.269 417.167 871.17 416.834 873.185 416.599L873.308 415.726L871.718 415.886C871.518 414.083 872.617 415.45 873.112 414.314C875.055 409.862 872.286 408.721 877.476 406.112ZM875.929 419.001C871.896 418.973 868.803 418.845 864.83 419.488C864.663 421.751 864.425 424.172 864.43 426.428C868.316 426.443 872.202 426.508 876.086 426.624C875.643 433.692 873.573 438.513 882.386 437.737C884.163 435.606 883.653 432.132 883.363 429.251C883.264 428.258 883.134 427.268 882.974 426.283C886.949 426.45 890.004 426.598 893.959 426.343C893.911 423.912 893.84 421.481 893.746 419.052L883.527 419.012C883.525 415.591 883.633 411.345 883.424 408C881.044 407.996 878.489 407.941 876.127 408.067L875.929 419.001Z"/><path fill="white" d="M864.224 80.5449C873.359 79.7808 873.468 82.4618 874.694 90.6068C882.849 91.8944 881.832 93.4471 881.351 100.875C878.029 101.684 874.491 101.418 872.67 104.632C873.022 106.382 873.082 106.459 872.993 108.324C871.822 110.53 871.798 110.643 869.838 112.099C862.088 112.502 862.918 110.223 861.481 104.026C860.755 100.896 853.372 104.146 852.735 98.5522C852.48 96.3126 851.506 95.943 852.964 93.2854C855.503 91.077 859.521 92.3704 860.688 89.7064L859.616 89.4173C861.298 86.0173 861.782 82.8983 864.224 80.5449ZM863.454 92.9605C860.76 92.8987 857.123 92.3648 855.1 93.8701C854.082 95.6015 853.9 99.1576 856.194 99.9404C858.148 100.607 861.294 100.078 863.547 100.264C863.279 107.898 861.768 111.6 870.726 110.29C871.214 106.711 871.064 103.82 870.99 100.219C873.375 100.158 877.546 100.497 879.462 99.5214C881.256 97.3085 880.885 95.2825 879.113 93.3319C876.903 92.4559 873.597 92.8882 871.083 92.9963C871.11 90.0698 871.585 85.6589 870.525 83.2657C868.219 81.3348 867.09 81.8987 863.833 82.161C863.25 85.0486 863.441 89.8431 863.454 92.9605Z"/><path fill="white" fill-opacity="0.98431373" d="M867.444 292.304C868.519 291.899 869.729 292.104 870.611 292.84C871.494 293.575 871.913 294.728 871.708 295.859C871.503 296.989 870.707 297.922 869.623 298.302C867.973 298.879 866.166 298.022 865.569 296.38C864.973 294.737 865.809 292.92 867.444 292.304Z"/><path fill="white" fill-opacity="0.97647059" d="M876.77 267.42C878.225 266.575 880.088 267.022 880.999 268.437C881.911 269.851 881.549 271.733 880.178 272.708C879.233 273.381 877.995 273.479 876.956 272.965C875.917 272.451 875.244 271.407 875.205 270.248C875.166 269.089 875.768 268.003 876.77 267.42Z"/><path fill="white" d="M605.704 239.679C605.998 241.554 606.029 244.166 607.759 245.183C616.377 250.246 625.708 253.165 634.818 257.398C691.247 283.621 766.023 296.62 821.265 260.991C823.65 259.453 827.309 256.838 829.052 254.466C832.499 247.31 833.35 238.281 836.385 230.309C848.22 199.221 868.113 170.688 895.119 151.155C903.678 144.979 912.734 139.523 922.194 134.841C933.808 129.043 946.433 124.222 957.616 117.649C975.378 107.206 993.582 89.9378 988.831 67.3087C986.773 57.5077 981.281 49.7444 972.898 44.3041C962.657 37.779 950.237 35.6081 938.39 38.2728C925.527 41.1384 914.312 48.9599 907.178 60.0406C904.167 64.8145 899.996 79.4275 895.352 79.9219C877.071 81.8679 893.279 54.3312 897.714 48.3717C907.64 34.7565 922.689 25.7779 939.385 23.5096C954.727 21.3452 971.723 24.7614 984.165 34.2604C994.859 42.5397 1001.84 54.7151 1003.58 68.1261C1005.38 82.1362 1001 96.5507 992.291 107.537C975.914 128.189 951.5 136.848 928.878 147.836C894.968 164.059 868.215 192.195 853.72 226.879C843.38 251.68 840.003 266.639 847.939 292.748C863.23 293.965 861.039 297.188 857.233 310.162C867.993 332.931 887.778 352.003 877.154 378.857C861.509 418.405 825.131 431.205 785.719 430.418C781.47 429.869 776.027 429.619 771.675 429.298L770.043 428.797L767.191 428.535C752.83 425.653 738.805 421.299 725.337 415.542C717.339 412.202 708.806 407.959 700.767 404.983C702.087 410.597 702.199 417.492 702.97 423.355C703.745 429.257 705.2 435.019 700.152 439.062C690.461 476.063 651.186 493.333 615.906 491.912C613.286 491.807 606.116 491.871 604.146 491.124C594.253 490.832 596.891 493.459 590.237 500.3C588.106 502.49 584.315 502.797 582.14 505.141L580.906 504.896C579.69 511.238 579.496 514.128 576.272 519.879C577.043 520.218 576.639 520.069 577.487 520.321C576.545 521.663 576.183 522.045 574.851 523.044C569.323 527.192 566.936 541.812 562.064 545.264C564.449 548.605 567.611 551.418 569.8 554.715C591.165 586.899 572.846 623.868 543.976 643.819C521.837 659.118 495.665 666.702 469.058 667.633C457.457 667.632 449.356 667.389 437.923 666.093C433.576 665.386 421.399 662.691 418.046 662.757C415.508 667.576 414.847 668.553 413.628 673.827C423.593 684.944 432.27 695.301 431.341 711.675C430.814 720.883 426.609 729.493 419.671 735.57C396.415 755.666 357.222 740.967 351.536 745.756C327.305 766.164 301.983 801.656 280.187 825.854C276.359 830.109 275.067 834.648 271.938 838.137C274.955 843.197 278.929 848.524 281.612 853.488C289.953 869.129 292.133 887.326 287.723 904.494C282.532 924.974 267.776 943.147 249.498 953.514C212.854 974.298 168.438 969.942 129.377 959.273C127.679 958.81 127.794 959.529 127.577 960.898C117.532 966.328 105.648 976.744 95.8708 983.801C84.7907 991.799 73.6058 998.402 62.6153 1006.06C62.3909 1006.82 64.1438 1013.92 64.1144 1017.21C62.2298 1013.66 60.77 1009.63 59.3014 1005.86C55.1273 990.348 52.2348 963.663 66.6679 952.289C86.1121 936.966 116.787 953.527 137.586 958.656C150.419 962.381 162.219 964.58 175.605 965.839C225.316 970.516 282.362 947.645 287.613 891.731C289.99 866.428 278.784 850.103 262.668 831.481C246.213 814.497 227.864 802.232 212.622 782.7C203.282 769.51 193.908 754.501 198.616 737.492C201.017 729.33 208.065 721.809 215.712 718.229C244.567 704.722 278.8 717.146 306.586 726.482C316.915 729.946 327.277 733.311 337.671 736.578L340.646 737.178C360.987 744.149 390.627 748.632 410.64 738.992C428.971 730.162 434.262 708.97 424.601 691.652C420.039 683.474 414.892 678.412 407.626 672.487C404.802 675.609 402.184 678.487 399.559 681.794C412.195 690.97 424.148 705.283 412.21 720.284C399.898 735.754 371.181 729.477 354.998 725.527C336.222 720.944 318.911 712.959 300.798 707.086C287.594 702.773 273.954 699.928 260.126 698.604C236.887 696.464 209.857 699.602 193.708 718.412C185.528 728.13 181.577 740.718 182.737 753.368C184.898 779.048 205.657 802.576 224.702 818.22C232.51 824.634 252.313 839.524 258.076 846.607L257.445 848.165C255.882 846.615 254.288 844.986 252.695 843.478C247.741 848.916 243.419 854.062 238.758 859.759C236.457 862.572 232.012 868.131 229.501 870.463C225.463 867.81 220.898 864.953 217.095 862.046C224.07 864.583 225.099 864.217 232.462 862.497C234.835 858.651 236.179 855.33 238.817 851.502C241.605 847.457 244.926 843.587 247.341 839.4C243.412 835.308 233.394 827.802 228.683 824.023C218.704 816.02 211.201 809.167 202.663 799.57C198.855 804.522 174.979 838.733 175.456 842.606C177.514 846.359 181.88 847.782 185.143 850.5C183.74 852.012 183.773 851.905 183.303 853.898C180.964 852.049 178.628 849.928 176.582 847.763C175.255 846.36 173.707 844.753 173.531 842.73C172.709 833.278 195.229 809.863 197.913 799.863C199.334 794.572 191.772 784.939 189.325 780.414C187.221 776.523 185.242 772.408 183.75 768.239C181.471 761.872 180.348 754.718 180.506 747.961C180.689 734.567 186.335 721.829 196.136 712.698C208.817 700.898 225.549 696.849 242.373 695.949C250.847 695.496 258.804 696.292 267.245 696.579C269.007 694.023 271.204 691.85 273.064 688.987C280.194 678.01 291.602 666.309 292.303 652.633C292.329 652.14 289.246 648.685 288.682 648.126C277.36 636.911 271.402 619.135 284.227 606.329C293.452 596.976 307.177 595.279 319.75 596.125C325.17 596.49 330.296 597.749 335.806 597.686C336.976 596.561 340.168 592.663 340.976 591.166C346.816 580.343 366.978 565.469 371.188 555.749L371.256 555.806C354.895 543.83 344.457 533.442 337.934 513.391C331.491 493.971 333.046 472.785 342.255 454.514C349.737 439.95 362.637 428.342 377.442 421.528C387.8 416.761 399.082 414.339 409.842 410.829C409.264 402.978 408.982 400.666 412.421 393.365C387.717 363.471 386.358 322.99 408.309 290.882C432.589 255.368 479.901 242.59 519.982 235.653C536.578 232.78 554.062 232.229 570.809 234.433C594.963 237.701 587.689 230.025 584.18 212.117C581.79 200.149 578.715 188.031 575.965 176.087C574.661 170.279 568.216 151.544 580.259 154.471C582.765 155.516 585.525 160.291 586.577 162.576C596.255 181.639 619.559 179.962 627.481 201.291C630.672 209.882 626.757 245.152 614.629 234.815C613.991 231.958 613.967 231.534 614.23 228.617C615.89 216.75 619.174 200.145 601.827 197.734C600.129 197.498 599.235 197.981 598.012 199.042C596.898 203.918 604.018 233.55 605.704 239.679ZM436.071 379.851C429.156 377.185 427.344 379.581 422.989 384.822C422.984 386.101 422.614 387.621 423.693 388.554C430.206 394.19 458.949 402.005 460.706 409.376C460.927 410.306 460.587 411.085 460.009 411.824C459.012 413.099 457.989 413.749 456.324 413.827C452.09 414.025 434.843 403.701 430.027 401.122C424.637 398.591 408.957 388.857 412.311 406.537C412.452 407.284 414.612 408.57 415.363 408.973C421.471 411.867 445.527 422.504 447.281 427.993C447.556 428.852 447.428 429.484 447.239 430.329C445.657 432.625 443.75 433.842 440.992 432.728C430.451 428.471 420.237 422.102 410.017 417.137C400.461 412.482 394.169 420.886 400.781 426.573C407.082 429.935 431.52 441.148 433.278 446.498C433.676 447.709 433.713 448.475 433.062 449.607C432.427 450.71 430.739 451.665 429.537 451.806C423.889 452.468 400.183 437.551 392.926 434.677C389.448 435.989 388.813 436.333 385.863 438.525C384.244 441.615 384.129 441.614 385.585 444.945C385.736 445.068 385.886 445.194 386.039 445.316C391.656 449.765 417.49 459.933 418.572 465.462C418.801 466.631 418.486 468.106 417.779 469.072C416.886 470.291 415.348 470.75 413.9 470.758C407.125 470.797 387.208 457.799 379.913 454.132C371.784 450.376 369.461 461.626 367.319 467.301C362.519 480.017 360.331 512.529 371.396 522.523C371.807 518.052 370.606 513.053 370.64 508.394C370.678 503.067 377.449 472.411 386.745 480.479C387.718 482.881 386.74 486.293 385.698 488.511C379.39 501.932 375.522 512.529 378.876 527.609C380.7 533.264 382.092 536.576 385.41 541.589C388.349 544.765 391.112 547.49 394.225 550.504C392.485 544.99 390.423 538.807 389.861 533.197C388.599 520.604 392.625 506.349 398.039 495.064C401.425 488.008 410.844 489.568 405.342 501.521C394.914 524.177 388.987 550.849 414.748 565.499C415.537 565.957 416.329 566.41 417.124 566.858C408.816 551.15 406.382 539.929 412.004 522.495C413.917 516.561 416.052 504.898 423.534 505.642C428.875 509.027 421.753 520.791 420.522 525.989C414.573 551.086 420.008 571.369 445.196 581.146C442.637 576.771 438.632 572.268 436.449 568.052C430.161 555.454 431.287 540.295 434.594 527.031C435.598 523.006 438.409 513.574 443.989 514.956C448.646 516.109 446.915 522.331 445.74 525.555C437.214 548.958 436.935 573.144 457.975 589.876C466.21 594.349 471.158 597.893 480.975 599.056C496.035 600.841 511.231 593.294 522.633 584.047C526.679 580.765 534.197 574.801 534.632 569.066C534.806 566.762 533.425 565.479 531.989 563.793C527.47 560.181 522.725 554.833 518.629 550.698C515.483 547.522 508.518 541.128 511.147 536.41C514.659 534.269 516.963 535.174 519.752 537.877C526.434 544.354 532.782 551.388 538.913 558.38C539.743 559.018 540.011 559.512 541.002 559.552C545.483 559.733 548.567 555.182 548.355 551.148C548.045 545.255 543.756 542.006 539.839 538.475C536.261 534.304 524.839 524.255 525.108 521.182C526.543 504.813 549.584 535.198 551.807 537.831C552.239 538.111 554.783 540.471 555.314 540.952C564.302 537.583 567.324 532.38 560.318 524.874C557.256 521.794 526.676 494.598 546.825 498.117C547.917 498.307 564.753 515.516 567.772 518.328C575.539 523.191 579.88 512.02 572.499 504.736C567.331 498.165 560.641 492.732 555.693 486.04C554.083 483.862 554.622 481.662 556.061 479.544C559.168 477.95 561.64 479.709 563.987 481.917C569.441 487.049 574.746 492.574 579.909 497.986C585.984 503.257 591.383 496.167 590.653 490.523C586.613 485.088 567.95 468.681 568.002 463.344C568.014 462.08 568.68 461.333 569.475 460.445C575.313 457.498 590.165 476.151 594.102 480.362C591.798 483.485 591.164 480.359 590.466 483.491C592.426 487.41 599.979 488.18 603.949 488.709C636.768 493.085 675.303 483.479 692.33 452.594C696.896 444.312 698.392 437.369 699.533 428.095C699.64 426.98 699.736 425.864 699.82 424.747C701.28 405.057 693.817 383.414 680.832 368.544C668.218 353.935 650.496 344.703 631.295 342.737C625.172 342.071 620.42 342.435 614.609 342.056L613.885 342.335C616.628 345.685 618.423 351.223 620.98 353.158C625.797 356.63 634.368 366.602 630.707 372.847C627.993 366.339 626.081 361.519 622.117 355.61C610.263 350.058 600.904 351.426 590.373 358.954C586.187 362.11 574.577 376.407 570.318 370.75C568.888 362.392 579.87 353.589 586.862 350.775C588.458 349.671 590.571 349.305 592.486 348.807C596.682 347.8 607.04 346.441 610.845 348.355C613.2 348.743 613.449 349.191 615.298 348.441L615.388 347.317C614.004 344.93 611.173 342.478 609.125 340.483C606.955 339.97 602.78 337.22 597.426 336.013C587.052 335.02 577.443 337.308 569.574 344.527C566.762 347.107 559.71 355.869 555.339 355.069C551.99 354.417 550.829 349.282 552.273 346.713C560.208 332.599 583.644 326.997 597.577 332.868C598.885 332.502 598.394 332.887 599.221 331.922C599.142 331.062 598.979 330.438 598.317 329.824C592.023 323.989 584.71 319.892 576.442 318.908C549.67 321.148 543.153 341.09 535.74 342.847C534.546 343.129 533.108 342.777 532.174 342.033C531.249 341.296 530.979 340.088 530.928 338.957C530.739 334.786 534.443 330.187 537.233 327.436C547.586 317.227 559.478 315.323 573.374 315.505C568.897 310.698 566.996 309.913 561.05 307.735C545.773 305.177 532.729 311.933 522.597 323.079C519.541 326.441 516.158 334.732 510.734 332.72C507.212 329.78 508.935 324.573 511.328 321.465C521.256 308.566 532.679 305.132 548.099 303.43C542.926 296.178 529.024 297.61 521.571 299.788C506.942 305.942 503.169 312.693 494.194 324.462C491.36 328.18 484.918 324.695 486.712 320.063C489.641 312.5 497.276 305.583 504.144 301.43C507.088 299.669 509.489 298.957 512.173 297.147C497.636 292.734 471.348 315.772 464.148 327.525C463.733 328.204 463.992 329.856 464.175 330.632C470.765 334.1 502.014 346.471 503.056 350.778C503.446 352.368 503.019 354.049 501.918 355.261C501.161 356.085 499.437 357.017 498.527 356.776C486.302 353.548 470.403 343.572 458.595 339.673C452.161 340.241 446.101 344.718 452.525 351.246C453.059 351.789 456.172 353.146 457.108 353.578C463.692 356.342 489.6 365.435 487.408 373.239C486.457 374.314 484.556 376.063 483.271 375.593C475.536 372.763 459.445 365.04 452.856 361.344C446.611 359.08 440.273 355.839 437.532 364.418C436.477 367.719 439.028 369.223 441.515 370.603C447.478 373.09 474.416 384.003 473.696 391.085C472.868 392.533 471.424 393.997 469.787 394.533C465.951 395.789 441.328 382.335 436.071 379.851ZM262.668 831.481L264.417 830.777C265.667 831.693 267.962 834.135 269.16 835.332C275.621 826.464 285.672 815.374 292.808 806.708C310.827 784.823 329.807 763.421 347.527 741.297L339.892 739.234C339.707 738.537 340.15 738.176 340.646 737.178L337.671 736.578C327.277 733.311 316.915 729.946 306.586 726.482C278.8 717.146 244.567 704.722 215.712 718.229C208.065 721.809 201.017 729.33 198.616 737.492C193.908 754.501 203.282 769.51 212.622 782.7C227.864 802.232 246.213 814.497 262.668 831.481ZM845.876 293.195C837.268 270.855 841.826 248.942 850.923 227.648C864.776 195.222 887.451 167.729 918.718 150.8C944.661 136.753 979.474 126.963 995.087 99.6951C1001.76 88.1924 1003.61 74.5141 1000.22 61.6539C992.25 32.58 959.704 19.176 932.018 27.0658C916.359 31.5648 903.097 42.0433 895.099 56.2379C892.815 60.3723 884.582 75.5187 891.87 77.7459C897.87 79.5797 899.484 71.5735 901.089 67.5095C911.103 42.1473 939.55 28.4917 965.396 38.0313C974.587 41.4236 984.563 49.3077 988.572 58.7046C991.965 66.6874 992.634 75.566 990.474 83.967C982.159 115.231 941.06 126.902 915.79 140.551C877.716 161.116 851.511 194.409 837.15 234.85C835.637 239.111 833.627 250.897 832.025 253.836C827 263.053 808.514 270.536 799.096 274.797C757.269 291.442 704.086 285.055 662.29 270.997C646.145 265.566 621.923 254.332 605.744 246.971C605.439 251.883 605.138 253.269 602.85 257.744C621.174 263.485 648.721 279.63 668.766 283.764C673.955 284.834 675.713 285.901 680.502 287.183C685.22 288.416 689.976 289.495 694.764 290.419C725.575 296.353 747.021 296.186 777.759 292.314C778.726 289.077 779.193 287.766 782.659 287.015C784.853 286.539 789.734 287.402 791.831 288.028L791.617 288.826C789.817 288.838 787.144 288.758 785.442 289.077C783.07 289.069 782.906 288.691 781.136 289.686C779.42 292.837 777.168 302.596 776.108 306.681L767.21 340.609C765.742 346.293 763.204 357.33 761.042 362.386C746.596 355.235 722.527 358.892 718.196 376.59C719.797 381.448 721.598 384.985 726.559 386.896C740.027 392.082 758.885 390.654 766.261 376.663C770.588 368.458 781.311 315.798 785.394 312.608C789.105 312.158 837.65 317.454 841.99 318.653C840.826 322.63 839.604 327.197 838.253 331.066C836.081 339.371 831.457 355.434 828.542 363.386C828.362 364.766 827.611 366.675 827.138 368.064C823.737 366.424 820.773 365.371 816.986 364.929C805.886 363.636 790.838 368.46 787.743 380.428C787.203 382.517 787.413 385.21 787.522 387.389C792.52 395.009 799.41 395.975 807.738 395.886C819.614 396.815 832.023 388.346 834.416 376.254C835.969 368.41 858.596 301.257 857.461 297.091C853.855 295.04 836.18 294.292 830.421 293.7L833.119 293.288C834.276 292.096 833.86 291.979 833.923 289.712L834.507 291.289C836.341 292.855 842.599 292.763 845.876 293.195ZM353.206 723.09L360.753 725.218C365.68 719.964 370.332 713.874 374.872 708.228C387.851 692.088 402.197 676.694 415.097 660.542C412.721 659.606 410.562 658.677 408.08 658.051C388.96 679.569 371.819 701.467 353.206 723.09ZM449.117 647.799C481.369 652.13 510.046 647.731 537.798 627.687C553.807 616.124 571.034 591.103 559.949 569.589C558.399 566.581 552.907 566.816 550.941 563.809C541.595 564.157 538.284 574.437 532.668 580.803C522.2 593.092 503.505 602.952 487.399 603.967C477.728 604.576 470.388 600.313 463.022 610.343C459.057 615.742 433.961 639.522 443.202 645.25C441.284 645.194 439.367 645.116 437.45 645.016C441.971 646.37 445.175 646.726 449.117 647.799ZM639.51 318.482C644.691 320.15 650.025 321.247 655.158 322.871C667.153 326.664 667.64 339.793 669.745 350.64L670.412 350.543C673.453 341.906 671.59 329.232 683.333 323.308C688.783 320.559 694.733 320.683 700.075 318.54C690.729 316.584 683.356 316.378 677.076 307.856C671.967 300.923 673.53 289.868 670.381 284.713C666.419 294.769 669.3 309.139 656.67 314.302C650.524 316.815 646.074 317.486 639.51 318.482ZM431.672 374.201C435.182 364.53 433.956 358.872 444.125 353.452C446.328 347.355 448.917 340.378 455.053 337.49C456.059 337.023 457.076 336.579 458.103 336.159C458.711 333.733 459.801 328.59 460.97 326.716C466.825 317.335 479.313 306.854 488.464 300.947C493.162 297.914 504.985 292.594 510.523 294.011C512.939 294.63 515.438 297.035 517.773 297.158L515.213 294.726L515.41 294.305C527.732 297.813 524.942 293.929 534.057 294.103C542.778 294.27 557.597 302.561 566.427 304.952C568.944 305.782 572.189 310.668 574.133 311.515C581.939 314.917 586.315 315.012 593.313 320.184C599.482 324.744 607.436 336.757 613.432 339.403C614.946 340.071 628.641 339.999 633.01 340.684C654.043 343.98 671.304 353.19 684.758 369.86C688.8 374.868 691.086 379.336 694.481 384.464C735.142 404.036 777.969 426.28 824.215 410.69C846.518 403.172 872.42 377.745 862.967 352.244C861.444 348.134 853.947 334.24 850.694 331.354L850.599 332.098C850.004 336.479 848.562 337.649 847.418 341.433C843.298 355.063 839.188 371.083 833.684 384.032C828.486 396.26 812.043 400.022 800.23 397.933C790.84 396.525 782.697 389.896 785.217 379.717C788.661 365.81 810.725 359.317 823.078 363.393C823.982 363.691 824.23 363.685 825.207 363.758L826.204 361.401C828.936 353.229 831.614 344.446 833.842 336.11C834.966 331.907 835.128 327.125 836.307 322.876C833.727 320.53 830.053 320.712 826.599 320.38C815.598 319.322 798.777 315.082 788.302 318.692L786.061 322.283L784.787 321.785C780.954 332.418 778.639 344.688 775.258 355.673C771.421 368.139 770.617 382.794 756.573 388.774C747.728 392.47 736.646 393.863 727.543 390.307C714.684 385.45 712.42 371.723 723.778 363.567C731.882 357.748 742.054 355.8 751.873 356.627C753.797 356.799 759.093 359.539 760.002 357.687L759.506 357.165L757.738 357.332L757.207 356.699C757.938 354.866 758.123 354.783 759.559 353.35L759.891 353.484L759.364 355.699L759.829 356.355C763.322 349.13 767.393 327.066 770.055 318.601C771.576 313.763 772.778 306.391 774.591 301.311C775.002 300.159 773.973 297.169 773.542 295.922C773.489 295.912 740.431 297.106 739.748 297.295C729.607 300.094 679.777 288.574 676.068 289.429C675.903 298.805 676.984 298.851 680.986 306.777L679.485 305.199C686.089 317.252 698.997 312.941 699.552 320.076C695.037 324.193 688.358 320.979 680.815 328.773C673.997 335.815 675.16 349.988 670.148 352.033C664.859 349.162 667.213 339.573 663.15 335.402C660.809 332.998 659.131 328.85 656.358 326.777C652.086 323.067 640.493 323.744 639.597 318.06C640.052 317.206 640.823 315.696 641.961 315.578C662.674 313.431 664.631 304.534 666.762 286.306C657.584 283.006 648.49 279.477 639.488 275.724C634.69 273.739 627.054 270.225 622.477 268.749C621.651 271.541 622.263 274.076 617.492 273.934C615.36 272.374 615 269.874 615.934 267.489C617.422 267.003 616.653 267.138 618.37 267.533C617.907 266.237 614.544 264.983 613.113 264.866C612.351 265.967 612.588 265.348 612.725 266.869C608.746 267.431 604.408 264.226 602.257 261.136C591.18 271.473 577.723 281.725 561.786 281.966C552.465 282.106 543.297 275.371 543.226 265.4C543.191 260.453 547.478 256.257 547.74 251.485C547.785 250.801 548.743 249.851 549.2 249.326C546.062 247.157 529.54 249.045 525.351 249.726C488.02 255.8 442.993 267.054 420.379 299.644C409.648 315.025 405.408 334.013 408.575 352.498C410.117 361.005 414.727 371.925 420.836 378.164C425.232 376.738 428.865 376.883 431.672 374.201ZM604.753 473.089C601.025 465.336 583.8 452.048 584.078 445.822C584.776 430.14 609.647 463.816 610.668 464.979C608.853 465.61 607.056 465.974 605.91 467.448C605.382 469.559 605.417 469.75 605.521 471.961L604.753 473.089ZM593.317 193.001C592.633 190.966 592.124 187.657 591.713 185.455C594.933 186.868 596.483 187.599 599.489 189.419C613.631 197.051 619.678 202.954 618.05 220.163C617.662 224.269 615.132 231.247 617.216 234.775C621.767 236.565 624.36 224.885 625.085 222.162C633.313 191.244 609.627 187.565 590.675 172.355C585.857 168.488 584.23 161.994 580.774 157.135C580.453 156.664 579.849 156.343 579.337 156.115C577.467 156.137 577.488 156.031 575.902 157.172C574.68 159.79 575.55 163.276 576.297 166.048C582.484 189.014 585.895 215.931 593.032 238.322C579.236 235.791 572.032 238.23 560.356 245.666C551.19 251.821 541.069 262.446 548.571 273.428C560.487 290.868 602.761 265.949 603.244 251.13C603.718 236.596 595.509 208.273 593.317 193.001ZM105.841 951.984C98.7313 949.394 92.4578 947.862 84.7768 948.191C77.0753 948.703 71.6509 950.176 66.0801 956.132C60.8016 961.774 57.2942 974.239 58.7813 981.802L59.3806 981.666L59.8224 980.794C64.1949 981.334 63.0526 983.621 67.9292 980.297C69.9065 978.949 72.523 977.348 74.5871 975.928C80.9716 971.675 87.1872 967.174 93.2195 962.436C96.4851 959.819 99.3345 956.981 102.335 954.095C102.344 954.087 105.316 952.35 105.841 951.984ZM398.406 428.051L398.052 427.545C395.663 424.057 395.318 421.777 396.691 417.715C392.327 416.718 373.634 425.654 369.423 428.277C353.416 438.086 342.046 453.941 337.889 472.248C333.567 491.778 337.075 512.223 347.659 529.195C355.146 540.988 363.722 548.331 375.775 555.01C377.839 552.911 381.192 549.272 383.275 547.423L379.921 545.435C371.848 540.771 364.798 534.529 359.191 527.08C345.46 508.867 343.432 482.87 352.855 462.254C355.351 456.792 360.766 448.95 365.589 445.309C371.57 438.492 381.308 433.177 389.885 430.705C392.317 430.004 396.531 429.137 398.406 428.051ZM391.6 629.768C386.554 627.312 378.324 622.274 373.596 619.236C371.535 618.005 369.463 616.794 367.379 615.602C346.89 603.811 324.928 593.704 300.804 599.749C286.505 603.332 276.051 614.226 280.148 629.887C282.907 640.437 288.987 645.318 296.711 652.328L299.303 653.69C300.78 651.011 304.956 645.292 306.847 642.507C299.458 636.585 295.69 633.392 293.311 623.94C295.235 615.493 301.249 612.33 309.492 611.557C330.818 609.823 350.966 625.29 368.473 636.734C426.361 674.573 515.94 679.906 563.338 622.406C580.992 600.989 582.388 567.589 561.175 548.086C557.784 544.968 554.516 543.308 551.035 540.657L550.443 540.2C548.41 539.372 544.802 537.693 542.808 537.783C548.897 544.362 549.974 544.915 550.279 553.636C571.641 572.419 569.586 598.061 551.214 618.444C518.915 654.279 462.937 658.643 419.512 642.98C408.53 638.211 402.352 635.51 391.6 629.768ZM455.605 592.459C437.206 584.667 417.573 572.175 400.944 561.053C395.84 557.64 391.275 551.278 386.592 547.55L384.959 548.535C380.155 555.204 366.396 566.668 360.145 573.186C351.144 582.572 346.204 589.463 338.703 599.793C342.936 601.411 349.217 603.603 353.073 605.656C351.552 598.566 350.619 592.764 354.771 586.048C357.567 581.55 362.05 578.36 367.216 577.193C372.813 575.941 378.679 577.037 383.447 580.226C388.157 583.358 391.349 588.312 392.255 593.896C394.173 606.143 386.45 614.456 375.212 617.571C378.517 619.999 389.844 627.32 393.479 628.297C401.718 628.475 412.868 629.066 420.849 627.518C426.197 626.48 429.943 624.465 436.11 623.557C431.515 630.041 426.308 635.558 420.885 641.339C423.268 642.48 425.884 643.152 428.427 643.914C440.844 630.536 455.22 611.936 467.589 597.462C463.585 595.817 459.59 594.15 455.605 592.459ZM401.079 686.631C397.768 690.167 392.885 693.516 389.152 696.758C383.149 701.971 379.081 707.851 375.094 714.65C372.34 719.296 370.968 719.266 370.835 724.52C369.552 725.482 369.685 725.066 367.629 725.244C369.211 726.725 378.294 727.518 380.884 727.896C390.587 728.306 400.368 728.029 408.079 721.215C420.194 710.511 413.548 693.413 401.079 686.631ZM700.611 429.032C700.274 431.352 699.459 434.204 700.788 436.047C703.001 433.549 703.016 430.758 701.907 427.701L701.226 427.447L700.611 429.032ZM297.153 659.459C296.41 660.853 294.778 663.106 293.816 664.415C285.816 675.293 278.562 687.062 270.326 697.725C278.872 699.294 288.546 700.991 296.853 703.562C312.723 708.474 328.775 714.859 344.411 720.642C359.521 704.884 370.244 685.963 387.805 672.631C390.311 670.728 399.525 659.123 402.084 656.173C382.241 647.904 366.486 638.834 348.772 626.719C342.695 622.563 334.309 618.758 327.537 615.711C318.881 628.087 309.541 642.782 300.724 654.526C299.564 656.164 298.393 657.892 297.153 659.459ZM855.86 313.084C854.108 317.83 852.809 322.174 851.425 327.029C856.508 335.147 862.554 343.971 865.689 353.055C872.75 373.513 856.288 395.271 839.8 405.423C816.319 419.88 787.785 420.29 761.684 414.158C736.141 408.405 718.077 397.503 694.971 387.413C696.849 391.592 698.336 395.935 699.415 400.387C700.697 403.149 733.374 416.315 738.23 418.088C769.042 429.334 805.062 433.769 835.696 419.613C853.324 411.467 868.402 396.912 875.053 378.44C879.559 365.921 878.479 354.461 872.757 342.564C867.837 332.334 860.862 323.189 855.86 313.084ZM617.271 451.438C612.115 445.829 606.739 440.014 601.837 434.166C599.471 431.343 597.348 428.225 599.513 424.742C604.275 421.729 607.637 426.869 610.563 430.253C614.617 434.942 618.321 439.968 622.385 444.69C618.134 448.03 619.768 448.203 617.271 451.438ZM357.379 605.815C360.723 611.461 367.043 614.649 373.571 613.981C381.008 613.221 387.052 607.646 388.41 600.295C389.767 592.943 386.113 585.578 379.438 582.211C372.763 578.845 364.668 580.285 359.563 585.747C354.459 591.209 353.569 599.383 357.379 605.815ZM110.007 952.283C93.771 965.992 75.9483 977.871 58.2836 989.63C58.6379 994.053 59.7569 998.765 60.8245 1003.06C61.905 1003.42 62.0463 1003 63.4623 1002.3C66.7426 999.705 79.1082 992.488 83.9273 989.183C98.3785 979.2 112.402 968.61 125.959 957.442C120.611 955.818 115.293 954.098 110.007 952.283ZM417.075 393.805C421.896 394.274 423.559 394.719 427.954 397.002C428.926 393.697 417.889 393.042 422.086 383.32C404.765 365.572 401.565 338.606 409.661 315.927C426.451 268.895 481.913 254.455 526.172 247.653C533.301 246.558 541.418 246.004 548.45 246.179C550.809 246.252 553.166 246.389 555.518 246.588C562.573 241.55 565.722 239.612 573.987 237.143C537.611 232.415 508.706 237.939 473.904 248.906C435.739 260.933 400.65 287.599 395.67 329.869C392.86 354.232 398.824 376.743 417.075 393.805Z"/><path fill="white" d="M506.842 380.542C519.681 379.102 583.737 418.683 567.504 431.8C563.852 432.156 557.904 425.485 555.531 422.763C542.176 407.448 525.07 400.332 507.92 390.499C503.749 388.108 502.75 384.173 506.842 380.542Z"/><path fill="white" d="M521.948 360.487C529.523 359.973 552.394 373.382 558.783 377.976C562.136 380.407 565.255 383.143 568.102 386.151C570.744 388.905 573.72 392.17 576.081 395.155C580.004 400.115 588.608 407.718 580.652 412.964C574.549 410.715 561.765 393.878 554.552 389.305C549.397 385.106 542.647 382.592 537.225 379.014C530.754 374.743 510.866 369.924 521.948 360.487Z"/><path fill="white" d="M451.894 456.964C463.067 457.462 492.841 476.527 500.32 485.019C504.149 489.366 513.353 496.607 512.735 502.915C512.586 504.442 510.561 505.764 509.443 506.589C509.236 506.554 509.026 506.532 508.821 506.485C503.695 505.327 487.964 488.436 481.735 483.919C475.678 479.528 451.662 468.046 449.097 463.679C448.402 462.497 448.333 461.5 448.701 460.178C449.119 458.675 450.66 457.724 451.894 456.964Z"/><path fill="white" d="M492.839 400.397C493.471 400.373 494.103 400.35 494.735 400.327C515.98 407.989 536.197 417.464 550.15 436.08C553.438 440.466 558.998 444.654 553.213 449.467C548.37 449.73 542.578 443.219 539.671 439.738C526.882 424.423 507.443 419.168 491.828 407.716C488.827 405.515 490.699 402.516 492.839 400.397Z"/><path fill="white" d="M466.85 437.446C474.509 438.945 510.564 460.089 516.724 467.545C519.479 470.879 526.684 477.791 526.132 482.962C525.87 485.408 524.818 486.069 523.156 487.514C517.16 486.16 508.09 474.285 502.307 469.564C490.385 459.832 475.711 454.141 464.165 444.298C461.49 442.017 464.557 438.845 466.85 437.446Z"/><path fill="white" d="M480.092 418.476C481.04 418.421 482.855 418.357 483.842 418.851C494.74 424.299 509.207 431.127 519.192 437.695C522.647 439.968 540.921 459.406 541.353 464.28C541.499 465.924 540.048 467.559 538.862 468.757C532.703 468.887 529.478 462.623 525.517 458.504C524.394 456.595 519.82 452.782 518.955 451.278C513.99 442.639 477.844 430.583 477.302 422.349C477.874 420.393 478.58 419.976 480.092 418.476Z"/><path fill="white" d="M438.959 475.55C444.419 476.829 450.465 480.822 455.51 483.472C465.423 488.953 476.776 494.34 484.41 503.035C488.483 507.675 507.812 521.171 495.389 525.458C489.403 523.793 476.047 507.097 469.682 502.512C459.134 495.094 444.529 491.639 435.35 482.675C432.21 479.608 436.401 476.734 438.959 475.55Z"/><path fill="#0B090C" fill-opacity="0.011764706" d="M409.852 450.525L410.08 450.67C409.752 452.049 409.674 452.796 409.506 454.187L408.393 453.783L408.217 452.846L409.852 450.525Z"/><path fill="white" d="M464.175 330.632C470.765 334.1 502.014 346.471 503.056 350.778C503.446 352.368 503.019 354.049 501.918 355.261C501.161 356.085 499.437 357.017 498.527 356.776C486.302 353.548 470.403 343.572 458.595 339.673C459.54 338.618 462.074 337.978 463.87 337.02C465.036 335.338 464.421 332.729 464.175 330.632Z"/><path fill="white" d="M597.426 336.013C587.052 335.02 577.443 337.308 569.574 344.527C566.762 347.107 559.71 355.869 555.339 355.069C551.99 354.417 550.829 349.282 552.273 346.713C560.208 332.599 583.644 326.997 597.577 332.868L598.022 333.601L598.961 333.922C600.474 334.45 601.829 335.087 603.282 335.753C601.597 337.071 601.336 335.678 598.769 335.437L597.426 336.013Z"/><path fill="white" d="M576.442 318.908C549.67 321.148 543.153 341.09 535.74 342.847C534.546 343.129 533.108 342.777 532.174 342.033C531.249 341.296 530.979 340.088 530.928 338.957C530.739 334.786 534.443 330.187 537.233 327.436C547.586 317.227 559.478 315.323 573.374 315.505L574.176 316.099C575.172 316.83 575.515 317.008 576.664 317.546C576.619 317.866 576.534 318.635 576.442 318.908Z"/><path fill="white" d="M548.099 303.43C552.721 305.513 559.388 305.374 561.05 307.735C545.773 305.177 532.729 311.933 522.597 323.079C519.541 326.441 516.158 334.732 510.734 332.72C507.212 329.78 508.935 324.573 511.328 321.465C521.256 308.566 532.679 305.132 548.099 303.43Z"/><path fill="white" d="M436.071 379.851C439.829 376.177 441.178 377.791 440.684 371.548L441.515 370.603C447.478 373.09 474.416 384.003 473.696 391.085C472.868 392.533 471.424 393.997 469.787 394.533C465.951 395.789 441.328 382.335 436.071 379.851Z"/><path fill="white" d="M385.585 444.945C385.736 445.068 385.886 445.194 386.039 445.316C391.656 449.765 417.49 459.933 418.572 465.462C418.801 466.631 418.486 468.106 417.779 469.072C416.886 470.291 415.348 470.75 413.9 470.758C407.125 470.797 387.208 457.799 379.913 454.132C381.044 453.305 383.21 452.571 384.632 451.991C385.552 450.505 385.311 447.303 385.585 444.945Z"/><path fill="white" d="M371.396 522.523C371.807 518.052 370.606 513.053 370.64 508.394C370.678 503.067 377.449 472.411 386.745 480.479C387.718 482.881 386.74 486.293 385.698 488.511C379.39 501.932 375.522 512.529 378.876 527.609C378.61 527.804 377.711 528.82 377.448 529.104L376.885 528.696C375.957 525.197 374.049 525.689 371.396 522.523Z"/><path fill="white" d="M393.479 628.297C401.718 628.475 412.868 629.066 420.849 627.518C426.197 626.48 429.943 624.465 436.11 623.557C431.515 630.041 426.308 635.558 420.885 641.339L419.512 642.98C408.53 638.211 402.352 635.51 391.6 629.768L393.479 628.297Z"/><path fill="white" d="M415.363 408.973C421.471 411.867 445.527 422.504 447.281 427.993C447.556 428.852 447.428 429.484 447.239 430.329C445.657 432.625 443.75 433.842 440.992 432.728C430.451 428.471 420.237 422.102 410.017 417.137C412.892 413.276 414.382 416.788 415.363 408.973Z"/><path fill="white" d="M452.856 361.344C452.253 359.997 450.417 359.701 448.662 359.008L448.54 358.508C450.243 358.276 451.251 358.315 452.631 357.299C453.477 355.828 453.214 355.165 453.007 353.464L452.927 352.854C454.316 353.122 455.71 353.363 457.108 353.578C463.692 356.342 489.6 365.435 487.408 373.239C486.457 374.314 484.556 376.063 483.271 375.593C475.536 372.763 459.445 365.04 452.856 361.344Z"/><path fill="white" d="M531.989 563.793C527.47 560.181 522.725 554.833 518.629 550.698C515.483 547.522 508.518 541.128 511.147 536.41C514.659 534.269 516.963 535.174 519.752 537.877C526.434 544.354 532.782 551.388 538.913 558.38C537.196 562.172 533.935 561.226 534.699 564.599C533.422 564.953 533.581 564.66 531.989 563.793Z"/><path fill="white" d="M512.173 297.147C515.163 298.254 512.638 298.86 514.977 299.317C518.013 299.91 518.92 297.54 521.571 299.788C506.942 305.942 503.169 312.693 494.194 324.462C491.36 328.18 484.918 324.695 486.712 320.063C489.641 312.5 497.276 305.583 504.144 301.43C507.088 299.669 509.489 298.957 512.173 297.147Z"/><path fill="white" d="M604.753 473.089C601.025 465.336 583.8 452.048 584.078 445.822C584.776 430.14 609.647 463.816 610.668 464.979C608.853 465.61 607.056 465.974 605.91 467.448C605.382 469.559 605.417 469.75 605.521 471.961L604.753 473.089Z"/><path fill="white" d="M560.318 524.874C557.256 521.794 526.676 494.598 546.825 498.117C547.917 498.307 564.753 515.516 567.772 518.328C565.842 519.988 565.321 520.188 562.714 520.696C561.839 522.05 561.234 523.83 560.318 524.874Z"/><path fill="white" d="M572.499 504.736C567.331 498.165 560.641 492.732 555.693 486.04C554.083 483.862 554.622 481.662 556.061 479.544C559.168 477.95 561.64 479.709 563.987 481.917C569.441 487.049 574.746 492.574 579.909 497.986C579.072 500.755 575.176 503.768 572.499 504.736Z"/><path fill="white" d="M617.271 451.438C612.115 445.829 606.739 440.014 601.837 434.166C599.471 431.343 597.348 428.225 599.513 424.742C604.275 421.729 607.637 426.869 610.563 430.253C614.617 434.942 618.321 439.968 622.385 444.69C618.134 448.03 619.768 448.203 617.271 451.438Z"/><path fill="white" d="M609.125 340.483L610.721 340.406L611.259 340.937C612.823 341.348 613.074 341.408 614.68 341.526L614.609 342.056L613.885 342.335C616.628 345.685 618.423 351.223 620.98 353.158C625.797 356.63 634.368 366.602 630.707 372.847C627.993 366.339 626.081 361.519 622.117 355.61C610.263 350.058 600.904 351.426 590.373 358.954L589.158 358.792C588.606 356.986 587.395 354.091 586.7 352.033L586.976 351.51L586.862 350.775C588.458 349.671 590.571 349.305 592.486 348.807C596.682 347.8 607.04 346.441 610.845 348.355C613.2 348.743 613.449 349.191 615.298 348.441L615.388 347.317C614.004 344.93 611.173 342.478 609.125 340.483Z"/><path fill="white" d="M592.486 348.807C596.682 347.8 607.04 346.441 610.845 348.355L610.493 348.815C608.021 348.761 602.742 352.185 600.142 351.072C597.768 346.037 597.257 350.752 592.486 348.807Z"/><path fill="white" d="M375.212 617.571C378.517 619.999 389.844 627.32 393.479 628.297L391.6 629.768C386.554 627.312 378.324 622.274 373.596 619.236L375.212 617.571Z"/><path fill="white" d="M212.622 782.7C203.282 769.51 193.908 754.501 198.616 737.492C201.017 729.33 208.065 721.809 215.712 718.229C244.567 704.722 278.8 717.146 306.586 726.482C316.915 729.946 327.277 733.311 337.671 736.578L340.646 737.178C340.15 738.176 339.707 738.537 339.892 739.234C338.726 741.218 334.907 745.754 333.223 747.437C324.027 760.829 310.063 774.185 300.109 787.241C298.637 789.172 293.644 795.261 292.028 796.654C285.883 804.515 279.38 812.133 273.149 819.911C270.952 822.653 266.228 828.061 264.417 830.777L262.668 831.481C246.213 814.497 227.864 802.232 212.622 782.7ZM266.727 818.033C268.223 815.57 269.7 813.979 271.552 811.817C288.766 791.72 306.025 771.556 322.511 750.855C325.82 746.699 328.571 741.846 331.895 737.554C327.264 735.295 317.409 732.492 312.231 730.657C293.599 724.056 277.824 719.128 258.484 715.267C248.65 730.282 237.502 745.308 227.644 760.402C223.609 766.58 217.268 774.868 214.016 781.113C217.877 785.848 221.936 790.418 226.182 794.811C230.463 799.238 257.859 825.316 261.027 825.712C262.368 823.808 260.232 826.927 261.498 824.641C262.87 822.162 264.925 820.824 266.727 818.033ZM210.597 770.714C213.111 771.969 212.123 771.645 215.215 771.361C219.53 768.578 244.067 730.935 248.798 723.58C248.731 721.156 248.898 717.161 247.406 715.406L247.848 715.551C245.939 714.029 242.482 714.628 239.863 714.735C226.549 715.987 215.005 718.367 205.812 729.025C195.314 741.194 199.867 760.206 208.435 772.056C208.674 772.383 209.333 772.636 209.72 772.807C210.193 771.841 210.275 771.736 210.597 770.714Z"/><path fill="white" d="M214.016 781.113C217.877 785.848 221.936 790.418 226.182 794.811C230.463 799.238 257.859 825.316 261.027 825.712C262.368 823.808 260.232 826.927 261.498 824.641C262.87 822.162 264.925 820.824 266.727 818.033C274.563 815.042 282.068 797.637 292.028 796.654C285.883 804.515 279.38 812.133 273.149 819.911C270.952 822.653 266.228 828.061 264.417 830.777L262.668 831.481C246.213 814.497 227.864 802.232 212.622 782.7L214.016 781.113Z"/><path fill="white" d="M333.223 747.437C332.983 743.927 333.853 743.543 334.558 740.199C334.711 739.474 333.343 738.547 334.146 736.626C335.321 736.597 336.496 736.581 337.671 736.578L340.646 737.178C340.15 738.176 339.707 738.537 339.892 739.234C338.726 741.218 334.907 745.754 333.223 747.437Z"/><path fill="white" d="M542.808 537.783C548.897 544.362 549.974 544.915 550.279 553.636C571.641 572.419 569.586 598.061 551.214 618.444C518.915 654.279 462.937 658.643 419.512 642.98L420.885 641.339C423.268 642.48 425.884 643.152 428.427 643.914C440.844 630.536 455.22 611.936 467.589 597.462C463.585 595.817 459.59 594.15 455.605 592.459C457.789 591.116 457.461 591.784 457.975 589.876C466.21 594.349 471.158 597.893 480.975 599.056C496.035 600.841 511.231 593.294 522.633 584.047C526.679 580.765 534.197 574.801 534.632 569.066C534.806 566.762 533.425 565.479 531.989 563.793C533.581 564.66 533.422 564.953 534.699 564.599C533.935 561.226 537.196 562.172 538.913 558.38C539.743 559.018 540.011 559.512 541.002 559.552C545.483 559.733 548.567 555.182 548.355 551.148C548.045 545.255 543.756 542.006 539.839 538.475L542.808 537.783ZM437.45 645.016C441.971 646.37 445.175 646.726 449.117 647.799C481.369 652.13 510.046 647.731 537.798 627.687C553.807 616.124 571.034 591.103 559.949 569.589C558.399 566.581 552.907 566.816 550.941 563.809C541.595 564.157 538.284 574.437 532.668 580.803C522.2 593.092 503.505 602.952 487.399 603.967C477.728 604.576 470.388 600.313 463.022 610.343C459.057 615.742 433.961 639.522 443.202 645.25C441.284 645.194 439.367 645.116 437.45 645.016Z"/><path fill="white" d="M620.98 353.158C646.274 355.525 665.935 362.629 678.922 386.34C709.867 442.835 665.021 484.353 606.908 477.846L606.254 477.77C603.591 482.147 602.33 482.803 597.337 484.279C594.693 483.511 593.112 482.72 590.466 483.491C591.164 480.359 591.798 483.485 594.102 480.362C600.048 484.453 605.514 479.866 604.753 473.089L605.521 471.961C605.417 469.75 605.382 469.559 605.91 467.448C607.056 465.974 608.853 465.61 610.668 464.979C614.885 465.183 619.103 464.251 620.074 459.367C620.729 456.078 618.996 454.005 617.271 451.438C619.768 448.203 618.134 448.03 622.385 444.69C632.976 448.138 635.477 417.832 636.042 412.057C637.539 396.752 635.448 387.176 630.707 372.847C634.368 366.602 625.797 356.63 620.98 353.158ZM623.237 451.966C623.228 457.124 623.731 464.144 618.955 467.258L619.739 466.193C614.787 469.918 614.483 470.293 610.946 475.434C619.759 477.304 631.654 475.877 640.381 473.908C659.671 468.931 678.498 458.506 683.497 437.836C680.147 437.067 673.225 435.389 674.022 430.269C674.659 426.175 680.201 424.947 682.815 422.663C688.335 416.116 684.121 403.685 681.485 397.291C670.551 394.123 653.588 386.572 642.083 387.199L642.782 387.991C640.867 391.386 640.784 396.213 640.175 400.025C638.015 413.552 639.898 436.685 629.937 447.228L629.246 447.244L629.829 446.56C632.354 443.565 633.365 441.932 634.022 437.883C630.68 443.658 628.848 448.029 623.237 451.966ZM660.379 368.805C653.136 362.992 640.223 356.504 630.768 356.9L633.287 357.769C632.906 359.165 633.063 358.658 631.995 359.865C631.663 362.836 632.108 366.792 632.997 369.642C635.743 370.751 639.368 370.921 642.333 371.379C652.106 372.889 661.61 373.409 670.732 377.51C668.45 375.622 665.764 373.537 663.721 371.444C662.857 370.679 661.33 369.552 660.379 368.805ZM685.293 435.246C686.324 431.814 688.329 419.466 685.963 416.772C685.302 419.836 685.605 424.186 685.648 427.452C679.909 427.493 673.032 426.425 676.988 434.799L685.293 435.246ZM632.974 372.917C633.967 376.611 635.042 379.863 636.261 383.494C649.333 385.098 668.85 388.737 680.691 394.95C679.02 390.303 676.036 384.496 672.878 380.693C660.953 375.45 645.889 373.791 632.974 372.917Z"/><path fill="#D6DBE2" fill-opacity="0.090196081" d="M663.721 371.444C663.245 372.67 663.294 372.589 662.202 373.33C659.252 373.74 656.951 373.785 655.908 370.504L656.56 369.382C658.78 368.201 657.773 368.409 660.379 368.805C661.33 369.552 662.857 370.679 663.721 371.444Z"/><path fill="white" d="M398.406 428.051L400.781 426.573C407.082 429.935 431.52 441.148 433.278 446.498C433.676 447.709 433.713 448.475 433.062 449.607C432.427 450.71 430.739 451.665 429.537 451.806C423.889 452.468 400.183 437.551 392.926 434.677C389.448 435.989 388.813 436.333 385.863 438.525C384.244 441.615 384.129 441.614 385.585 444.945C385.311 447.303 385.552 450.505 384.632 451.991C383.21 452.571 381.044 453.305 379.913 454.132C371.784 450.376 369.461 461.626 367.319 467.301C362.519 480.017 360.331 512.529 371.396 522.523C374.049 525.689 375.957 525.197 376.885 528.696L377.448 529.104C377.711 528.82 378.61 527.804 378.876 527.609C380.7 533.264 382.092 536.576 385.41 541.589C381.359 545.627 380.696 541.933 379.436 544.18L379.921 545.435C371.848 540.771 364.798 534.529 359.191 527.08C345.46 508.867 343.432 482.87 352.855 462.254C355.351 456.792 360.766 448.95 365.589 445.309C371.57 438.492 381.308 433.177 389.885 430.705C392.317 430.004 396.531 429.137 398.406 428.051Z"/><defs><linearGradient id="gradient_0" gradientUnits="userSpaceOnUse" x1="381.60632" y1="490.55389" x2="349.36591" y2="483.79626"><stop offset="0" stop-color="white"/><stop offset="1" stop-color="#E4E4E9"/></linearGradient></defs><path fill="url(#gradient_0)" d="M380.406 437.224C382.926 442.353 383.487 448.777 376.956 451.003C375.488 451.49 374.011 451.949 372.525 452.379C360.001 466.825 355.956 504.046 367.16 521.447C368.329 523.264 372.725 526.92 374.663 529.336C376.73 530.852 380.442 537.949 377.311 540.072C373.807 539.805 369.812 535.732 367.307 533.282C355.528 521.782 348.893 506.013 348.905 489.552C348.733 469.602 356.112 457.629 369.388 444.189C370.298 443.753 372.113 442.327 373.02 441.658C375.467 439.776 377.695 438.677 380.406 437.224Z"/><path fill="white" d="M380.406 437.224C382.926 442.353 383.487 448.777 376.956 451.003C375.488 451.49 374.011 451.949 372.525 452.379C360.001 466.825 355.956 504.046 367.16 521.447C368.329 523.264 372.725 526.92 374.663 529.336C373.735 530.813 373.629 530.776 372.038 530.708C371.363 530.181 370.925 529.869 370.448 529.102C367.77 524.797 363.131 523.336 361.464 518.167C355.947 501.055 356.479 471.006 366.756 455.617C369.502 451.505 374.965 450.107 377.232 445.736C377.854 444.538 377.298 443.741 376.843 442.823C375.153 441.638 375.162 441.763 373.02 441.658C375.467 439.776 377.695 438.677 380.406 437.224Z"/><path fill="white" d="M355.629 476.75C356.599 478.38 355.21 487.392 354.835 489.729C354.282 488.114 354.487 487.125 354.5 485.351L353.964 487.218L353.201 487.563C351.347 484.745 352.414 480.617 355.505 479.039L355.629 476.75Z"/><path fill="white" d="M398.406 428.051L400.781 426.573C407.082 429.935 431.52 441.148 433.278 446.498C433.676 447.709 433.713 448.475 433.062 449.607C432.427 450.71 430.739 451.665 429.537 451.806C423.889 452.468 400.183 437.551 392.926 434.677C389.448 435.989 388.813 436.333 385.863 438.525C384.741 436.661 386.093 437.117 384.163 435.17C382.229 435.134 382.231 435.57 380.406 437.224C377.695 438.677 375.467 439.776 373.02 441.658C372.113 442.327 370.298 443.753 369.388 444.189C367.622 444.465 367.041 445.208 365.589 445.309C371.57 438.492 381.308 433.177 389.885 430.705C392.317 430.004 396.531 429.137 398.406 428.051Z"/><path fill="white" d="M394.225 550.504C392.485 544.99 390.423 538.807 389.861 533.197C388.599 520.604 392.625 506.349 398.039 495.064C401.425 488.008 410.844 489.568 405.342 501.521C394.914 524.177 388.987 550.849 414.748 565.499C415.537 565.957 416.329 566.41 417.124 566.858C408.816 551.15 406.382 539.929 412.004 522.495C413.917 516.561 416.052 504.898 423.534 505.642C428.875 509.027 421.753 520.791 420.522 525.989C414.573 551.086 420.008 571.369 445.196 581.146C442.637 576.771 438.632 572.268 436.449 568.052C430.161 555.454 431.287 540.295 434.594 527.031C435.598 523.006 438.409 513.574 443.989 514.956C448.646 516.109 446.915 522.331 445.74 525.555C437.214 548.958 436.935 573.144 457.975 589.876C457.461 591.784 457.789 591.116 455.605 592.459C437.206 584.667 417.573 572.175 400.944 561.053C395.84 557.64 391.275 551.278 386.592 547.55L384.959 548.535C383.639 548.225 384.238 548.51 383.275 547.423L379.921 545.435L379.436 544.18C380.696 541.933 381.359 545.627 385.41 541.589C388.349 544.765 391.112 547.49 394.225 550.504Z"/><path fill="white" d="M699.533 428.095L700.611 429.032C700.274 431.352 699.459 434.204 700.788 436.047C700.012 437.192 700.172 437.651 700.152 439.062C690.461 476.063 651.186 493.333 615.906 491.912C613.286 491.807 606.116 491.871 604.146 491.124C600.927 488.65 594.207 487.946 590.653 490.523C586.613 485.088 567.95 468.681 568.002 463.344C568.014 462.08 568.68 461.333 569.475 460.445C575.313 457.498 590.165 476.151 594.102 480.362C591.798 483.485 591.164 480.359 590.466 483.491C592.426 487.41 599.979 488.18 603.949 488.709C636.768 493.085 675.303 483.479 692.33 452.594C696.896 444.312 698.392 437.369 699.533 428.095Z"/><path fill="white" d="M353.073 605.656C351.552 598.566 350.619 592.764 354.771 586.048C357.567 581.55 362.05 578.36 367.216 577.193C372.813 575.941 378.679 577.037 383.447 580.226C388.157 583.358 391.349 588.312 392.255 593.896C394.173 606.143 386.45 614.456 375.212 617.571L373.596 619.236C371.535 618.005 369.463 616.794 367.379 615.602C368.345 614.786 368.481 614.776 369.641 614.227C371.279 614.451 372.151 614.775 373.571 613.981C381.008 613.221 387.052 607.646 388.41 600.295C389.767 592.943 386.113 585.578 379.438 582.211C372.763 578.845 364.668 580.285 359.563 585.747C354.459 591.209 353.569 599.383 357.379 605.815L355.973 606.837C354.274 606.926 354.813 606.9 353.073 605.656Z"/><path fill="white" d="M422.086 383.32L422.989 384.822C422.984 386.101 422.614 387.621 423.693 388.554C430.206 394.19 458.949 402.005 460.706 409.376C460.927 410.306 460.587 411.085 460.009 411.824C459.012 413.099 457.989 413.749 456.324 413.827C452.09 414.025 434.843 403.701 430.027 401.122L430.159 400.495C428.016 399.074 427.813 399.345 427.954 397.002C428.926 393.697 417.889 393.042 422.086 383.32Z"/><path fill="white" d="M539.839 538.475C536.261 534.304 524.839 524.255 525.108 521.182C526.543 504.813 549.584 535.198 551.807 537.831L550.884 538.105C548.799 536.632 547.154 533.747 545.072 531.785C545.311 536.542 545.584 537.464 550.039 539.117L550.581 539.885L550.443 540.2C548.41 539.372 544.802 537.693 542.808 537.783L539.839 538.475Z"/><path fill="white" d="M60.8245 1003.06C61.905 1003.42 62.0463 1003 63.4623 1002.3C62.2047 1004.7 62.1985 1003.85 62.6153 1006.06C62.3909 1006.82 64.1438 1013.92 64.1144 1017.21C62.2298 1013.66 60.77 1009.63 59.3014 1005.86C59.6439 1004.97 60.3291 1003.91 60.8245 1003.06Z"/><path fill="white" d="M296.711 652.328L299.303 653.69L300.724 654.526C299.564 656.164 298.393 657.892 297.153 659.459C296.369 658.224 296.813 654.452 296.711 652.328Z"/><path fill="white" fill-opacity="0.97254902" d="M631.131 307.879C632.252 307.413 633.537 307.597 634.482 308.357C635.428 309.118 635.882 310.334 635.667 311.528C635.452 312.722 634.602 313.703 633.451 314.086C631.758 314.649 629.923 313.772 629.298 312.101C628.674 310.429 629.484 308.564 631.131 307.879ZM633.226 312.584C633.852 312.212 634.221 311.525 634.186 310.798C634.151 310.071 633.717 309.422 633.058 309.112C632.4 308.802 631.623 308.881 631.041 309.317C630.203 309.944 630.002 311.117 630.584 311.987C631.166 312.857 632.326 313.119 633.226 312.584Z"/><path fill="white" fill-opacity="0.97647059" d="M610.216 294.801C611.8 294.06 613.687 294.687 614.512 296.229C615.338 297.77 614.814 299.688 613.32 300.596C612.278 301.229 610.972 301.234 609.926 300.61C608.879 299.987 608.262 298.835 608.323 297.618C608.384 296.401 609.112 295.317 610.216 294.801Z"/><path fill="#0B090C" fill-opacity="0.011764706" d="M660.018 319.734C659.721 319.742 663.151 321.593 663.623 321.796C661.572 322.065 660.823 322.374 659.761 320.646L660.018 319.734Z"/><path fill="white" d="M831.439 269.822C831.694 277.471 832.679 282.328 833.923 289.712C833.86 291.979 834.276 292.096 833.119 293.288L830.421 293.7C815.883 292.035 799.977 290.395 785.442 289.077C787.144 288.758 789.817 288.838 791.617 288.826L791.831 288.028C803.321 286.743 822.071 276.497 831.439 269.822ZM799.872 288.503C809.658 288.281 820.159 291.313 831.02 290.8C830.837 287.428 830.239 283.337 829.827 279.921L829.126 274.247C825.332 276.474 821.517 278.665 817.681 280.82C811.797 283.706 806.163 286.682 799.872 288.503Z"/><path fill="white" fill-opacity="0.38039216" d="M829.827 279.921C830.239 283.337 830.837 287.428 831.02 290.8C820.159 291.313 809.658 288.281 799.872 288.503C806.163 286.682 811.797 283.706 817.681 280.82C818.98 282.006 818.574 281.541 818.719 283.89C821.267 287.056 826.309 283.079 828.584 281.285L828.733 281.651L829.432 281.472L829.827 279.921Z"/><path fill="white" fill-opacity="0.19607843" d="M829.126 274.247L829.827 279.921L829.432 281.472L828.733 281.651L828.584 281.285C826.309 283.079 821.267 287.056 818.719 283.89C818.574 281.541 818.98 282.006 817.681 280.82C821.517 278.665 825.332 276.474 829.126 274.247Z"/><path fill="white" d="M305.486 614.694C326.324 610.608 317.116 629.5 308.142 635.899C300.202 638.338 294.047 627.329 297.076 620.799C298.808 617.066 301.941 616.032 305.486 614.694Z"/><path fill="white" d="M836.307 322.876L837.079 322.906C837.54 326.154 836.57 329.339 838.253 331.066C836.081 339.371 831.457 355.434 828.542 363.386L827.884 363.371L827.02 364.574L826.609 364.146C827.547 361.509 826.155 364.428 826.204 361.401C828.936 353.229 831.614 344.446 833.842 336.11C834.966 331.907 835.128 327.125 836.307 322.876Z"/><path fill="white" d="M591.713 185.455C594.933 186.868 596.483 187.599 599.489 189.419C598.12 190.177 597.399 190.426 595.935 190.864C594.824 192.516 594.982 192.625 594.995 194.579L594.832 193.887L594.668 194.883L594.183 194.143C593.589 193.248 593.859 193.573 593.317 193.001C592.633 190.966 592.124 187.657 591.713 185.455Z"/><path fill="white" d="M258.076 846.607L260.962 849.859C266.716 857.455 270.977 864.025 273.049 873.482C278.298 897.886 268.939 922.503 248.503 937.546C224.017 955.571 194.43 956.556 164.901 953.727C132.391 950.612 91.3065 921.287 61.0836 942.437C45.7917 953.139 43.8451 972.077 44.7535 988.842C44.3866 989.172 43.1558 990.234 42.9075 990.54C41.8597 987.956 42.5681 976.324 42.8339 973.403C44.1539 958.895 50.7641 945.25 63.9149 938.1C82.6259 927.928 102.146 933.934 121.097 939.368C124.807 935.963 128.941 932.756 132.735 929.261C144.427 918.667 155.135 907.036 164.729 894.511C166.43 895.11 165.709 894.632 166.906 896.09C155.902 910.486 137.741 929.045 123.828 940.664C128.917 942.857 134.161 944.674 139.517 946.1C150.654 936.655 174.141 910.446 182.698 898.485L189.04 901.18C196.394 893.099 206.198 879.77 213.442 872.571C213.681 872.477 214.396 871.962 214.643 871.795L215.042 869.47C219.473 871.617 226.884 877.658 230.821 877.461C235.549 874.965 250.615 856.095 255.008 850.913L257.445 848.165L258.076 846.607ZM153.129 949.153C181.441 955.795 217.39 954.876 242.6 939.189C256.965 930.414 267.256 916.291 271.206 899.927C274.552 885.487 271.969 870.307 264.035 857.786C263.315 856.66 263.344 856.636 262.224 855.908L260.803 856.132C251.02 858.572 241.551 872.774 233.539 878.483C227.985 882.441 223.405 875.779 218.578 875.864C218.603 875.864 213.227 878.489 212.85 878.754C205.098 884.2 198.575 895.044 191.836 901.97C188.982 904.904 184.787 901.658 182.998 903.449C177.061 909.391 171.085 916.386 165.537 922.76C158.689 930.627 149.964 938.67 143.545 946.441C146.953 947.18 149.888 948.431 153.129 949.153Z"/><path fill="white" d="M258.076 846.607L260.962 849.859C259.904 851.929 260.665 851.362 259.018 852.184C257.318 851.757 256.443 851.303 255.008 850.913L257.445 848.165L258.076 846.607Z"/><path fill="white" d="M766.08 462.45C764.61 463.403 761.076 465.62 760.096 466.95C751.722 479.487 745.123 492.775 738.463 506.638C730.425 523.369 707.02 522.571 694.789 511.233C677.5 495.204 702.594 480.989 718.652 485.712C724.558 487.449 724.163 486.584 730.196 490.402L730.763 489.948C729.778 489.104 730.061 489.448 729.363 488.332C730.713 487.196 734.111 484.444 734.835 483.038C743.079 467.024 751.401 450.889 760.556 435.386C761.512 433.769 763.995 433.418 765.663 433.405C767.496 434.318 775.951 437.627 777.825 437.8C786.714 441.356 829.576 457.601 833.662 461.494C834.298 463.023 834.46 464.903 833.65 466.283C829.471 473.404 824.133 481.237 819.731 488.157L800.148 519.342C796.775 524.639 793.148 530.347 789.48 535.267C781.558 545.893 761.881 541.513 754.127 532.921C739.051 516.217 755.734 505.374 772.565 508.367C777.775 509.294 782.148 511.621 786.948 512.72C785.574 511.974 785.349 511.965 784.313 510.756C785.145 509.684 787.886 509.732 789.659 509.499C792.754 507.086 804.645 485.999 805.991 481.412C805.859 481.117 805.738 480.818 805.597 480.529C803.669 476.596 771.933 464.652 766.08 462.45ZM731.209 495.436C724.13 488.054 714.81 486.546 705.048 487.801C698.58 488.374 689.997 494.822 691.879 502.009C695.582 516.149 722.668 522.592 732.471 511.737C734.436 509.561 736.554 505.102 737.823 502.539C745.328 487.375 753.207 472.056 761.766 457.469C764.929 458.35 778.189 463.99 781.838 465.649C789.189 468.989 804.861 474.595 811.241 478.559C811.441 480.255 811.574 479.408 810.401 481.09C803.864 492.391 796.626 503.8 790.308 515.051L788.503 518.442C778.511 510.32 755.538 503.779 750.404 520.076C750.529 520.84 750.672 521.6 750.833 522.357C753.803 535.951 777.333 546.192 787.258 534.504C790.597 530.571 794.177 524.17 797.043 519.63L815.994 489.509L826.773 472.622C828.58 469.802 832.641 465.206 831.52 462.169C828.777 460.479 813.896 454.701 809.902 453.172C794.909 447.432 778.756 440.101 763.618 435.195C760.203 439.999 755.663 449.481 752.658 455.081C745.385 468.467 738.235 481.919 731.209 495.436Z"/><path fill="white" d="M805.991 481.412C806.378 480.905 806.562 480.824 807.064 480.415L807.682 481.635L808.129 481.387L808.715 478.192L809.534 478.137C810.239 479.463 810.058 478.754 809.943 480.369L810.401 481.09C803.864 492.391 796.626 503.8 790.308 515.051C788.883 514.722 788.163 514.326 787.675 512.882L786.948 512.72C785.574 511.974 785.349 511.965 784.313 510.756C785.145 509.684 787.886 509.732 789.659 509.499C792.754 507.086 804.645 485.999 805.991 481.412Z"/><path fill="#0B090C" fill-opacity="0.031372551" d="M29.442 1011.62L30.1422 1012.12C30.4693 1013.31 30.252 1012.75 30.7764 1013.79C31.1506 1013.48 31.5249 1013.17 31.8992 1012.86L32.7234 1013.59C31.4206 1014.45 31.1616 1014.81 29.6188 1014.95C28.7882 1013.85 29.2104 1013.5 29.442 1011.62Z"/><path fill="white" fill-opacity="0.047058824" d="M605.704 239.679C604.018 233.55 596.898 203.918 598.012 199.042C599.235 197.981 600.129 197.498 601.827 197.734C619.174 200.145 615.89 216.75 614.23 228.617L613.879 227.293C613.292 229.932 613.123 232.05 612.405 234.707C610.598 236.111 608.201 238.569 606.339 239.073L605.704 239.679Z"/><path fill="white" d="M590.373 358.954C586.187 362.11 574.577 376.407 570.318 370.75C568.888 362.392 579.87 353.589 586.862 350.775L586.976 351.51L586.7 352.033C587.395 354.091 588.606 356.986 589.158 358.792L590.373 358.954Z"/><path fill="white" d="M42.9075 990.54C43.1558 990.234 44.3866 989.172 44.7535 988.842L45.2408 992.377C45.1314 994.051 45.2329 995.014 44.3576 996.443L43.7062 996.781L43.6989 996.827C37.3512 1001.6 8.16229 1014.28 0 1016.9L0 1014.28C11.0029 1010.45 32.2225 1001.41 41.9913 994.153C43.1838 993.267 42.9157 991.878 42.9075 990.54Z"/><path fill="white" d="M183.303 853.898C183.773 851.905 183.74 852.012 185.143 850.5C196.345 858.824 202.704 862.89 215.042 869.47L214.643 871.795C214.396 871.962 213.681 872.477 213.442 872.571C203.105 866.819 196.785 862.754 187.04 856.132C185.557 856.412 185.48 856.982 184.179 858.316C184.271 856.662 184.281 855.614 183.278 854.308L183.303 853.898Z"/><path fill="white" fill-opacity="0.34901962" d="M767.191 428.535L770.043 428.797C769.37 430.698 769.547 431.495 769.104 433.34C771.175 434.376 774.34 434.393 776.234 432.988C776.091 431.44 776.32 432.183 775.267 430.782L771.675 429.298C776.027 429.619 781.47 429.869 785.719 430.418L781.372 430.714C783.001 437.476 792.127 442.593 798.491 444.101C792.877 443.599 782.255 437.343 777.825 437.8C775.951 437.627 767.496 434.318 765.663 433.405C764.209 432.249 763.905 431.774 764.091 429.91C765.383 428.56 764.995 428.982 767.191 428.535Z"/><path fill="white" d="M183.278 854.308C184.281 855.614 184.271 856.662 184.179 858.316C179.074 865.347 169.24 877.385 165.072 884.086L167.637 886.938C166.887 888.686 166.974 889.138 166.92 890.998C166.719 890.997 166.519 890.997 166.318 890.996C165.435 889.536 164.259 887.875 163.825 886.218C162.129 879.746 179.095 861.75 182.882 855.021L183.278 854.308Z"/><path fill="white" d="M49.1302 1009.73C49.89 1011.91 51.8801 1016.95 51.6684 1018.99C50.1467 1018.1 48.9694 1015.73 48.0986 1014.14C44.3698 1016.4 30.746 1022.69 26.6783 1024L22.7892 1024C26.3549 1021.29 41.5495 1014.61 47.3324 1011.04L49.1302 1009.73Z"/><path fill="white" fill-opacity="0.0078431377" d="M437.923 666.093C449.356 667.389 457.457 667.632 469.058 667.633L468.777 668.089C462.869 668.574 441.691 672.13 437.724 668.473C437.461 667.204 437.447 667.296 437.923 666.093Z"/><path fill="white" d="M43.6989 996.827L43.7062 996.781L44.3576 996.443C45.2329 995.014 45.1314 994.051 45.2408 992.377C46.1626 998.96 47.2151 1003.35 49.1302 1009.73L47.3324 1011.04C45.9341 1006.51 44.9429 1001.48 43.6989 996.827Z"/><path fill="white" d="M167.637 886.938C169.193 887.994 170.386 888.479 170.902 890.215C170.625 892.494 168.569 894.154 166.906 896.09C165.709 894.632 166.43 895.11 164.729 894.511C165.057 893.519 165.848 891.991 166.318 890.996C166.519 890.997 166.719 890.997 166.92 890.998C166.974 889.138 166.887 888.686 167.637 886.938Z"/><path fill="#D6DBE2" fill-opacity="0.40392157" d="M770.043 428.797L771.675 429.298L775.267 430.782C776.32 432.183 776.091 431.44 776.234 432.988C774.34 434.393 771.175 434.376 769.104 433.34C769.547 431.495 769.37 430.698 770.043 428.797Z"/><path fill="#D6DBE2" fill-opacity="0.023529412" d="M612.405 234.707C613.123 232.05 613.292 229.932 613.879 227.293L614.23 228.617C613.967 231.534 613.991 231.958 614.629 234.815C613.979 235.189 613.434 235.451 612.73 235.714C611.235 236.272 608.649 240.31 607.456 239.859C606.683 239.568 606.962 239.711 606.339 239.073C608.201 238.569 610.598 236.111 612.405 234.707Z"/></svg>