<?xml version="1.0" encoding="utf-8" ?><svg xmlns="http://www.w3.org/2000/svg" xmlns:xlink="http://www.w3.org/1999/xlink" width="1792" height="1024" viewBox="0 0 1792 1024"><defs><linearGradient id="gradient_0" gradientUnits="userSpaceOnUse" x1="437.75647" y1="443.10745" x2="427.10245" y2="488.94775"><stop offset="0" stop-color="#48474B"/><stop offset="1" stop-color="#636466"/></linearGradient></defs><path fill="url(#gradient_0)" transform="scale(1.33333 1.33333)" d="M378.442 452.319C373.341 451.961 359.41 450.403 355.038 448.571L354.589 447.398L354.767 448.433L354.947 447.217C362.788 445.355 377.786 448.674 387.498 449.512L490.077 459.071C495.272 459.528 514.051 459.272 515.986 460.227L516.434 461.392C515.789 462.548 515.734 463.193 514.307 463.394C508.838 464.165 502.609 463.161 497.034 463.339C492.127 474.667 481.107 483.349 469.858 487.903C469.197 488.167 468.526 488.406 467.847 488.618C467.11 489.414 466.973 489.418 466.512 490.352C459.558 490.176 457.287 485.27 451.584 490.271L449.547 488.801C450.483 487.831 450.908 487.157 451.658 486.068C444.639 482.256 439.051 480.454 431.949 475.816C425.561 471.552 419.212 467.228 412.905 462.846C411.579 461.349 409.242 459.246 409.03 457.581L411.124 455.585L411.135 454.885L408.573 454.865L407.793 456.363C405.805 456.509 398.631 453.791 393.034 453.466C392.701 453.347 392.912 453.396 392.336 453.45L391.83 453.503C391.14 452.983 390.491 452.443 389.824 451.896L388.696 452.851C386.337 452.803 382.703 452.172 381.444 453.67C375.455 460.798 374.445 470.347 367.695 477.293L366.213 477.119C368.333 468.786 373.606 459.374 378.442 452.319ZM482.056 477.034C487.923 471.975 489.54 470.464 492.253 463.079C480.284 461.018 466.317 460.077 454.051 458.763C442.607 457.538 426.261 454.768 415.13 455.215C415.349 458.721 415.363 460.356 418.411 462.625C430.043 471.283 442.884 478.793 456.316 484.283C466.349 488.383 474.189 482.858 482.056 477.034Z"/><path fill="#5F5E61" transform="scale(1.33333 1.33333)" d="M986.249 176.705C997.018 175.654 1047.83 170.978 1054.98 174.481C1057.77 178.159 1056.19 195.823 1056.61 201.503C1057.75 216.916 1060.49 232.222 1062.69 247.511C1063.05 250.029 1065.05 261.886 1064.95 263.524C1063.14 267.495 1068.29 290.325 1068.44 297.865L1066.87 297.82C1066.32 295.275 1066.55 292.11 1066.09 289.842C1064.3 280.861 1063.19 264.952 1060.96 256.81L1060.17 258.433C1055.29 229.538 1052.82 208.766 1052.76 179.586C1047.55 186.392 1024.56 203.951 1024.03 208.636L1022.1 209.776C1019.75 211.478 1018.55 212.701 1016.49 214.747C1018.26 227.32 1018.8 238.912 1019.93 251.425C1022.03 274.469 1026.8 297.565 1029.68 320.553C1031.03 330.875 1031.04 341.286 1032.38 351.586C1033.7 362.064 1035.2 372.519 1036.88 382.944C1038.54 392.7 1042.49 407.631 1041.75 416.539C1042.89 416.537 1043.42 416.575 1044.56 416.329C1044.02 420.371 1043.94 422.41 1042.03 426.099C1039.98 424.74 1036.75 423.208 1036.52 420.792C1037.97 419.737 1038.35 419.57 1039.37 418.139C1038.06 412.103 1037.5 406.04 1036.29 400.123C1034.01 383.844 1028.93 364.446 1028.31 348.082C1027.18 317.97 1020.6 289.301 1016.84 259.453C1015.86 251.706 1015.64 217.847 1012.63 213.222L1013.1 211.72L1012.1 210.689C1015.07 210.818 1017.26 209.612 1019.25 207.474L1019.07 206.545C1017.91 206.23 1016.12 205.943 1014.89 205.704L1020.7 204.485C1018.17 204.285 1016.82 204.187 1014.35 203.564L1013.82 203.428C1019.82 203.321 1021.73 203.137 1026.57 199.153C1034.95 192.264 1043.54 184.999 1050.55 176.69C1036.13 175.78 1000.94 179.298 984.999 180.594C986.029 178.946 986.041 178.649 986.249 176.705Z"/><path fill="#27292B" fill-opacity="0.96862745" transform="scale(1.33333 1.33333)" d="M570.38 203.972C571.574 204.529 572.756 205.107 573.927 205.709L565.67 355.163C564.877 368.283 564.846 383.883 563.791 396.394C562.755 398.119 561.908 399.834 560.412 401.141L570.747 214.068C570.822 212.565 570.993 210.543 570.166 209.414C563.723 211.517 565.098 232.133 564.687 238.618L560.066 315.758C559.157 329.833 557.411 343.904 556.532 358.139C555.315 377.851 554.428 396.664 551.316 416.228C553.517 419.697 554.783 421.608 557.461 424.829L558.148 425.37L557.822 426.115C552.87 425.996 553.593 422.071 545.309 421.584C546.33 421.235 547.341 420.858 548.342 420.455L548.453 418.392C547.369 413.402 551.059 398.685 551.533 391.96L559.175 265.702C560.054 250.477 562.593 234.79 562.53 219.201C562.525 218.046 562.849 215.971 562.213 215.304C559.394 212.343 557.538 212.381 553.718 212.371C556.453 212.297 558.623 212.67 559.911 210.022L559.337 209.701L559.289 209.125C565.368 209.719 566.609 210.173 569.514 204.588L570.38 203.972Z"/><defs><linearGradient id="gradient_1" gradientUnits="userSpaceOnUse" x1="714.13599" y1="339.43115" x2="821.82733" y2="268.01736"><stop offset="0" stop-color="#4B4C4D" stop-opacity="0.98431373"/><stop offset="1" stop-color="#6E6D6F"/></linearGradient></defs><path fill="url(#gradient_1)" transform="scale(1.33333 1.33333)" d="M749.445 192.462C751.518 193.771 752.52 195.139 754.978 194.213C759.886 198.265 764.255 202.238 769.301 206.26C774.396 210.321 781.912 215.345 786.475 219.62C787.36 220.919 788.343 222.796 790.11 222.918C791.737 224.164 793.534 225.797 795.429 226.345L793.75 226.946L794.704 227.147C793.859 227.544 793.689 227.782 793.199 228.569C791.072 227.508 790.978 226.563 788.077 225.426L786.353 224.431C783.057 220.09 770.536 212.438 765.672 208.543C760.665 204.533 757.355 201.316 752.744 196.814C753.882 213.396 756.431 228.411 758.129 244.631C759.612 266.857 760.431 288.981 763.039 311.141C766.48 340.366 768.902 370.092 770.163 399.508C770.378 404.529 774.004 423.305 771.483 426.494C768.25 425.551 768.458 418.8 768.074 415.845C766.202 401.441 766.045 386.977 764.807 372.531L754.016 245.619C753.133 234.982 747.827 201.817 749.445 192.462Z"/><path fill="#747376" transform="scale(1.33333 1.33333)" d="M311.682 163.701C320.983 160.063 342.767 161.818 353.549 162.007C372.43 162.238 391.305 162.821 410.165 163.753C426.417 164.64 442.751 166.198 459.041 166.777C507.222 168.49 556.232 169.67 604.34 173.128C603.189 174.275 602.047 175.432 600.915 176.599C588.292 174.871 572.185 175.066 559.058 174.463L475.894 171.122C443.385 170.127 410.313 167.135 377.283 166.057C366.691 165.645 356.093 165.414 345.494 165.362C336.456 165.332 325.855 165.643 317.029 164.694C316.035 166.237 315.972 166.528 314.449 167.438L313.368 168.87L312.6 170.634C312.118 168.263 311.902 166.097 311.682 163.701Z"/><defs><linearGradient id="gradient_2" gradientUnits="userSpaceOnUse" x1="793.6084" y1="327.98517" x2="808.09583" y2="325.46265"><stop offset="0" stop-color="#666667" stop-opacity="0.98823529"/><stop offset="1" stop-color="#909091"/></linearGradient></defs><path fill="url(#gradient_2)" transform="scale(1.33333 1.33333)" d="M791.009 300.923C790.422 294.457 789.869 285.133 789.354 278.698C788.574 268.943 781.199 230.978 785.169 225.162C787.159 228.868 790.382 259.924 791.953 266.016C792.437 267.893 792.744 272.444 793.692 274.357C794.389 262.019 789.785 247.999 790.097 235.969C790.432 234.382 790.622 231.766 791.633 231.032C792.895 235.244 792.394 243.564 794.955 245.926C797.453 257.304 796.837 268.391 798.198 279.819C800.238 296.95 802.693 314.074 804.982 331.174C806.01 338.857 805.934 346.905 806.832 354.633C807.699 365.717 815.207 422.774 812.83 429.912L811.974 430.212C807.727 424.886 806.724 375.682 803.605 365.967C803.354 365.186 803.019 361.389 802.965 360.409C803.938 357.4 803.303 345.958 802.158 342.79C800.788 325.934 797.851 303.302 794.861 286.639L794.819 285.192C793.883 285.678 793.631 285.96 792.838 286.637C792.819 288.507 792.928 287.861 793.106 289.292C793.763 294.559 791.271 295.226 791.009 300.923Z"/><path fill="#4D4D4F" fill-opacity="0.98823529" transform="scale(1.33333 1.33333)" d="M592.277 415.351C596.172 388.756 596.049 361.887 597.281 335.102C598.121 318.13 599.327 301.179 600.897 284.26C601.611 276.545 602.803 262.425 603.678 254.937C605.163 242.235 602.696 184.372 608.153 177.636L609.46 177.458C610.567 178.739 610.544 179.316 610.313 181.11C607.234 205.024 608.809 229.189 607.382 253.104L598.763 388.506C598.493 392.876 594.779 415.542 596.494 418.086C597.683 419.849 599.265 421.46 597.561 423.28C591.24 423.101 583.594 408.164 567.592 408.826L566.492 407.345L566.215 406.319L566.722 404.113C571.99 401.472 587.067 412.143 592.277 415.351Z"/><path fill="#747376" transform="scale(1.33333 1.33333)" d="M1024.03 208.636L1026.24 210.16C1026.56 212.654 1026.12 215.046 1026.2 217.689C1026.38 222.579 1026.74 227.461 1027.27 232.325C1029.89 256.361 1033.32 280.391 1036.56 304.356C1037.53 311.548 1038.21 325.01 1039.62 331.548C1039.43 333.24 1040.55 342.524 1040.8 344.919C1042.14 357.638 1043.6 370.342 1045.19 383.03C1045.85 388.214 1049.33 409.196 1046.9 413.045L1045.8 412.924C1043.28 409.772 1043.27 397.656 1042.68 392.943L1032.7 309.343C1031.31 297.359 1029.8 285.39 1028.16 273.438C1026.38 260.758 1020.52 220.382 1022.1 209.776L1024.03 208.636Z"/><path fill="#747376" transform="scale(1.33333 1.33333)" d="M817.207 446.577L967.098 435.172C983.139 433.945 999.276 432.798 1015.12 430.159C1017.22 429.809 1019.69 430.914 1020.8 432.83C1016.53 436.696 888.261 443.289 871.975 446.36C864.281 447.811 832.881 448.123 821.66 449.751C825.723 451.689 832.586 454.583 835.428 457.926C835.279 460.269 835.462 461.821 834.009 463.575C832.156 464.517 831.308 464.428 829.286 464.495C827.766 462.535 826.878 462.672 825.974 460.167L826.819 458.38L827.512 458.228C826.393 454.838 822.259 453.649 819.159 452.302C818.285 451.009 817.076 450.183 815.824 449.272L815.714 448.104L817.207 446.577Z"/><path fill="#27292B" transform="scale(1.33333 1.33333)" d="M827.512 458.228C829.83 458.783 832.966 458.21 835.428 457.926C835.279 460.269 835.462 461.821 834.009 463.575C832.156 464.517 831.308 464.428 829.286 464.495C827.766 462.535 826.878 462.672 825.974 460.167L826.819 458.38L827.512 458.228Z"/><path fill="#5F5E61" fill-opacity="0.98823529" transform="scale(1.33333 1.33333)" d="M308.48 234.55C307.819 249.544 306.711 264.515 305.157 279.443C302.865 300.747 299.804 320.418 298.534 342.073C298.09 349.647 298.366 381.174 296.617 385.365L295.761 385.329C292.361 378.336 294.807 367.742 294.528 360.374C293.509 329.875 299.871 300.084 302.233 269.746C304.79 236.909 305.953 204.036 308.957 171.238C309.198 168.612 309.82 165.657 311.682 163.701C311.902 166.097 312.118 168.263 312.6 170.634C311.07 186.733 308.452 218.32 308.48 234.55Z"/><path fill="#747376" transform="scale(1.33333 1.33333)" d="M569.514 204.588C537.076 204.44 502.908 202.459 470.39 201.079C430.259 199.375 389.325 195.689 349.223 193.245C347.787 193.157 347.119 191.889 346.577 190.834L347.407 190.128C354.143 189.505 378.831 192.13 387.258 192.683L475.909 197.999C495.254 199.039 515.146 198.706 534.706 200.081C546.591 200.917 561.097 199.631 573.047 202.147C571.896 202.682 571.02 202.91 570.38 203.972L569.514 204.588Z"/><path fill="#747376" transform="scale(1.33333 1.33333)" d="M795.429 226.345C803.709 224.194 814.743 224.12 823.468 223.448C863.532 220.363 903.226 218.195 943.231 213.891C965.378 211.508 989.894 211.397 1012.1 210.689L1013.1 211.72L1012.63 213.222C995.794 215.114 974.53 214.719 956.976 216.189C934.212 218.096 911.207 220.729 888.529 222.198C856.216 224.291 824.932 225.62 792.804 230.523C793.644 235.669 794.548 240.725 794.955 245.926C792.394 243.564 792.895 235.244 791.633 231.032C790.622 231.766 790.432 234.382 790.097 235.969C789.524 232.318 789.065 229.006 788.077 225.426C790.978 226.563 791.072 227.508 793.199 228.569C793.689 227.782 793.859 227.544 794.704 227.147L793.75 226.946L795.429 226.345Z"/><path fill="#5F5E61" transform="scale(1.33333 1.33333)" d="M834.152 471.852L835.188 473.132C843.529 473.841 852.641 472.72 861.048 472.459C884.871 471.719 908.398 469.005 932.212 467.763C950.374 466.816 968.739 463.177 987.089 462.989C995.496 462.766 1018.67 458.644 1025.18 461.884L1025.67 462.812C1022.39 465.879 1011.87 464.561 1007.32 465.106C994.741 466.613 981.773 466.564 969.233 467.678L906.88 473.205C885.205 475.248 861.54 477.374 839.637 476.647C836.412 476.54 836.129 475.644 833.431 474.575C833.575 473.596 833.866 472.8 834.152 471.852Z"/><path fill="#4D4D4F" transform="scale(1.33333 1.33333)" d="M505.162 139.756C507.118 133.013 527.916 105.828 536.316 106.408C538.412 107.807 537.742 107.023 538.757 109.481C538.421 116.332 526.842 127.057 521.842 131.67C517.575 135.607 506.47 140.862 507.133 147.361C514.704 154.71 531.61 140.144 538.191 137.28C541.98 135.631 544.839 137.197 548.221 138.884C541.709 142.59 546.445 142.726 543.274 146.95C541.011 147.495 534.808 153.07 530.917 152.484C528.734 152.156 527.809 150.565 526.201 148.919C516.836 149.489 507.114 160.216 502.601 145.089C502.767 143.414 504.254 141.271 505.162 139.756ZM513.81 133.869C516.984 131.179 537.123 114.664 533.346 110.136C527.577 114.561 516.078 126.713 513.351 133.327L513.81 133.869ZM533.648 148.328C536.64 147.104 539.958 145.423 541.691 142.585L541.625 141.164L539.808 140.283C536.928 141.875 533.051 143.712 531.49 146.608L531.836 147.553L533.648 148.328Z"/><path fill="#5F5E61" transform="scale(1.33333 1.33333)" d="M816.925 439.115C821.563 440.913 860.009 435.71 868.843 434.938L981.911 424.97C988.163 424.352 994.433 423.919 1000.71 423.67C1005.56 423.526 1014.9 423.695 1019.24 422.735L1019.91 423.844C1018.86 424.99 1018.58 425.051 1017.17 425.783C987.095 427.718 956.888 431.249 926.8 433.509C915.519 434.356 904.097 436.432 892.799 437.263C875.114 438.389 857.441 439.544 839.793 441.266C835.758 441.66 822.704 442.649 819.308 443.672C818.298 442.893 817.475 440.423 816.925 439.115Z"/><defs><linearGradient id="gradient_3" gradientUnits="userSpaceOnUse" x1="455.94318" y1="208.20326" x2="456.13547" y2="204.27635"><stop offset="0" stop-color="#7B7A7D"/><stop offset="1" stop-color="#676569"/></linearGradient></defs><path fill="url(#gradient_3)" transform="scale(1.33333 1.33333)" d="M359.015 199.099C367.68 199.186 376.399 200.368 385.1 200.662C407.295 201.411 429.638 203.508 451.745 205.631C461.118 206.531 469.25 206.177 478.607 206.072C502.783 207.91 526.801 208.022 551.013 208.87C553.31 208.95 557.187 208.682 559.289 209.125L559.337 209.701L559.911 210.022C558.623 212.67 556.453 212.297 553.718 212.371C529.47 212.273 503.921 210.983 479.708 209.474C472.41 209.02 464.167 209.808 456.795 209.376C451.214 209.049 445.518 207.942 439.917 207.585C411.106 205.749 381.737 203.863 353.006 201.218L352.589 200.709L353.182 199.819C355.253 199.473 356.935 199.295 359.015 199.099Z"/><defs><linearGradient id="gradient_4" gradientUnits="userSpaceOnUse" x1="443.23267" y1="426.00974" x2="442.01379" y2="404.38821"><stop offset="0" stop-color="#55575A" stop-opacity="0.94901961"/><stop offset="1" stop-color="#646168"/></linearGradient></defs><path fill="url(#gradient_4)" transform="scale(1.33333 1.33333)" d="M333.978 412.077C335.311 410.339 335.53 410.188 337.505 409.233C346.666 411.316 373.126 411.875 383.644 412.596C420.335 415.112 457.561 414.499 494.39 416.435C512.755 417.4 529.73 416.631 548.453 418.392L548.342 420.455C547.341 420.858 546.33 421.235 545.309 421.584C498.878 417.685 450.036 419.17 403.416 416.86C389.436 416.167 375.437 415.77 361.481 414.71C352.329 414.015 343.135 412.32 333.978 412.077Z"/><defs><linearGradient id="gradient_5" gradientUnits="userSpaceOnUse" x1="434.388" y1="427.49179" x2="435.09723" y2="419.16171"><stop offset="0" stop-color="#757476"/><stop offset="1" stop-color="#5A585E"/></linearGradient></defs><path fill="url(#gradient_5)" transform="scale(1.33333 1.33333)" d="M341.115 417.834C362.066 418.329 381.989 419.867 402.864 421.168C435.567 423.208 468.503 423.782 501.209 426.05C511.282 426.748 521.99 425.434 532.109 426.546L530.921 428.328C531.376 428.817 531.677 429.238 532.214 429.575C528.004 429.891 521.848 429.421 517.458 429.489C502.76 429.717 487.811 428.425 473.353 427.771C450.139 426.72 425.951 425.841 402.936 424.567C393.552 424.048 346.103 420.202 340.394 421.463C340.041 421.342 338.519 420.416 338.095 420.169L337.223 418.996L337.476 418.141L341.115 417.834Z"/><path fill="#5F5E61" transform="scale(1.33333 1.33333)" d="M966.584 178.921C966.148 179.832 964.985 182.022 964.882 182.873C915.937 186.917 868.883 184.77 820.201 190.513C812.6 191.41 797.756 191.889 791.184 193.271L793.063 189.107C821.144 187.1 847.331 184.05 875.599 182.792C902.693 181.586 940.415 182.838 966.584 178.921Z"/><path fill="#747376" transform="scale(1.33333 1.33333)" d="M786.475 219.62C800.372 216.865 806.367 217.289 819.741 216.298L874.791 212.403C887.098 211.433 951.514 204.344 957.906 205.996C958.766 206.882 959.854 208.076 960.76 208.872C932.433 209.066 902.205 214.525 873.66 216.146C855.075 217.202 836.775 218.135 818.213 219.731C806.851 220.708 801.679 220.181 790.11 222.918C788.343 222.796 787.36 220.919 786.475 219.62Z"/><defs><linearGradient id="gradient_6" gradientUnits="userSpaceOnUse" x1="334.18353" y1="325.61792" x2="322.01233" y2="325.54071"><stop offset="0" stop-color="#4C5357" stop-opacity="0.96862745"/><stop offset="1" stop-color="#736F6E"/></linearGradient></defs><path fill="url(#gradient_6)" transform="scale(1.33333 1.33333)" d="M333.05 243.678C335.494 243.871 334.541 244.076 336.668 242.941C334.776 254.835 335.494 267.984 334.375 280.022C331.471 311.264 330.282 342.702 326.236 373.836C325.057 382.907 326.114 404.728 321.35 411.407L320.939 411.341C318.3 402.302 324.596 360.348 325.55 349.448L330.973 280.323C331.996 267.492 331.408 257.797 333.05 243.678Z"/><path fill="#27292B" fill-opacity="0.98823529" transform="scale(1.33333 1.33333)" d="M383.55 120.423C376.081 120.221 363.298 119.581 357.745 113.929C356.984 111.932 357.014 112.791 357.69 110.692C361.505 110.624 363.701 114.221 366.687 115.153C374.942 117.733 385.534 118.852 391.789 111.721C396.829 105.976 407.315 93.1346 416.134 97.5867C417.848 99.589 417.49 98.6963 417.902 101.023C416.682 105.935 410.679 109.43 406.556 111.911C401.031 115.235 394.589 117.015 389.208 120.358C387.943 121.144 367.142 143.288 367.069 143.498L370.406 146.732C369.746 147.634 368.865 149.01 367.993 149.59C366.24 147.883 365.52 147.098 363.427 145.793C362.662 145.258 361.523 143.912 360.834 143.16L360.633 142.556C359.152 140.855 357.37 140.504 355.185 139.734C352.844 139.231 353.404 139.716 352.189 138.176C353.483 136.624 353.086 137.115 355.589 136.612C359.718 137.659 360.883 138.096 364.69 140.008C371.771 133.6 377.675 127.963 383.55 120.423ZM395.294 113.69C399.665 112.496 414.265 105.241 412.825 100.2L411.976 99.6805C403.374 103.098 400.269 106.728 394.417 113.588C395.159 113.789 394.872 113.854 395.294 113.69Z"/><path fill="#3C3C3F" transform="scale(1.33333 1.33333)" d="M984.157 163.642C984.67 164.76 985.095 165.678 985.69 166.754L985.209 167.691C982.519 168.766 976.143 175.77 973.95 178.197C981.981 177.661 982.153 177.655 984.693 169.987C985.184 172.14 985.025 172.199 987.205 173.314L986.249 176.705C986.041 178.649 986.029 178.946 984.999 180.594C979.482 186.169 975.672 198.957 967.732 205.189C966.433 206.722 966.4 207.025 966.029 209.017C964.686 209.423 962.26 209.02 960.76 208.872C959.854 208.076 958.766 206.882 957.906 205.996C958.155 191.711 963.374 190.696 964.882 182.873C964.985 182.022 966.148 179.832 966.584 178.921C970.762 177.004 979.993 167.413 984.157 163.642ZM970.146 182.665C966.261 187.816 961.115 197.251 962.17 203.747L963.073 203.873C970.407 198.617 975.961 189.936 979.068 181.544L978.044 181.413C975.728 181.75 972.329 182.143 970.146 182.665Z"/><path fill="#4D4D4F" transform="scale(1.33333 1.33333)" d="M409.142 482.432C411.278 475.753 413.094 472.38 419.964 470.497C424.597 472.083 427.095 473.818 431.18 476.426C434.429 479.019 445.687 487.897 449.547 488.801L451.584 490.271C455.492 492.868 460.195 492.385 464.881 496.529L465.208 496.766C465.305 499.07 465.424 500.502 465.077 502.824C467.991 507.219 475.034 502.212 478.974 506.572L478.815 507.644C474.209 509.836 469.132 504.545 464.22 507.725L463.414 510.63C462.473 509.582 461.506 508.557 460.513 507.557C461.617 503.229 462.818 501.214 460.674 497.6C458.445 496.096 456.538 495.865 453.916 495.29C449.331 505.887 453.338 505.783 451.231 513.338C444.588 515.696 420.626 518.701 412.883 518.163C412.433 516.865 412.437 514.938 412.341 513.491C419.122 515.338 439.408 512.362 446.65 510.644C447.717 508.953 447.319 507.732 447.335 505.427C445.164 504.678 435.693 502.11 435.079 500.328L436.005 499.869L435.849 500.684L436.697 499.888C439.935 499.947 444.681 501.436 447.941 502.309L451.443 494.647C442.154 489.217 433.738 481.647 424.489 476.393C416.578 471.899 413.892 478.18 411.942 484.26C411.336 483.643 409.954 482.912 409.142 482.432Z"/><defs><linearGradient id="gradient_7" gradientUnits="userSpaceOnUse" x1="1064.2096" y1="352.99683" x2="1080.3408" y2="349.22617"><stop offset="0" stop-color="#57595A" stop-opacity="0.96862745"/><stop offset="1" stop-color="#737173"/></linearGradient></defs><path fill="url(#gradient_7)" transform="scale(1.33333 1.33333)" d="M1060.17 258.433L1060.96 256.81C1063.19 264.952 1064.3 280.861 1066.09 289.842C1066.55 292.11 1066.32 295.275 1066.87 297.82L1068.44 297.865C1068.29 290.325 1063.14 267.495 1064.95 263.524C1070.23 290.349 1072.36 322.005 1074.56 349.362C1075.32 358.877 1079.65 399.86 1078.71 407.4L1077.91 407.684C1076.33 406.354 1075.18 405.483 1074.97 403.534C1074.51 399.179 1074.24 394.654 1073.92 390.293C1073.21 380.555 1072.45 370.822 1071.64 361.092C1068.32 324.736 1065.41 294.556 1060.17 258.433Z"/><path fill="#5F5E61" fill-opacity="0.98823529" transform="scale(1.33333 1.33333)" d="M1111.58 465.443L1112.48 465.599C1116.26 488.758 1113.66 512.925 1115.03 536.222C1115.68 547.184 1124.77 609.77 1121.86 614.791C1121.34 615.695 1120.88 615.55 1119.94 615.756L1119.14 615.054C1117.44 606.711 1118.69 595.837 1117.33 587.421C1112.82 559.577 1110.4 532.798 1111.21 504.582C1111.58 491.59 1107.96 478.639 1111.58 465.443Z"/><path fill="#0A0B0C" fill-opacity="0.98431373" transform="scale(1.33333 1.33333)" d="M265.49 497.9C267.739 495.709 266.991 496.352 270.195 495.451C270.389 497.785 268.759 501.613 268.978 502.262C270.953 508.128 276.814 516.002 281.646 520.09C289.873 527.05 312.081 541.514 312.632 520.621L315.05 519.005C316.21 522.021 314.357 525.878 313.891 529.707C314.743 531.24 314.726 530.798 316.971 531.556C323.318 529.937 324.077 520.032 324.606 514.492C325.008 513.13 325.381 512.158 325.902 510.836C327.511 516.354 326.708 517.525 326.752 523.166C326.768 525.34 329.352 524.634 329.642 527.399C330.219 532.892 325.948 546.885 323.802 552.068C320.118 553.635 323.665 553.926 320.003 554.632C322.264 545.874 325.228 537.465 327.479 528.967C318.069 537.722 312.834 535.275 301.017 533.84C298.128 544.215 294.282 553.557 290.669 563.662L287.844 561.341C291.806 551.665 295.098 543.455 297.897 533.31C283.322 527.152 267.034 514.972 265.49 497.9Z"/><path fill="#5F5E61" transform="scale(1.33333 1.33333)" d="M1019.2 448.271C1030.25 445.18 1080.41 437.851 1086.02 448.598C1084.38 450.174 1061.67 445.532 1057.06 446.314C1051.4 447.273 1031.12 446.427 1029.41 452.99L1030.44 454.579C1034.69 457.034 1052.51 456.548 1059.16 457.202C1065.19 457.375 1069.89 457.162 1075 460.899C1073.39 463.135 1073.57 463.543 1070.74 464.426C1068.62 464.211 1066.71 463.946 1064.61 463.632C1061.05 463.689 1057.48 463.667 1053.92 463.566L1053.09 461.956C1049.89 459.544 1048.06 459.083 1044.09 459.105L1043.41 459.924C1037.65 458.59 1031.94 459.199 1026.17 459.068C1017.87 458.879 1018.48 454.441 1019.2 448.271Z"/><path fill="#3C3C3F" transform="scale(1.33333 1.33333)" d="M1059.16 457.202C1065.19 457.375 1069.89 457.162 1075 460.899C1073.39 463.135 1073.57 463.543 1070.74 464.426C1068.62 464.211 1066.71 463.946 1064.61 463.632C1062.29 462.772 1060.09 462.201 1058.41 460.418C1058.1 458.349 1057.96 459.201 1059.16 457.202Z"/><defs><linearGradient id="gradient_8" gradientUnits="userSpaceOnUse" x1="795.09155" y1="358.03668" x2="800.80261" y2="357.29346"><stop offset="0" stop-color="#444647" stop-opacity="0.97647059"/><stop offset="1" stop-color="#7A797A"/></linearGradient></defs><path fill="url(#gradient_8)" transform="scale(1.33333 1.33333)" d="M791.009 300.923C791.271 295.226 793.763 294.559 793.106 289.292C792.928 287.861 792.819 288.507 792.838 286.637C793.631 285.96 793.883 285.678 794.819 285.192L794.861 286.639C793.599 305.894 799.447 325.875 799.598 342.845C799.473 345.265 800.745 357.559 801.703 359.532C801.683 367.787 803.25 377.828 803.907 386.187C804.614 395.191 805.039 404.177 805.265 413.205C804.773 415.745 804.579 418.211 803.36 420.407L803.42 419.293C802.465 421.009 802.555 421.401 802.389 423.423C801.828 419.237 801.515 414.506 801.235 410.266C799.558 384.882 798.203 359.211 794.631 334.024C793.08 323.09 791.569 311.959 791.009 300.923Z"/><path fill="#4D4D4F" transform="scale(1.33333 1.33333)" d="M440.273 145.231C450.035 147.472 469.555 136.423 476.068 129.253C480.855 123.982 492.911 104.288 500.807 104.823L501.559 106.1C501.577 117.176 479.716 129.953 474.096 138.749C473.229 140.106 472.02 141.694 471.089 143.066C475.698 138.872 478.564 136.505 484.179 133.836C484.377 134.333 485.303 136.53 485.307 136.898C481.44 139.56 469.895 148.629 466.054 148.739C463.848 146.332 468 141.402 469.556 139.069C460.85 143.018 449.329 150.192 440.232 149.703C440.719 147.806 440.517 147.172 440.273 145.231ZM485.635 122.847C488.009 120.433 495.816 113.049 496.452 110.249L496.23 109.531C494.53 111.362 485.163 120.919 485.635 122.847Z"/><path fill="#DEDDDC" fill-opacity="0.070588239" transform="scale(1.33333 1.33333)" d="M496.23 109.531L496.452 110.249C495.816 113.049 488.009 120.433 485.635 122.847C485.163 120.919 494.53 111.362 496.23 109.531Z"/><path fill="#5F5E61" transform="scale(1.33333 1.33333)" d="M930.252 559.885C936.373 556.543 942.17 550.276 948.581 547.255C970.639 536.861 999.35 543.028 1021.11 551.307C1028.62 554.165 1036.03 559.748 1044.06 562.601L1044.12 568.545C1041.05 565.882 1036.57 564.047 1033.05 561.956C1009.69 548.09 976.702 539.839 950.68 550.651C945.254 552.905 936.533 560.036 931.425 563.948L930.252 559.885Z"/><path fill="#4D4D4F" fill-opacity="0.98431373" transform="scale(1.33333 1.33333)" d="M263.549 495.474L264.68 498.569C258.163 510.25 212.767 613.875 210.248 614.97C208.917 615.549 207.921 615.928 206.539 615.437C206.316 612.569 209.342 609.305 210.637 606.638C226.469 574.044 241 540.902 255.955 507.916C257.666 504.142 260.507 498.216 263.549 495.474Z"/><defs><linearGradient id="gradient_9" gradientUnits="userSpaceOnUse" x1="338.57608" y1="287.72183" x2="341.74585" y2="287.98743"><stop offset="0" stop-color="#444649" stop-opacity="0.96470588"/><stop offset="1" stop-color="#6D6E6F"/></linearGradient></defs><path fill="url(#gradient_9)" transform="scale(1.33333 1.33333)" d="M347.753 219.171C346.165 240.516 346.42 261.816 342.904 282.984C342.422 285.891 342.081 289.035 341.75 291.974C339.841 309.079 338.182 326.211 336.771 343.365C336.262 349.08 335.327 355.628 335.031 361.244C334.72 357.066 335.048 356.907 332.312 354.297C332.555 352.926 332.487 351.106 332.622 349.641C335.452 318.956 338.926 288.376 342.389 257.776C343.829 245.059 342.259 234.123 344.96 221.132L345.73 221.136C347.007 220.381 346.94 220.424 347.753 219.171Z"/><path fill="#4D4D4F" transform="scale(1.33333 1.33333)" d="M834.36 156.37C836.728 156.314 839.356 156.565 841.187 155.178C846.09 148.261 853.573 128.799 861.745 125.963C863.997 126.167 863.305 125.793 864.872 127.093C865.538 131.113 862.008 135.241 860.558 138.716C856.114 149.365 842.973 155.12 841.406 167.134L843.261 168.357C840.81 171.132 839.925 172.285 836.868 174.289C834.864 172.978 837.94 166.504 836.845 162.002C835.499 160.078 835.088 159.99 832.862 159.153C833.591 158.332 833.887 157.406 834.36 156.37Z"/><defs><linearGradient id="gradient_10" gradientUnits="userSpaceOnUse" x1="741.00031" y1="479.03183" x2="778.80115" y2="474.7406"><stop offset="0" stop-color="#36383A" stop-opacity="0.98039216"/><stop offset="1" stop-color="#626164"/></linearGradient></defs><path fill="url(#gradient_10)" transform="scale(1.33333 1.33333)" d="M773.229 428.376L774.578 431.406C766.141 438.819 749.864 454.135 748.573 466.068C747.266 478.151 752.19 517.045 748.11 526.566L747.262 526.787L745.784 525.437C745.302 524.343 744.939 466.159 745.607 461.834C746.914 453.365 766.194 433.493 773.229 428.376Z"/><defs><linearGradient id="gradient_11" gradientUnits="userSpaceOnUse" x1="880.46381" y1="548.20605" x2="872.04041" y2="571.13367"><stop offset="0" stop-color="#4B494D"/><stop offset="1" stop-color="#6F6E70"/></linearGradient></defs><path fill="url(#gradient_11)" transform="scale(1.33333 1.33333)" d="M853.731 545.055C864.931 543.635 879.395 546.632 889.906 550.677C894.22 552.337 921.228 566.917 922.315 569.564C922.519 570.062 922.189 570.419 921.988 570.89C916.956 571.147 904.52 562.559 900.295 559.493C883.073 548.86 850.949 542.415 833.854 556.239C832.153 557.614 830.779 557.018 828.943 556.611L828.465 555.769C831.502 550.334 847.782 545.849 853.731 545.055Z"/><path fill="#4D4D4F" transform="scale(1.33333 1.33333)" d="M961.999 159.884C973.147 155.038 975.999 148.477 985.895 143.229C988.707 141.737 993.049 144.673 995.801 146.247C995.304 149.459 994.905 151.672 994.096 154.812C993.511 156.381 994.108 157.432 994.652 159.098L991.933 161.472C989.848 165.819 988.786 168.787 987.205 173.314C985.025 172.199 985.184 172.14 984.693 169.987L985.209 167.691L985.69 166.754C985.095 165.678 984.67 164.76 984.157 163.642C987.115 161.56 988.736 160.862 989.134 157.017L989.965 151.927C986.631 154.494 982.156 158.534 977.997 158.45C976.692 157.772 975.857 157.361 974.493 156.816C971.198 158.292 968.739 160.322 965.534 161.715C961.542 161.019 961.099 163.297 957.682 162.6C958.442 160.238 960.399 162.357 961.999 159.884ZM980.633 154.019C983.917 152.336 988.007 150.367 989.909 147.102L989.697 145.957L988.291 145.382C985.49 147.302 980.79 150.685 979.537 153.936C979.846 153.977 980.386 154.098 980.633 154.019Z"/><path fill="#27292B" transform="scale(1.33333 1.33333)" d="M989.134 157.017L989.585 156.554C991.634 154.419 992.986 150.014 992.054 147.337C993.673 147.757 993.669 147.462 994.486 148.498C994.064 150.1 994.228 149.457 993.518 150.591C992.04 152.951 992.048 158.554 991.933 161.472C989.848 165.819 988.786 168.787 987.205 173.314C985.025 172.199 985.184 172.14 984.693 169.987L985.209 167.691L985.69 166.754C985.095 165.678 984.67 164.76 984.157 163.642C987.115 161.56 988.736 160.862 989.134 157.017Z"/><path fill="#DEDDDC" fill-opacity="0.011764706" transform="scale(1.33333 1.33333)" d="M988.291 145.382L989.697 145.957L989.909 147.102C988.007 150.367 983.917 152.336 980.633 154.019C980.386 154.098 979.846 153.977 979.537 153.936C980.79 150.685 985.49 147.302 988.291 145.382Z"/><defs><linearGradient id="gradient_12" gradientUnits="userSpaceOnUse" x1="838.19574" y1="150.99141" x2="818.67883" y2="144.35313"><stop offset="0" stop-color="#2C2C2E" stop-opacity="0.98823529"/><stop offset="1" stop-color="#535256"/></linearGradient></defs><path fill="url(#gradient_12)" transform="scale(1.33333 1.33333)" d="M821.21 137.587C847.132 117.036 849.776 140.598 834.36 156.37C833.887 157.406 833.591 158.332 832.862 159.153C824.941 164.292 816.44 170.399 810.296 160.174C817.738 154.554 820.836 155.256 830.307 154.872C835.193 151.354 841.505 141.719 839.032 135.438C833.978 130.774 828.271 136.335 824.04 139.685C823.278 138.991 822.085 138.206 821.21 137.587ZM819.161 161.649C821.26 160.883 823.577 160.283 825.153 158.806C823.932 157.891 824.183 158.194 822.308 158.152C820.133 158.923 817.618 159.532 816.063 161.097C817.409 161.859 817.55 161.772 819.161 161.649Z"/><path fill="#DEDDDC" fill-opacity="0.015686275" transform="scale(1.33333 1.33333)" d="M822.308 158.152C824.183 158.194 823.932 157.891 825.153 158.806C823.577 160.283 821.26 160.883 819.161 161.649C817.55 161.772 817.409 161.859 816.063 161.097C817.618 159.532 820.133 158.923 822.308 158.152Z"/><defs><linearGradient id="gradient_13" gradientUnits="userSpaceOnUse" x1="795.74023" y1="566.84686" x2="775.58063" y2="573.46838"><stop offset="0" stop-color="#3C3C3F" stop-opacity="0.98431373"/><stop offset="1" stop-color="#626264"/></linearGradient></defs><path fill="url(#gradient_13)" transform="scale(1.33333 1.33333)" d="M785.159 527.077C784.026 530.18 782.761 534.284 781.614 537.278C777.606 547.741 793.68 610.659 791.223 614.921C788.82 615.112 789.761 615.296 787.632 614.284L780.917 571.187C779.336 560.907 776.646 548.306 777.401 538.091C777.562 535.916 781.163 527.699 782.256 525.098C783.65 527.084 782.867 526.567 785.159 527.077Z"/><path fill="#3C3C3F" transform="scale(1.33333 1.33333)" d="M541.282 524.372C536.582 515.317 538.178 510.708 540.416 500.989L541.349 502.358L543.593 502.477C541.572 514.52 540.54 521.188 549.707 530.659L544.748 533.291C543.12 531.011 543.571 530.78 541.361 530.381C536.833 533.483 538.197 546.498 542.659 549.87C545.882 549.334 545.785 546.168 546.347 543.225L548.813 545.194C548.593 548.535 548.149 548.016 549.481 550.653C551.971 552.602 555.877 552.159 559.085 552.1L559.216 552.812C559.349 553.562 559.398 553.689 559.163 554.432L563.061 554.934C552.273 556.168 540.061 554.695 533.515 544.937C533.741 543.31 532.804 541.083 532.271 539.413C534.235 533.544 536.488 528.283 541.282 524.372Z"/><defs><linearGradient id="gradient_14" gradientUnits="userSpaceOnUse" x1="607.57764" y1="575.48767" x2="625.06189" y2="565.23486"><stop offset="0" stop-color="#3A4042" stop-opacity="0.9254902"/><stop offset="1" stop-color="#575052"/></linearGradient></defs><path fill="url(#gradient_14)" transform="scale(1.33333 1.33333)" d="M601.48 529.662C603.187 526.678 603.144 525.807 603.354 522.319C603.644 526.141 605.976 530.595 607.271 534.284C616.624 560.93 623.526 588.237 633.04 614.819L631.932 615.53C626.777 613.702 622.456 594.305 620.723 588.387C617.109 576.059 613.284 563.794 609.248 551.597C607.358 545.79 604.008 535.126 601.48 529.662Z"/><path fill="#5F5E61" transform="scale(1.33333 1.33333)" d="M776.19 462.664C781.41 460.993 794.98 454.207 797.023 453.975C806.567 452.889 814.917 459.27 826.819 458.38L825.974 460.167C826.878 462.672 827.766 462.535 829.286 464.495C802.502 456.795 807.647 452.958 782.108 464.518C800.123 461.969 804.927 464.469 822.35 468.33L822.345 469.195L823.807 469.727C823.448 470.678 823.495 470.809 822.91 471.591C813.13 468.603 789.031 464.805 779.167 468.183C777.618 465.898 777.15 465.292 776.19 462.664Z"/><path fill="#5F5E61" transform="scale(1.33333 1.33333)" d="M1078.71 407.4C1080.13 408.057 1085.58 410.204 1086.2 410.8C1090.76 415.214 1105.54 425.756 1107.9 430.653L1107.56 431.483C1096.35 429.476 1090.78 415.317 1080.05 412.196C1074.29 410.522 1049.02 416.061 1047.77 421.822C1049.11 423.313 1050.49 423.307 1052.53 423.709C1049.95 424.964 1050.87 424.239 1049.13 426.892L1046.71 427.03C1045.58 426.315 1043.46 426.255 1042.03 426.099C1043.94 422.41 1044.02 420.371 1044.56 416.329C1047.49 414.808 1060.61 410.868 1064.51 409.657C1067.93 408.876 1074.24 408.182 1077.91 407.684L1078.71 407.4Z"/><defs><linearGradient id="gradient_15" gradientUnits="userSpaceOnUse" x1="481.76694" y1="499.37256" x2="475.37756" y2="534.08704"><stop offset="0" stop-color="#36383B" stop-opacity="0.98823529"/><stop offset="1" stop-color="#555457"/></linearGradient></defs><path fill="url(#gradient_15)" transform="scale(1.33333 1.33333)" d="M502.921 502.612L505.754 505.259C505.336 506.987 504.789 508.346 505.237 510.013L504.901 510.993L504.067 511.33C499.843 521.563 497.318 527.173 487.906 533.856C481.656 531.938 476.404 530.113 471.85 525.216C470.995 524.297 469.195 522.192 468.158 522.002L467.737 526.391C466.95 532.398 465.389 534.604 465.59 540.385C465.583 530.615 465.133 523.317 463.789 513.647C461.048 513.992 455.898 514.847 453.361 514.482C453.824 513.13 459.038 508.875 460.513 507.557C461.506 508.557 462.473 509.582 463.414 510.63C469.634 514.85 473.508 525.549 482.048 528.067C494.66 531.785 500.341 511.315 502.921 502.612Z"/><defs><linearGradient id="gradient_16" gradientUnits="userSpaceOnUse" x1="793.26892" y1="473.3537" x2="790.41492" y2="487.52948"><stop offset="0" stop-color="#817F80" stop-opacity="0.98039216"/><stop offset="1" stop-color="#6D6D6D"/></linearGradient></defs><path fill="url(#gradient_16)" transform="scale(1.33333 1.33333)" d="M772.653 479.556C783.864 477.782 796.373 474.957 807.455 475.777C811.722 476.114 811.869 478.742 814.988 479.808C815.899 480.119 821.019 480.043 822.792 480.218C814.896 482.165 810.47 481.903 803.69 483.218C793.486 482.619 782.025 486.386 774.527 485.847C773.205 484.347 773.034 481.672 772.653 479.556Z"/><defs><linearGradient id="gradient_17" gradientUnits="userSpaceOnUse" x1="915.67969" y1="149.02725" x2="905.02759" y2="175.0269"><stop offset="0" stop-color="#3C3D3E"/><stop offset="1" stop-color="#59595C"/></linearGradient></defs><path fill="url(#gradient_17)" transform="scale(1.33333 1.33333)" d="M891.093 167.435C903.975 167.411 913.97 152.003 920.852 150.492C926.288 151.915 923.892 156.06 924.619 159.393L927.213 159.025L928.885 161.4C919.712 164.431 918.58 170.562 912.816 169.197C909.984 166.856 910.35 166.508 910.514 162.996C907.404 163.241 896.181 172.96 890.066 170.902L889.021 169.937C890.719 168.825 890.152 169.366 891.093 167.435Z"/><path fill="#4D4D4F" transform="scale(1.33333 1.33333)" d="M265.895 448.356C266.963 448.682 268.302 449.193 269.38 449.19C275.696 469.233 274.03 490.82 291.53 503.142L288.697 505.215C282.687 500.743 278.283 496.887 273.24 491.354C271.866 492.783 270.843 493.585 270.195 495.451C266.991 496.352 267.739 495.709 265.49 497.9L264.68 498.569L263.549 495.474C266.594 492.752 271.427 486.668 274.028 483.412C272.226 474.906 268.185 455.357 265.895 448.356Z"/><path fill="#5F5E61" transform="scale(1.33333 1.33333)" d="M1009.07 483.397C1012.04 483.096 1014.33 482.381 1016.26 484.982C1015.39 486.042 1014.51 486.272 1013.15 486.467C989.158 489.91 964.782 488.635 943.085 500.914C941.258 502.04 940.059 502.661 937.961 502.282L937.596 501.376C945.371 488.064 994.116 485.021 1009.07 483.397Z"/><path fill="#3C3C3F" fill-opacity="0.98431373" transform="scale(1.33333 1.33333)" d="M528.214 503.379C527.172 499.589 522.503 481.776 523.854 479.063L524.818 479.066C528.647 482.959 530.228 498.206 532.139 504.787C527.462 510.682 522.567 515.512 517.073 520.643C521.988 526.489 525.766 530.988 526.973 538.874L526.49 540.26C523.215 539.739 521.46 531.808 519.057 528.513C514.953 522.888 508.236 516.862 504.901 510.993L505.237 510.013C509.694 509.798 513.079 515.513 515.426 518.846C519.818 513.161 524.194 509.487 528.214 503.379Z"/><path fill="#747376" transform="scale(1.33333 1.33333)" d="M848.331 493.02C854.677 492.65 921.869 497.928 925.034 499.328C926.722 500.075 927.207 501.46 927.804 503.104C914.8 500.544 903.904 501.045 890.927 499.809C877.498 498.53 863.244 498.336 850.028 496.625C848.348 495.312 848.818 495.492 848.331 493.02Z"/><path fill="#5F5E61" transform="scale(1.33333 1.33333)" d="M413.85 544.836L415.599 545.01L417.095 542.973L428.774 598.929C429.627 603.177 432.195 610.894 432.245 614.656L430.857 615.691C429.57 615.369 429.414 615.321 428.686 614.201C426.471 610.792 415.481 553.706 413.85 544.836Z"/><path fill="#5F5E61" fill-opacity="0.98431373" transform="scale(1.33333 1.33333)" d="M532.271 539.413C532.804 541.083 533.741 543.31 533.515 544.937C531.544 554.981 540.536 612.459 538.042 615.268C537.108 615.071 535.657 614.913 535.451 613.898C532.581 599.775 532.714 568.903 529.661 555.898L529.357 555.83C529.087 555.378 528.916 554.993 528.752 554.499L526.515 553.701C527.205 553.427 529.076 552.737 529.177 551.883C529.718 547.292 530.472 543.686 532.271 539.413Z"/><defs><linearGradient id="gradient_18" gradientUnits="userSpaceOnUse" x1="300.33224" y1="401.46521" x2="294.51575" y2="390.01016"><stop offset="0" stop-color="#444547" stop-opacity="0.98823529"/><stop offset="1" stop-color="#6A696B"/></linearGradient></defs><path fill="url(#gradient_18)" transform="scale(1.33333 1.33333)" d="M276.309 402.894C279.015 395.731 294.986 389.687 301.557 385.514C304.654 383.547 311.137 382.377 314.848 383.609C319.627 389.323 298.449 402.697 294.153 406.182L292.826 403.153C298.796 398.551 307.797 392.194 312.051 386.335C300.401 389.355 288.489 397.931 276.908 403.192L276.309 402.894Z"/><path fill="#27292B" fill-opacity="0.98823529" transform="scale(1.33333 1.33333)" d="M796.327 173.167C797.627 165.565 816.51 141.939 813.983 134.771C808.915 133.118 803.052 140.781 799.169 140.403C799.196 134.185 822.579 121.615 816.052 140.912C815.395 143.24 815.644 144.215 816.654 146.739C812.386 152.025 803.055 168.835 799.796 175.074C799.215 174.27 799.579 174.627 798.434 174.266C797.486 175.862 797.277 176.757 795.887 177.915C796.179 176.182 796.299 175.342 796.324 173.578L796.327 173.167Z"/><defs><linearGradient id="gradient_19" gradientUnits="userSpaceOnUse" x1="479.43176" y1="579.99921" x2="490.32083" y2="582.61664"><stop offset="0" stop-color="#47494D" stop-opacity="0.96470588"/><stop offset="1" stop-color="#757475"/></linearGradient></defs><path fill="url(#gradient_19)" transform="scale(1.33333 1.33333)" d="M486.593 544.074C487.155 546.556 487.011 548.08 489.475 549.493C489.629 551.521 486.996 567.613 486.787 571.64C486.052 581.472 485.487 591.303 485.014 601.152C484.859 604.356 486.093 613.516 483.982 615.391L481.882 615.228L480.9 614.055C480.931 590.392 483.98 567.346 486.593 544.074Z"/><defs><linearGradient id="gradient_20" gradientUnits="userSpaceOnUse" x1="809.30096" y1="498.55597" x2="799.53656" y2="485.92313"><stop offset="0" stop-color="#3E3F43" stop-opacity="0.98431373"/><stop offset="1" stop-color="#646463"/></linearGradient></defs><path fill="url(#gradient_20)" transform="scale(1.33333 1.33333)" d="M822.054 486.033L822.412 486.487C824.329 483.758 824.806 483.287 827.343 481.106L828.19 481.274C827.997 482.475 828.087 483.352 828.139 484.554C820.294 495.966 806.783 495.185 794.745 496.874C793.332 501.459 790.995 510.733 787.442 513.578L786.619 512.83C786.949 506.776 788.671 502.615 791.274 497.173C789.223 498.421 787.774 499.692 785.511 499.451L784.214 498.575C786.408 489.496 814.124 494.464 820.049 487.295C820.082 487.255 821.796 486.197 822.054 486.033Z"/><defs><linearGradient id="gradient_21" gradientUnits="userSpaceOnUse" x1="410.2373" y1="135.83331" x2="415.87857" y2="146.3242"><stop offset="0" stop-color="#17181C" stop-opacity="0.98039216"/><stop offset="1" stop-color="#3C3C40"/></linearGradient></defs><path fill="url(#gradient_21)" transform="scale(1.33333 1.33333)" d="M402.887 144.164C405.836 138.597 418.246 125.424 424.149 136.264C424.833 137.521 422.843 143.25 422.832 145.573L422.864 149.06C417.014 146.353 420.627 145.274 418.744 142.824C413.633 143.88 409.147 151.673 403.3 148.897L402.887 144.164ZM409.447 144.451C412.06 142.858 416.02 140.754 417.857 138.479L418.087 137.088C417.373 136.815 416.676 136.518 415.939 136.324C412.872 137.824 408.7 140.052 407.187 143.302L407.521 144.32L409.447 144.451Z"/><path fill="#4D4D4F" transform="scale(1.33333 1.33333)" d="M375.721 553.654C381.528 556.427 389.193 576.935 392.025 583.571C396.419 593.867 402.091 605.2 405.864 615.632C403.983 615.423 403.582 615.334 401.806 614.683C400.682 611.166 398.878 607.549 397.317 604.171C390.067 588.48 383.676 572.392 375.844 556.979C375.407 556.119 375.577 554.574 375.721 553.654Z"/><defs><linearGradient id="gradient_22" gradientUnits="userSpaceOnUse" x1="444.70636" y1="571.25006" x2="448.72064" y2="570.79987"><stop offset="0" stop-color="#58595C" stop-opacity="0.97647059"/><stop offset="1" stop-color="#3E4043" stop-opacity="0.97647059"/></linearGradient></defs><path fill="url(#gradient_22)" transform="scale(1.33333 1.33333)" d="M445.269 531.205C446.396 538.941 447.578 547.832 448.048 555.603C448.431 561.933 448.033 568.519 448.495 574.961C449.015 582.207 451.584 592.764 450.759 599.712C450.3 602.121 450.04 605.642 448.878 607.628L448.676 606.28L447.921 607.676C447.348 605.524 447.35 593.61 447.084 590.323C445.441 570.019 445.184 554.361 442.221 533.9C444.327 533.125 443.604 533.462 445.269 531.205Z"/><defs><linearGradient id="gradient_23" gradientUnits="userSpaceOnUse" x1="318.50375" y1="584.56378" x2="311.36331" y2="583.83289"><stop offset="0" stop-color="#36373C" stop-opacity="0.98039216"/><stop offset="1" stop-color="#787878"/></linearGradient></defs><path fill="url(#gradient_23)" transform="scale(1.33333 1.33333)" d="M320.003 554.632C323.665 553.926 320.118 553.635 323.802 552.068C319.852 566.897 317.149 582.167 314.013 597.186C312.918 602.432 313.428 611.699 309.674 615.395L308.389 615.739C307.773 615.222 307.291 615.131 307.431 614.297C310.762 594.432 314.486 573.971 320.003 554.632Z"/><path fill="#747376" transform="scale(1.33333 1.33333)" d="M467.14 556.254L468.381 559.27L470.223 556.44C470.974 567.576 471.199 578.341 471.421 589.494C471.534 595.164 474.479 610.391 473.624 614.919C471.675 615.632 472.505 615.499 470.234 615.141C467.935 612.029 467.237 564.075 467.14 556.254Z"/><defs><linearGradient id="gradient_24" gradientUnits="userSpaceOnUse" x1="501.49164" y1="477.24557" x2="485.78546" y2="501.55273"><stop offset="0" stop-color="#2B2B30" stop-opacity="0.96470588"/><stop offset="1" stop-color="#5F5E61"/></linearGradient></defs><path fill="url(#gradient_24)" transform="scale(1.33333 1.33333)" d="M498.891 469.628C499.306 472.228 499.073 474.41 500.567 475.849L501.966 476.063C502.135 482.323 501.809 485.805 501.125 492.071C503.115 493.053 505.049 493.95 506.93 495.132C506.704 498.481 506.602 502.03 505.754 505.259L502.921 502.612C503.137 501.298 503.864 497.767 502.599 497.126C496.233 493.904 478.857 493.893 472.249 494.936L471.174 491.151C480.233 490.499 488.724 490.811 497.784 491.369C498.27 484.129 498.639 476.881 498.891 469.628Z"/><defs><linearGradient id="gradient_25" gradientUnits="userSpaceOnUse" x1="1064.175" y1="488.59451" x2="1051.7107" y2="459.57794"><stop offset="0" stop-color="#4A4B4D" stop-opacity="0.98823529"/><stop offset="1" stop-color="#747175"/></linearGradient></defs><path fill="url(#gradient_25)" transform="scale(1.33333 1.33333)" d="M1033.51 466.107C1048.08 469.146 1071.02 469.048 1083.28 481.12C1083.58 481.409 1083.68 481.929 1083.78 482.321C1079.98 482.973 1072.49 478.689 1068.3 477.434C1067.44 476.264 1066.32 476.39 1064.55 476.007L1063.75 474.894C1058.41 473.719 1037.5 470.339 1032.1 470.814C1035.88 469.048 1032.72 469.232 1033.51 466.107Z"/><defs><linearGradient id="gradient_26" gradientUnits="userSpaceOnUse" x1="311.79004" y1="426.15433" x2="312.65393" y2="411.31787"><stop offset="0" stop-color="#3B3D3F"/><stop offset="1" stop-color="#6F6D71"/></linearGradient></defs><path fill="url(#gradient_26)" transform="scale(1.33333 1.33333)" d="M286.052 423.56C301.824 417.245 301.795 408.126 320.939 411.341L321.35 411.407C323.237 412.173 328.438 414.64 329.97 414.375L330.269 413.665L331.612 414.104C332.256 417.265 338.364 417.79 341.115 417.834L337.476 418.141L337.223 418.996L338.095 420.169L337.832 422.302C332.523 419.584 319.757 414.794 313.81 413.393C302.039 417.117 296.997 422.543 288.096 425.912L286.052 423.56Z"/><path fill="#27292B" fill-opacity="0.96862745" transform="scale(1.33333 1.33333)" d="M332.312 354.297C335.048 356.907 334.72 357.066 335.031 361.244C334.546 369.169 332.249 400.028 332.91 405.714C335.164 406.255 335.519 405.076 338.207 406.139C338.332 408.143 338.429 407.367 337.505 409.233C335.53 410.188 335.311 410.339 333.978 412.077L331.612 414.104L330.269 413.665C328.586 400.387 331.084 367.923 332.312 354.297Z"/><defs><linearGradient id="gradient_27" gradientUnits="userSpaceOnUse" x1="580.91394" y1="426.02121" x2="566.4707" y2="441.64664"><stop offset="0" stop-color="#484A4C" stop-opacity="0.96862745"/><stop offset="1" stop-color="#5A585C"/></linearGradient></defs><path fill="url(#gradient_27)" transform="scale(1.33333 1.33333)" d="M554.389 429.443C565.753 425.071 575.798 437.49 585.221 443.207C585.371 441.205 585.7 435.138 586.093 433.49C588.988 431.731 588.481 431.42 589.102 428.282C590.043 436.575 589.832 439.992 589.165 448.298C572.996 442.01 568.747 430.284 553.215 432.273C554.133 431.234 554.112 430.785 554.389 429.443Z"/><path fill="#747376" transform="scale(1.33333 1.33333)" d="M967.732 205.189C973.135 204.545 983.43 204.669 989.288 204.376C996.38 204.021 1007.03 203.06 1013.82 203.428L1014.35 203.564C1016.82 204.187 1018.17 204.285 1020.7 204.485L1014.89 205.704C1016.12 205.943 1017.91 206.23 1019.07 206.545C1002.52 207.598 981.653 207.551 966.029 209.017C966.4 207.025 966.433 206.722 967.732 205.189Z"/><path fill="#3C3C3F" fill-opacity="0.98823529" transform="scale(1.33333 1.33333)" d="M363.427 145.793C357.954 149.771 350.724 155.45 343.946 156.08C333.77 156.832 333.929 146.542 340.096 141.377C345.211 137.092 349.094 136.384 355.589 136.612C353.086 137.115 353.483 136.624 352.189 138.176C353.404 139.716 352.844 139.231 355.185 139.734C349.549 139.8 335.328 143.663 340.859 151.382C346.766 153.947 356.512 146.964 360.834 143.16C361.523 143.912 362.662 145.258 363.427 145.793Z"/><path fill="#3C3C3F" transform="scale(1.33333 1.33333)" d="M597.399 518.892C597.757 521.477 597.971 522.842 598.663 525.36L599.121 525.361C599.664 523.069 599.857 521.168 601.665 519.645L602.717 519.728C603.13 520.692 603.539 521.309 603.354 522.319C603.144 525.807 603.187 526.678 601.48 529.662C596.27 536.219 587.114 542.93 579.739 546.864C577.47 548.074 572.021 551 570.511 552.549C570.513 550.747 570.045 550.416 568.93 548.859C582.019 541.319 584.669 541.468 596.716 529.924C596.018 527.991 595.845 526.465 595.53 524.461L596.326 524.304C597.563 522.592 597.226 521.317 597.399 518.892Z"/><path fill="#4D4D4F" fill-opacity="0.98431373" transform="scale(1.33333 1.33333)" d="M287.844 561.341L290.669 563.662C284.124 577.591 277.776 590.811 272.979 605.447C272.441 607.09 270.998 609.653 269.32 610.344L269.013 609.687C269.013 600.766 283.519 570.103 287.844 561.341Z"/><path fill="#27292B" fill-opacity="0.97254902" transform="scale(1.33333 1.33333)" d="M397.953 500.345L400.013 501.279C400.453 504.274 391.907 517.151 389.915 521.232C385.203 530.883 382.411 541.737 378.22 551.301L376.719 551.22L375.977 550.001C375.53 542.926 393.164 506.937 397.953 500.345Z"/><path fill="#5F5E61" transform="scale(1.33333 1.33333)" d="M1056.06 424.124C1067.57 423.622 1084.24 422.314 1093.59 431.387L1093.24 432.207C1087.01 433.261 1080.77 428.309 1075.09 427.512C1067.43 426.436 1060.39 427.937 1053.04 429.347L1053.19 428.771C1050.14 428.299 1051.17 428.847 1049.13 426.892C1050.87 424.239 1049.95 424.964 1052.53 423.709L1056.06 424.124Z"/><path fill="#3C3C3F" transform="scale(1.33333 1.33333)" d="M1052.53 423.709L1056.06 424.124C1055.23 426.856 1055.61 427.254 1053.19 428.771C1050.14 428.299 1051.17 428.847 1049.13 426.892C1050.87 424.239 1049.95 424.964 1052.53 423.709Z"/><defs><linearGradient id="gradient_28" gradientUnits="userSpaceOnUse" x1="794.22815" y1="439.06924" x2="793.84064" y2="426.17984"><stop offset="0" stop-color="#454948" stop-opacity="0.98039216"/><stop offset="1" stop-color="#716D72"/></linearGradient></defs><path fill="url(#gradient_28)" transform="scale(1.33333 1.33333)" d="M773.229 428.376C775.605 426.61 777.633 425.129 780.771 425.946C788.755 428.024 811.624 432.291 816.307 438.064C815.61 438.977 814.325 440.55 813.783 441.47C810.738 435.195 788.222 432.502 781.35 429.959C778.383 428.861 776.887 429.919 774.578 431.406L773.229 428.376Z"/><path fill="#0A0B0C" fill-opacity="0.96862745" transform="scale(1.33333 1.33333)" d="M1075.63 567.49C1076.12 556.82 1080.06 545.132 1080.44 534.339C1080.57 530.587 1081.06 525.392 1082.8 522.08L1083.58 522.479C1084.68 534.604 1081.05 557.855 1078.29 570.21L1076.97 571.842C1076.59 575.056 1076.52 575.541 1075.12 578.446C1075.21 574.817 1076.73 570.916 1075.63 567.49Z"/><path fill="#5F5E61" transform="scale(1.33333 1.33333)" d="M604.34 173.128L606.131 173.652C607.772 179.719 579.605 200.62 573.927 205.709C572.756 205.107 571.574 204.529 570.38 203.972C571.02 202.91 571.896 202.682 573.047 202.147C579.909 195.622 596.668 183.182 600.915 176.599C602.047 175.432 603.189 174.275 604.34 173.128Z"/><defs><linearGradient id="gradient_29" gradientUnits="userSpaceOnUse" x1="1069.2296" y1="595.3465" x2="1073.6395" y2="596.76288"><stop offset="0" stop-color="#353639" stop-opacity="0.96078432"/><stop offset="1" stop-color="#4E4E52"/></linearGradient></defs><path fill="url(#gradient_29)" transform="scale(1.33333 1.33333)" d="M1078.29 570.21C1077.72 581.731 1073.32 600.949 1070.25 612.835C1069.93 614.097 1068.17 614.758 1067.04 615.174L1066.21 614.473C1066.17 612.811 1066.91 609.486 1067.49 607.865C1072.15 594.995 1072.26 580.28 1075.63 567.49C1076.73 570.916 1075.21 574.817 1075.12 578.446C1076.52 575.541 1076.59 575.056 1076.97 571.842L1078.29 570.21Z"/><path fill="#4D4D4F" transform="scale(1.33333 1.33333)" d="M1026.23 437.122C1038.16 436.691 1050.5 434.44 1060.96 434.073C1063.83 435.466 1072.95 439.48 1074.41 441.75C1070.85 443.987 1062.44 438.221 1058.48 438.17C1045.39 437.998 1035.01 440.589 1021.72 439.035C1024.48 438.406 1024.47 438.85 1026.23 437.122Z"/><path fill="#0A0B0C" fill-opacity="0.97647059" transform="scale(1.33333 1.33333)" d="M739.213 581.29C741.632 568.334 743.608 555.79 743.929 542.566C743.984 540.289 743.96 533.07 745.331 531.405C750.68 533.625 743.806 575.104 742.636 581.434C740.536 580.532 741.449 580.582 739.213 581.29Z"/><path fill="#3C3C3F" fill-opacity="0.98039216" transform="scale(1.33333 1.33333)" d="M532.109 426.546C535.858 426.535 552.12 425.781 554.39 427.715L554.389 429.443C554.112 430.785 554.133 431.234 553.215 432.273C543.411 434.592 537.794 435.331 530.586 442.643L527.576 441.792C535.386 431.876 538.117 432.574 550.737 430.116C543.576 429.588 539.443 429.31 532.214 429.575C531.677 429.238 531.376 428.817 530.921 428.328L532.109 426.546Z"/><path fill="#27292B" fill-opacity="0.97647059" transform="scale(1.33333 1.33333)" d="M388.696 452.851L389.824 451.896C390.491 452.443 391.14 452.983 391.83 453.503L392.336 453.45C392.912 453.396 392.701 453.347 393.034 453.466C395.326 466.552 401.291 478.667 404.897 491.387C405.378 493.083 405.748 494.834 406.317 496.502C405.6 497.24 404.766 497.933 404.422 498.868C399.887 492.358 392.457 459.214 388.696 452.851Z"/><path fill="#3C3C3F" fill-opacity="0.98823529" transform="scale(1.33333 1.33333)" d="M406.135 505.273C406.761 505.146 407.972 504.411 408.605 504.07C410.088 501.694 408.966 498.045 409.779 494.874C410.187 500.5 410 508.652 412.341 513.491C412.437 514.938 412.433 516.865 412.883 518.163C414.377 526.407 415.947 534.676 417.095 542.973L415.599 545.01L413.85 544.836C412.83 537.13 411.545 528.732 410.024 521.131C408.96 515.816 407.134 510.769 406.135 505.273Z"/><defs><linearGradient id="gradient_30" gradientUnits="userSpaceOnUse" x1="319.53409" y1="499.87717" x2="325.78479" y2="501.71783"><stop offset="0" stop-color="#1F1E21" stop-opacity="0.97647059"/><stop offset="1" stop-color="#565658"/></linearGradient></defs><path fill="url(#gradient_30)" transform="scale(1.33333 1.33333)" d="M326.463 481.254C326.798 483.891 327.104 488.335 328.527 490.419C329.609 492.474 329.384 491.544 329.121 494.116C324.056 497.84 324.176 505.41 325.902 510.836C325.381 512.158 325.008 513.13 324.606 514.492C324.43 513.339 324.695 513.785 323.879 513.064C321.248 514.756 317.401 517.99 314.348 517.039L314.484 516.04C315.778 514.131 318.409 513.118 320.533 512.055C320.129 503.145 321.103 500.582 324.766 492.643L323.862 486.381C326.263 484.466 326.008 483.93 326.463 481.254Z"/><path fill="#4D4D4F" fill-opacity="0.98431373" transform="scale(1.33333 1.33333)" d="M1044.06 562.601C1043.74 558.501 1042.09 543.158 1043.24 540.607L1044.29 540.27C1047.16 543.155 1049.73 577.4 1048.75 582.448C1048.65 580.785 1048.79 578.73 1047.78 577.545C1046.35 577.83 1046.72 577.851 1045.48 579.124C1045.6 574.896 1045.76 572.44 1044.12 568.545L1044.06 562.601Z"/><path fill="#5F5E61" transform="scale(1.33333 1.33333)" d="M793.178 444.29C781.161 439.893 770.585 455.055 759.667 452.686L759.327 451.46C761.408 447.567 781.709 441.081 787.181 440.159C789.054 439.843 792.685 440.264 794.639 440.553C794.165 442.392 794.148 442.696 793.178 444.29Z"/><path fill="#27292B" fill-opacity="0.96470588" transform="scale(1.33333 1.33333)" d="M276.309 402.894L276.908 403.192C277.078 409.967 274.03 419.486 271.23 425.576C266.7 435.432 266.67 438.784 269.38 449.19C268.302 449.193 266.963 448.682 265.895 448.356C265.572 446.78 264.058 439.234 264.462 437.556C266.965 427.182 271.599 416.493 274.06 405.681C274.25 404.847 275.809 403.348 276.309 402.894Z"/><path fill="#5F5E61" fill-opacity="0.98823529" transform="scale(1.33333 1.33333)" d="M829.212 474.219C831.152 475.575 830.27 475.264 832.549 475.492C826.434 480.912 832.098 480.169 828.139 484.554C828.087 483.352 827.997 482.475 828.19 481.274L827.343 481.106C824.806 483.287 824.329 483.758 822.412 486.487L822.054 486.033C815.856 483.516 810.363 483.852 803.69 483.218C810.47 481.903 814.896 482.165 822.792 480.218C821.019 480.043 815.899 480.119 814.988 479.808C811.869 478.742 811.722 476.114 807.455 475.777C814.31 475.948 824.354 477.621 829.212 474.219Z"/><path fill="#3C3C3F" transform="scale(1.33333 1.33333)" d="M531.299 474.764C527.172 475.961 519.028 479.095 515.563 475.318C515.425 472.487 516.868 471.134 518.722 468.918C520.357 468.531 520.478 468.436 521.966 467.572L522.35 467.345C522.853 468.947 522.882 469.477 523.989 470.667L523.553 472.422C525.638 472.896 529.84 471.124 532.125 470.351C534.891 473.245 538.337 476.986 541.421 479.395C541.093 481.295 540.96 482.505 540.836 484.43C537.2 479.981 535.529 478.417 531.299 474.764Z"/><path fill="#4D4D4F" transform="scale(1.33333 1.33333)" d="M533.289 450.879C538.324 446.895 541.727 444.045 548.634 445.08C555.114 446.051 570.745 450.88 572.171 457.85C566.56 460.553 553.831 438.947 534.248 453.216L533.289 450.879Z"/><path fill="#0A0B0C" fill-opacity="0.97647059" transform="scale(1.33333 1.33333)" d="M559.085 552.1C563.448 551.133 564.837 550.663 568.93 548.859C570.045 550.416 570.513 550.747 570.511 552.549C570.129 558.256 574.992 577.331 576.729 583.654C575.953 584.854 575.71 585.463 574.457 586.173C573.524 582.369 567.149 555.32 566.375 554.377L563.061 554.934L559.163 554.432C559.398 553.689 559.349 553.562 559.216 552.812L559.085 552.1Z"/><path fill="#0A0B0C" fill-opacity="0.98039216" transform="scale(1.33333 1.33333)" d="M820.235 594.515C820.408 588.971 821.823 569.233 823.594 564.696L824.22 564.275C825.752 568.955 824.075 589.634 824.313 596.971C824.535 599.051 824.708 599.781 824.125 601.822C822.494 603.663 823.026 603.606 821.009 604.25C819.988 602.671 820.416 597.261 820.235 594.515Z"/><path fill="#4D4D4F" transform="scale(1.33333 1.33333)" d="M370.406 146.732C379.774 152.268 395.029 151.886 402.887 144.164L403.3 148.897C391.185 153.599 379.976 158.272 367.993 149.59C368.865 149.01 369.746 147.634 370.406 146.732Z"/><defs><linearGradient id="gradient_31" gradientUnits="userSpaceOnUse" x1="769.87732" y1="196.36868" x2="767.09625" y2="187.09529"><stop offset="0" stop-color="#5A5E5E" stop-opacity="0.97647059"/><stop offset="1" stop-color="#827C82"/></linearGradient></defs><path fill="url(#gradient_31)" transform="scale(1.33333 1.33333)" d="M755.304 189.437C766.631 190.843 776.515 189.876 787.843 189.806C787.08 191.394 786.962 191.512 786.848 193.233C780.436 193.733 759 193.045 754.978 194.213C752.52 195.139 751.518 193.771 749.445 192.462C751.149 191.201 753.348 190.33 755.304 189.437Z"/><path fill="#5F5E61" transform="scale(1.33333 1.33333)" d="M314.449 167.438C315.972 166.528 316.035 166.237 317.029 164.694C321.807 168.788 341.737 185.879 343.026 190.209L342.424 191.272C337.971 191.264 326.714 176.776 321.014 173.399C320.657 172.858 318.571 171.364 317.921 170.866C316.743 169.817 315.568 168.568 314.449 167.438Z"/><defs><linearGradient id="gradient_32" gradientUnits="userSpaceOnUse" x1="369.48215" y1="505.44485" x2="369.46429" y2="522.49292"><stop offset="0" stop-color="#2C2D32" stop-opacity="0.95686275"/><stop offset="1" stop-color="#57575A"/></linearGradient></defs><path fill="url(#gradient_32)" transform="scale(1.33333 1.33333)" d="M362.211 516.291C365.879 516.929 369.539 517.608 373.192 518.326C376.247 518.955 379.862 520.234 381.647 522.969L380.861 523.666C375.973 523.853 363.263 520.38 358.989 518.121C357.185 515.051 359.263 507.022 359.947 503.294C360.913 504.154 361.672 505.132 362.776 505.32C362.831 507.593 362.331 513.573 362.211 516.291Z"/><defs><linearGradient id="gradient_33" gradientUnits="userSpaceOnUse" x1="544.35724" y1="466.03693" x2="545.66272" y2="460.90442"><stop offset="0" stop-color="#55575B"/><stop offset="1" stop-color="#767576"/></linearGradient></defs><path fill="url(#gradient_33)" transform="scale(1.33333 1.33333)" d="M537.359 457.968C544.455 459.739 556.228 462.992 561.473 468.248L561.89 469.4C558.352 469.793 543.97 462.904 537.095 461.369C532.189 462.414 530.771 462.526 527.156 465.981C527.625 463.784 527.197 462.218 526.842 459.996C530.42 460.245 533.89 458.971 537.359 457.968Z"/><path fill="#3C3C3F" transform="scale(1.33333 1.33333)" d="M585.92 519.76L589.051 521.754C572.09 533.633 571.21 530.707 554.38 537.164L553.322 533.944C562.855 532.69 578.059 525.111 585.92 519.76Z"/><path fill="#4D4D4F" transform="scale(1.33333 1.33333)" d="M1046.71 427.03L1049.13 426.892C1051.17 428.847 1050.14 428.299 1053.19 428.771L1053.04 429.347L1052.39 429.487C1040.72 431.971 1035.47 429.69 1026.23 437.122C1024.47 438.85 1024.48 438.406 1021.72 439.035C1016.06 429.831 1041.3 427.794 1046.71 427.03Z"/><path fill="#747376" transform="scale(1.33333 1.33333)" d="M1043.41 459.924L1044.09 459.105C1048.06 459.083 1049.89 459.544 1053.09 461.956L1053.92 463.566C1043.9 463.085 1039.45 464.917 1031.28 464.926L1031.42 465.648C1032.18 465.858 1032.73 466.069 1033.51 466.107C1032.72 469.232 1035.88 469.048 1032.1 470.814C1029.16 469.808 1026.77 468.21 1026.92 464.938C1029.51 460.652 1038.91 460.351 1043.41 459.924Z"/><path fill="#4D4D4F" fill-opacity="0.97647059" transform="scale(1.33333 1.33333)" d="M1107.9 430.653C1109.8 431.868 1114.93 434.724 1114.92 436.926C1114.89 442.573 1115.43 461.745 1112.48 465.599L1111.58 465.443C1109.39 459.57 1111.24 445.551 1112.01 439.074C1111.07 436.82 1108.92 433.65 1107.56 431.483L1107.9 430.653Z"/><path fill="#5F5E61" transform="scale(1.33333 1.33333)" d="M600.424 423.902C605.869 427.537 605.852 448.671 604.323 454.527C603.3 454.109 601.226 453.556 601.208 452.58C601.043 443.544 600.067 434.968 599.186 426.067C599.136 425.567 600.093 424.391 600.424 423.902Z"/><path fill="#5F5E61" transform="scale(1.33333 1.33333)" d="M328.527 490.419C333.855 488.046 357.251 479.468 361.932 480.677C359.656 484.92 336.052 490.273 329.121 494.116C329.384 491.544 329.609 492.474 328.527 490.419Z"/><defs><linearGradient id="gradient_34" gradientUnits="userSpaceOnUse" x1="575.37408" y1="599.58276" x2="584.2196" y2="599.68646"><stop offset="0" stop-color="#4F5152" stop-opacity="0.95686275"/><stop offset="1" stop-color="#5D5C5E"/></linearGradient></defs><path fill="url(#gradient_34)" transform="scale(1.33333 1.33333)" d="M576.729 583.654C578.782 589.402 585.285 608.629 586.071 614.082C584.22 614.957 584.815 614.691 582.456 614.388C581.451 613.508 574.922 588.967 574.457 586.173C575.71 585.463 575.953 584.854 576.729 583.654Z"/><defs><linearGradient id="gradient_35" gradientUnits="userSpaceOnUse" x1="589.44366" y1="504.28055" x2="596.18018" y2="505.47159"><stop offset="0" stop-color="#28292B" stop-opacity="0.96862745"/><stop offset="1" stop-color="black" stop-opacity="0.98431373"/></linearGradient></defs><path fill="url(#gradient_35)" transform="scale(1.33333 1.33333)" d="M596.071 488.344C597.831 489.917 597.527 489.856 597.697 492.868C597.739 493.638 597.775 494.408 597.805 495.179C596.745 500.403 595.307 505.227 595.973 510.451C595.743 512.923 595.908 515.461 593.78 517.032L589.051 521.754L585.92 519.76L590.994 516.12C591.379 508.054 594.151 496.395 596.071 488.344Z"/><path fill="#5F5E61" transform="scale(1.33333 1.33333)" d="M333.112 443.681C328.229 445.416 314.303 450.903 309.463 449.799L309.803 448.891C314.791 445.41 326.702 441.935 332.945 439.889C334.963 440.608 337.97 442.129 340 443.083L338.623 445.798C337.142 445.108 334.727 444.286 333.112 443.681Z"/><path fill="#4D4D4F" fill-opacity="0.98039216" transform="scale(1.33333 1.33333)" d="M519.848 584.671C520.364 585.971 520.588 587.746 520.832 589.156C521.54 586.083 521.23 585.188 523.491 582.706C522.448 588.782 518.335 610.533 514.963 614.735L513.646 615.212L512.495 614.596C512.55 610.915 518.548 590.783 519.848 584.671Z"/><path fill="#3C3C3F" fill-opacity="0.98823529" transform="scale(1.33333 1.33333)" d="M563.693 408.324C564.809 407.744 565.294 407.684 566.492 407.345L567.592 408.826C574.959 416.838 584.547 420.665 589.102 428.282C588.481 431.42 588.988 431.731 586.093 433.49C586.11 428.245 585.013 427.646 581.163 424.448C574.723 419.1 568.639 415.253 563.693 408.324Z"/><path fill="#27292B" fill-opacity="0.96862745" transform="scale(1.33333 1.33333)" d="M526.515 553.701L528.752 554.499C528.916 554.993 529.087 555.378 529.357 555.83L529.661 555.898C526.985 561.706 525.189 575.613 523.491 582.706C521.23 585.188 521.54 586.083 520.832 589.156C520.588 587.746 520.364 585.971 519.848 584.671C520.014 581.309 525.306 556.653 526.515 553.701Z"/><path fill="#0A0B0C" fill-opacity="0.96470588" transform="scale(1.33333 1.33333)" d="M596.071 488.344C596.731 480.699 600.992 462.459 605.285 456.329C604.694 465.328 600.365 486.466 597.805 495.179C597.775 494.408 597.739 493.638 597.697 492.868C597.527 489.856 597.831 489.917 596.071 488.344Z"/><path fill="#27292B" fill-opacity="0.98039216" transform="scale(1.33333 1.33333)" d="M341.832 192.187C344.275 194.228 345.996 195.705 348.212 197.977C351.774 198.302 355.488 198.578 359.015 199.099C356.935 199.295 355.253 199.473 353.182 199.819L352.589 200.709L353.006 201.218C352.135 204.434 352.578 204.471 348.907 204.961C347.982 207.168 348.334 215.352 347.753 219.171C346.94 220.424 347.007 220.381 345.73 221.136L344.96 221.132C345.104 215.247 346.656 209.461 346.297 203.612C346.02 199.123 345.287 198.696 341.94 195.866C342.036 195.072 341.88 193.091 341.832 192.187Z"/><path fill="#5F5E61" transform="scale(1.33333 1.33333)" d="M347.745 455.499L348.676 456.234C348.941 458.628 349.274 459.449 351.103 461.009C346.213 460.497 342.151 459.198 337.497 457.659C333.15 460.157 326.321 463.182 325.268 468.459C325.215 468.058 324.176 466.094 323.927 465.597C322.264 464.958 320.271 465.86 318.41 466.403C324.834 461.44 332.01 456.303 340.011 454.649C342.205 455.329 344.423 455.93 346.661 456.453L347.745 455.499Z"/><defs><linearGradient id="gradient_36" gradientUnits="userSpaceOnUse" x1="556.99042" y1="412.60226" x2="564.02502" y2="411.28891"><stop offset="0" stop-color="#3C3D41" stop-opacity="0.95294118"/><stop offset="1" stop-color="#444547"/></linearGradient></defs><path fill="url(#gradient_36)" transform="scale(1.33333 1.33333)" d="M560.412 401.141C561.908 399.834 562.755 398.119 563.791 396.394C563.718 399.18 563.088 403.625 563.841 406.062C564.891 406.288 565.126 406.402 566.215 406.319L566.492 407.345C565.294 407.684 564.809 407.744 563.693 408.324C563.157 413.243 564.061 423.112 561.714 425.752C559.92 426.403 559.692 426.459 557.822 426.115L558.148 425.37L557.461 424.829C561.101 422.748 559.576 406.583 560.412 401.141Z"/><path fill="#3C3C3F" transform="scale(1.33333 1.33333)" d="M548.221 138.884C552.649 143.606 546.494 144.99 550.172 149.769C553.15 150.92 560.473 147.356 563.217 145.778L563.752 149.274C557.07 152.002 546.367 156.86 543.274 146.95C546.445 142.726 541.709 142.59 548.221 138.884Z"/><path fill="#3C3C3F" transform="scale(1.33333 1.33333)" d="M435.213 140.834C440.4 137.13 446.042 131.345 451.511 130.979C453.736 131.889 453.063 131.261 454.122 133.265C454.08 135.319 454.106 135.635 452.816 137.202L451.448 137.616L450.128 136.868L450.009 134.889C446.073 135.226 439.884 140.963 440.273 145.231C440.517 147.172 440.719 147.806 440.232 149.703C437.241 148.016 436.12 147.476 435.944 143.747L435.213 140.834Z"/><path fill="#0A0B0C" fill-opacity="0.97647059" transform="scale(1.33333 1.33333)" d="M1045.48 579.124C1046.72 577.851 1046.35 577.83 1047.78 577.545C1048.79 578.73 1048.65 580.785 1048.75 582.448C1048.68 590.567 1048.78 595.921 1050.3 603.926C1047.22 604.094 1048.45 600.829 1045.41 605.582L1044.6 605.773C1045.13 596.701 1044.72 588.317 1045.48 579.124Z"/><path fill="#5F5E61" transform="scale(1.33333 1.33333)" d="M292.826 403.153L294.153 406.182C290.475 409.148 285.653 418.883 284.972 423.149L285.629 423.631L286.052 423.56L288.096 425.912C285.544 427.01 283.524 427.957 280.979 427.056L280.297 425.598C280.6 418.615 288.167 408.318 292.826 403.153Z"/><path fill="#5F5E61" transform="scale(1.33333 1.33333)" d="M580.867 150.084L581.363 150.59C588.94 158.237 594.743 150.536 603.107 149.732L603.706 150.376C600.434 157.284 582.574 162.132 577.62 150.99C579.012 150.06 579.13 150.117 580.867 150.084Z"/><path fill="#3C3C3F" fill-opacity="0.98823529" transform="scale(1.33333 1.33333)" d="M871.828 164.486C875.163 161.558 878.605 155.298 882.137 155.916C882.424 158.945 879.283 162.016 878.695 166.037L879.538 166.674C881.78 166.455 882.885 165.165 884.675 163.674C885.144 164.208 886.406 165.731 886.893 166.056C884.791 168.682 881.524 171.086 878.039 170.786C875.757 169.96 875.326 168.792 874.094 166.744L871.828 164.486Z"/><path fill="#4D4D4F" transform="scale(1.33333 1.33333)" d="M291.53 503.142C297.581 507.667 304.031 510.596 310.404 514.594C312.878 516.145 313.724 517.927 315.05 519.005L312.632 520.621C306.657 515.805 296.044 510.544 288.697 505.215L291.53 503.142Z"/><defs><linearGradient id="gradient_37" gradientUnits="userSpaceOnUse" x1="314.55127" y1="434.67505" x2="311.35818" y2="428.8833"><stop offset="0" stop-color="#56565E" stop-opacity="0.9137255"/><stop offset="1" stop-color="#4D4D50"/></linearGradient></defs><path fill="url(#gradient_37)" transform="scale(1.33333 1.33333)" d="M321.027 425.819C323.689 426.908 325.738 427.971 328.613 427.991L325.599 429.503C320.734 427.747 301.712 440.289 297.609 436.898L298.558 435.214C306.472 431.782 312.893 429.794 321.027 425.819Z"/><path fill="#DEDDDC" fill-opacity="0.015686275" transform="scale(1.33333 1.33333)" d="M786.353 224.431L788.077 225.426C789.065 229.006 789.524 232.318 790.097 235.969C789.785 247.999 794.389 262.019 793.692 274.357C792.744 272.444 792.437 267.893 791.953 266.016C790.382 259.924 787.159 228.868 785.169 225.162L786.353 224.431Z"/><path fill="#5F5E61" fill-opacity="0.98039216" transform="scale(1.33333 1.33333)" d="M336.037 215.368C336.104 210.008 335.76 198.424 338.188 193.629C338.777 192.465 340.421 192.46 341.832 192.187C341.88 193.091 342.036 195.072 341.94 195.866C340.143 200.261 339.274 215.314 338.864 220.816C338.728 219.565 338.766 218.463 338.061 217.465L338.249 218.058C336.872 217.311 337 216.942 336.037 215.368Z"/><path fill="#27292B" fill-opacity="0.98823529" transform="scale(1.33333 1.33333)" d="M328.613 427.991C333.355 429.86 349.87 440.102 349.286 445.693L348.848 446.123C344.728 445.951 346.63 447.012 342.867 445.064L342.928 442.605C340.762 437.492 334.73 434.636 330.018 432.311L325.599 429.503L328.613 427.991Z"/><path fill="#0A0B0C" fill-opacity="0.98431373" transform="scale(1.33333 1.33333)" d="M796.327 173.167L796.324 173.578C796.299 175.342 796.179 176.182 795.887 177.915C797.277 176.757 797.486 175.862 798.434 174.266C799.579 174.627 799.215 174.27 799.796 175.074L793.063 189.107L791.184 193.271C790.094 195.672 790.474 195.919 788.473 197.006C786.772 195.623 787.257 195.826 786.848 193.233C786.962 191.512 787.08 191.394 787.843 189.806C789.061 188.317 794.101 176.731 796.327 173.167Z"/><defs><linearGradient id="gradient_38" gradientUnits="userSpaceOnUse" x1="347.95639" y1="447.75488" x2="343.41827" y2="454.62653"><stop offset="0" stop-color="#545859" stop-opacity="0.98431373"/><stop offset="1" stop-color="#343338"/></linearGradient></defs><path fill="url(#gradient_38)" transform="scale(1.33333 1.33333)" d="M340 443.083L342.867 445.064C346.63 447.012 344.728 445.951 348.848 446.123C349.733 452.015 355.357 453.043 353.433 459.167L351.103 461.009C349.274 459.449 348.941 458.628 348.676 456.234L347.745 455.499C345.121 450.613 343.02 449.037 338.623 445.798L340 443.083Z"/><path fill="#3C3C3F" fill-opacity="0.98431373" transform="scale(1.33333 1.33333)" d="M815.869 537.117C821.357 539.72 826.923 556.753 824.817 562.033C824.018 561.905 822.639 561.797 822.455 560.99C821.396 556.327 815.309 540.719 815.869 537.117Z"/><path fill="#3C3C3F" fill-opacity="0.98823529" transform="scale(1.33333 1.33333)" d="M945.231 147.975C960.178 150.318 947.15 161.306 961.999 159.884C960.399 162.357 958.442 160.238 957.682 162.6C961.099 163.297 961.542 161.019 965.534 161.715C949.527 170.093 951.511 155.717 947.084 151.743C946.012 150.661 945.748 149.435 945.231 147.975Z"/><path fill="#27292B" fill-opacity="0.96078432" transform="scale(1.33333 1.33333)" d="M336.037 215.368C337 216.942 336.872 217.311 338.249 218.058L338.061 217.465C338.766 218.463 338.728 219.565 338.864 220.816L336.668 242.941C334.541 244.076 335.494 243.871 333.05 243.678C333.649 234.83 334.952 224.2 336.037 215.368Z"/><path fill="#27292B" transform="scale(1.33333 1.33333)" d="M563.217 145.778C567.077 143.698 570.461 139.16 573.589 138.75C574.283 140.142 575.089 142.004 576.091 143.126C570.368 146.886 566.998 152.339 563.936 154.054L562.819 153.597C562.209 151.298 562.454 152.081 563.752 149.274L563.217 145.778Z"/><path fill="#5F5E61" transform="scale(1.33333 1.33333)" d="M794.639 440.553L797.376 441.524C803.299 441.723 807.085 440.873 812.394 443.962C812.773 444.183 813.334 444.334 813.764 444.448C811.271 444.944 810.204 444.725 808.508 446.21L807.969 449.021C801.963 447.31 799.139 446.664 793.178 444.29C794.148 442.696 794.165 442.392 794.639 440.553Z"/><path fill="#4D4D4F" transform="scale(1.33333 1.33333)" d="M794.639 440.553L797.376 441.524C799.997 444.667 802.27 446.305 806.274 447.234C807.456 447.006 807.706 447.096 808.508 446.21L807.969 449.021C801.963 447.31 799.139 446.664 793.178 444.29C794.148 442.696 794.165 442.392 794.639 440.553Z"/><defs><linearGradient id="gradient_39" gradientUnits="userSpaceOnUse" x1="493.33542" y1="143.92403" x2="493.78586" y2="147.94937"><stop offset="0" stop-color="#515052"/><stop offset="1" stop-color="#68666A"/></linearGradient></defs><path fill="url(#gradient_39)" transform="scale(1.33333 1.33333)" d="M487.266 142.222L487.047 144.843C490.356 148.714 501.735 142.023 505.162 139.756C504.254 141.271 502.767 143.414 502.601 145.089C500.038 148.622 488.62 152.273 484.216 147.995C483.071 145.786 483.333 144.553 483.469 142.115L484.797 145.076C485.352 144.422 486.7 142.743 487.266 142.222Z"/><path fill="#27292B" fill-opacity="0.97254902" transform="scale(1.33333 1.33333)" d="M541.421 479.395C543.359 480.552 545.722 481.582 546.651 483.47L546.767 485.271L546.485 485.511C545.388 486.46 545.299 486.512 544.578 487.733C544.309 491.873 544.21 498.697 543.593 502.477L541.349 502.358L540.416 500.989C541.088 496.014 540.821 489.595 540.836 484.43C540.96 482.505 541.093 481.295 541.421 479.395Z"/><path fill="#0A0B0C" fill-opacity="0.97254902" transform="scale(1.33333 1.33333)" d="M366.213 477.119L367.695 477.293C365.178 485.558 363.909 496.618 362.776 505.32C361.672 505.132 360.913 504.154 359.947 503.294C360.548 495.911 361.753 482.95 366.213 477.119Z"/><path fill="#0A0B0C" fill-opacity="0.97647059" transform="scale(1.33333 1.33333)" d="M455.596 544.515C458.519 545.116 458.253 544.594 460.01 546.432C461.458 551.496 459.747 556.405 458.617 561.654C457.675 561.515 456.931 561.222 456.034 560.919C453.662 554.94 454.152 550.794 455.596 544.515Z"/><path fill="#3C3C3F" fill-opacity="0.97647059" transform="scale(1.33333 1.33333)" d="M841.406 167.134C844.6 164.01 851.38 156.012 855.868 159.183C857.101 162.078 855.755 166.803 854.865 169.836L853.323 170.797L851.458 168.561C851.74 166.911 851.911 163.555 852.058 161.756C848.037 164.035 846.425 164.977 843.261 168.357L841.406 167.134Z"/><path fill="#27292B" fill-opacity="0.96470588" transform="scale(1.33333 1.33333)" d="M467.737 526.391C468.494 536.413 469.323 546.429 470.223 556.44L468.381 559.27L467.14 556.254C466.845 551.108 466.146 545.546 465.59 540.385C465.389 534.604 466.95 532.398 467.737 526.391Z"/><path fill="#5F5E61" transform="scale(1.33333 1.33333)" d="M736.803 593.247L737.427 596.525L738.028 596.653C738.735 595.504 739.498 594.09 740.448 593.17C739.492 598.585 739.163 611.44 738.188 614.627C736.325 615.097 737.095 615.146 735.256 614.59C733.278 610.895 735.892 597.81 736.803 593.247Z"/><path fill="#5F5E61" transform="scale(1.33333 1.33333)" d="M871.828 164.486L874.094 166.744C868.222 170.012 852.639 180.967 851.458 168.561L853.323 170.797L854.865 169.836C861.353 170.696 866.34 167.501 871.828 164.486Z"/><path fill="#4D4D4F" transform="scale(1.33333 1.33333)" d="M779.167 468.183C775.737 469.074 764.317 471.093 761.257 469.555L761.587 468.504C766.126 465.351 770.933 464.21 776.19 462.664C777.15 465.292 777.618 465.898 779.167 468.183Z"/><path fill="#0A0B0C" fill-opacity="0.98039216" transform="scale(1.33333 1.33333)" d="M318.41 466.403C320.271 465.86 322.264 464.958 323.927 465.597C324.176 466.094 325.215 468.058 325.268 468.459C325.642 472.515 325.962 477.27 326.463 481.254C326.008 483.93 326.263 484.466 323.862 486.381C322.682 480.326 322.508 474.302 322.216 468.157C320.278 469.345 319.488 470.125 317.261 469.962C316.842 468.263 317.292 468.308 318.41 466.403Z"/><path fill="#0A0B0C" transform="scale(1.33333 1.33333)" d="M527.576 441.792L530.586 442.643C526.946 447.524 527.181 451.184 524.126 455.681C523.657 456.371 519.231 457.567 517.855 457.267C517.358 453.852 525.232 444.779 527.576 441.792Z"/><path fill="#27292B" fill-opacity="0.97647059" transform="scale(1.33333 1.33333)" d="M823.666 603.926C822.787 608.217 822.634 610.702 820.126 614.236L819.399 613.612C818.698 608.646 819.653 599.683 820.235 594.515C820.416 597.261 819.988 602.671 821.009 604.25C823.026 603.606 822.494 603.663 824.125 601.822C824.708 599.781 824.535 599.051 824.313 596.971C825.428 602.688 826.886 608.222 827.927 613.877C826.606 614.471 827.133 614.344 825.39 613.797C824.216 611.344 823.975 606.783 823.666 603.926Z"/><path fill="#3C3C3F" transform="scale(1.33333 1.33333)" d="M338.095 420.169C338.519 420.416 340.041 421.342 340.394 421.463C343.58 424.156 350.649 432.383 350.205 436.554L348.825 437.367C342.312 436.749 342.671 426.37 337.832 422.302L338.095 420.169Z"/><path fill="#0A0B0C" fill-opacity="0.98431373" transform="scale(1.33333 1.33333)" d="M522.35 467.345C523.55 463.779 521.414 467.466 520.608 462.734C523.572 459.354 529.757 453.939 533.289 450.879L534.248 453.216C531.935 455.316 529.003 457.828 526.842 459.996C527.197 462.218 527.625 463.784 527.156 465.981C526.075 467.501 524.907 469.052 523.989 470.667C522.882 469.477 522.853 468.947 522.35 467.345Z"/><defs><linearGradient id="gradient_40" gradientUnits="userSpaceOnUse" x1="411.70074" y1="492.68289" x2="404.70004" y2="493.89725"><stop offset="0" stop-color="#07090A" stop-opacity="0.96470588"/><stop offset="1" stop-color="black"/></linearGradient></defs><path fill="url(#gradient_40)" transform="scale(1.33333 1.33333)" d="M409.142 482.432C409.954 482.912 411.336 483.643 411.942 484.26C410.981 488.145 410.377 490.856 409.779 494.874C408.966 498.045 410.088 501.694 408.605 504.07C407.972 504.411 406.761 505.146 406.135 505.273L404.422 498.868C404.766 497.933 405.6 497.24 406.317 496.502C407.157 491.5 407.833 487.332 409.142 482.432Z"/><path fill="#3C3C3F" fill-opacity="0.98039216" transform="scale(1.33333 1.33333)" d="M1071.57 495.414C1073.82 497.984 1084.44 516.13 1084.34 519.554C1078.4 515.159 1070.39 502.921 1071.57 495.414Z"/><path fill="#3C3C3F" transform="scale(1.33333 1.33333)" d="M816.307 438.064L816.925 439.115C817.475 440.423 818.298 442.893 819.308 443.672C818.601 444.863 818.246 445.633 817.207 446.577L815.714 448.104L815.824 449.272C817.076 450.183 818.285 451.009 819.159 452.302C814.997 450.877 812.266 450.052 807.969 449.021L808.508 446.21C810.204 444.725 811.271 444.944 813.764 444.448L813.783 441.47C814.325 440.55 815.61 438.977 816.307 438.064Z"/><path fill="#5F5E61" fill-opacity="0.98039216" transform="scale(1.33333 1.33333)" d="M1064.55 476.007C1066.32 476.39 1067.44 476.264 1068.3 477.434C1071.6 481.959 1077.28 488.612 1071.97 493.427L1071.07 492.642C1070.66 490.294 1070.35 488.461 1069.48 486.226C1067.9 482.151 1064.62 480.251 1064.55 476.007Z"/><path fill="#5F5E61" transform="scale(1.33333 1.33333)" d="M994.096 154.812C998.997 153.576 1004.46 147.308 1009.4 148.403L1010.22 149.077C1009.37 151.056 997.106 157.844 994.652 159.098C994.108 157.432 993.511 156.381 994.096 154.812Z"/><path fill="#27292B" fill-opacity="0.98039216" transform="scale(1.33333 1.33333)" d="M884.675 163.674C886.635 161.369 889.692 157.285 892.456 156.235C893.921 159.395 891.109 163.859 891.093 167.435C890.152 169.366 890.719 168.825 889.021 169.937C888.238 168.809 887.537 167.302 886.893 166.056C886.406 165.731 885.144 164.208 884.675 163.674Z"/><path fill="#4D4D4F" transform="scale(1.33333 1.33333)" d="M260.873 588.535C262.955 587.575 265.424 588.386 266.533 590.393C267.642 592.399 267.015 594.922 265.095 596.175C263.722 597.071 261.963 597.124 260.538 596.313C259.113 595.501 258.262 593.96 258.332 592.322C258.403 590.683 259.384 589.221 260.873 588.535Z"/><path fill="#4D4D4F" transform="scale(1.33333 1.33333)" d="M585.418 585.81C591.744 588.912 589.462 592.675 585.812 596.868C583.56 596.516 584.396 596.883 582.618 595.5C580.685 591.115 582.144 588.555 585.418 585.81Z"/><path fill="#DEDDDC" fill-opacity="0.0078431377" transform="scale(1.33333 1.33333)" d="M431.949 475.816C439.051 480.454 444.639 482.256 451.658 486.068C450.908 487.157 450.483 487.831 449.547 488.801C445.687 487.897 434.429 479.019 431.18 476.426L431.949 475.816Z"/><path fill="#3C3C3F" fill-opacity="0.97254902" transform="scale(1.33333 1.33333)" d="M739.213 581.29C741.449 580.582 740.536 580.532 742.636 581.434C742.333 583.381 741.079 591.851 740.448 593.17C739.498 594.09 738.735 595.504 738.028 596.653L737.427 596.525L736.803 593.247L739.213 581.29Z"/><path fill="#5F5E61" transform="scale(1.33333 1.33333)" d="M271.988 554.679C275.006 554.597 276.608 554.204 278.704 556.575C279.196 558.636 278.636 559.823 278.021 561.818C275.133 562.047 273.691 562.239 271.48 560.669C270.589 558.686 271.4 556.792 271.988 554.679Z"/><path fill="#5F5E61" transform="scale(1.33333 1.33333)" d="M269.371 565.017C272.864 565.24 273.989 564.801 275.693 567.975C275.59 570.372 274.976 571.05 273.715 573.017C270.554 572.169 268.956 571.904 267.288 569.132C267.726 566.434 267.519 567.285 269.371 565.017Z"/><path fill="#B3B2B2" transform="scale(1.33333 1.33333)" d="M802.158 342.79C803.303 345.958 803.938 357.4 802.965 360.409L801.703 359.532C800.745 357.559 799.473 345.265 799.598 342.845C801.23 343.152 800.87 343.336 802.158 342.79Z"/><path fill="#4D4D4F" transform="scale(1.33333 1.33333)" d="M931.425 563.948C929.435 566.055 928.65 567.604 925.75 566.284C923.833 563.574 923.669 560.276 926.133 557.852C928.511 558.086 928.076 558.26 930.252 559.885L931.425 563.948Z"/><path fill="#27292B" fill-opacity="0.98823529" transform="scale(1.33333 1.33333)" d="M822.35 468.33C825.853 468.845 830.231 469.315 833.498 470.476L834.152 471.852C833.866 472.8 833.575 473.596 833.431 474.575L832.549 475.492C830.27 475.264 831.152 475.575 829.212 474.219C828.258 473.502 824.274 472.107 822.91 471.591C823.495 470.809 823.448 470.678 823.807 469.727L822.345 469.195L822.35 468.33Z"/><path fill="#4D4D4F" transform="scale(1.33333 1.33333)" d="M435.213 140.834L435.944 143.747C431.061 146.961 428.622 147.993 422.864 149.06L422.832 145.573C428.092 144.281 430.308 143.153 435.213 140.834Z"/><path fill="#3C3C3F" fill-opacity="0.98823529" transform="scale(1.33333 1.33333)" d="M573.589 138.75C576.045 139.601 577.861 140.081 580.382 140.707C580.516 143.544 580.579 147.337 580.867 150.084C579.13 150.117 579.012 150.06 577.62 150.99C576.939 148.13 577.301 146.138 576.091 143.126C575.089 142.004 574.283 140.142 573.589 138.75Z"/><path fill="#4D4D4F" fill-opacity="0.98823529" transform="scale(1.33333 1.33333)" d="M1075 460.899C1077.8 462.243 1085.06 463.63 1086.25 465.94C1083.1 467.149 1074.12 465.303 1070.74 464.426C1073.57 463.543 1073.39 463.135 1075 460.899Z"/><path fill="#747376" fill-opacity="0.98823529" transform="scale(1.33333 1.33333)" d="M1045.39 614.424C1046.31 611.637 1045.85 608.098 1047.73 606.066C1050.02 606.662 1049.57 606.778 1051.44 608.738C1052.1 610.509 1052.77 611.671 1052.4 613.471C1050.2 614.925 1048.25 614.528 1045.39 614.424Z"/><path fill="#27292B" transform="scale(1.33333 1.33333)" d="M266.516 576.739L269.287 577.43C270.884 579.289 270.543 578.414 270.714 580.704C269.769 583.195 269.464 583.415 267.378 584.902C264.585 584.368 263.777 583.95 263.274 581.271C263.788 578.863 264.703 578.327 266.516 576.739Z"/><path fill="#0A0B0C" fill-opacity="0.98431373" transform="scale(1.33333 1.33333)" d="M927.213 159.025C931.577 157.302 934.477 155.805 938.396 153.234C939.803 153.939 942.506 155.198 943.699 155.977L942.3 157.035C939.255 156.335 940.597 156.258 937.495 157.829C934.67 158.405 931.532 160.116 928.885 161.4L927.213 159.025Z"/><defs><linearGradient id="gradient_41" gradientUnits="userSpaceOnUse" x1="981.4483" y1="174.23538" x2="979.36975" y2="172.2411"><stop offset="0" stop-color="#ECEAEA" stop-opacity="0"/><stop offset="1" stop-color="#E8E5E4" stop-opacity="0.031372551"/></linearGradient></defs><path fill="url(#gradient_41)" transform="scale(1.33333 1.33333)" d="M973.95 178.197C976.143 175.77 982.519 168.766 985.209 167.691L984.693 169.987C982.153 177.655 981.981 177.661 973.95 178.197Z"/><path fill="#3C3C3F" fill-opacity="0.98431373" transform="scale(1.33333 1.33333)" d="M484.179 133.836C487.045 133.808 486.696 133.376 488.757 134.727C489.899 137.335 489.584 140.367 487.266 142.222C486.7 142.743 485.352 144.422 484.797 145.076L483.469 142.115C483.677 140.988 484.85 138.109 485.307 136.898C485.303 136.53 484.377 134.333 484.179 133.836Z"/><path fill="#0A0B0C" transform="scale(1.33333 1.33333)" d="M544.748 533.291L549.707 530.659L553.322 533.944L554.38 537.164C552.692 537.471 551.287 537.426 550.14 538.394L548.109 538.524C547.599 536.724 545.93 534.851 544.748 533.291Z"/><path fill="#27292B" fill-opacity="0.96470588" transform="scale(1.33333 1.33333)" d="M443.189 513.439C444.455 520.125 444.775 524.326 445.269 531.205C443.604 533.462 444.327 533.125 442.221 533.9C441.252 526.052 441.968 521.192 443.189 513.439Z"/><path fill="#3C3C3F" transform="scale(1.33333 1.33333)" d="M462.358 606.383C465.512 610.05 463.693 613.951 459.349 615.658L457.694 614.24C456.379 609.51 458.305 608.449 462.358 606.383Z"/><defs><linearGradient id="gradient_42" gradientUnits="userSpaceOnUse" x1="417.04889" y1="469.60629" x2="419.39047" y2="466.77283"><stop offset="0" stop-color="#DCDADC" stop-opacity="0"/><stop offset="1" stop-color="#D5D3D1" stop-opacity="0.062745102"/></linearGradient></defs><path fill="url(#gradient_42)" transform="scale(1.33333 1.33333)" d="M412.905 462.846C419.212 467.228 425.561 471.552 431.949 475.816L431.18 476.426C427.095 473.818 424.597 472.083 419.964 470.497C415.981 469.549 414.66 467.672 412.405 464.365L412.905 462.846Z"/><path fill="#0A0B0C" fill-opacity="0.98039216" transform="scale(1.33333 1.33333)" d="M937.495 157.829C940.597 156.258 939.255 156.335 942.3 157.035C940.465 160.694 938.969 164.952 935.041 166.311L934.577 166.108L934.38 164.949L935.048 166.222C933.897 163.332 935.67 160.237 937.495 157.829Z"/><path fill="#5F5E61" fill-opacity="0.98431373" transform="scale(1.33333 1.33333)" d="M1044.6 605.773L1045.41 605.582C1048.45 600.829 1047.22 604.094 1050.3 603.926L1051.44 608.738C1049.57 606.778 1050.02 606.662 1047.73 606.066C1045.85 608.098 1046.31 611.637 1045.39 614.424L1043.45 614.38L1042.96 613.443C1042.87 610.692 1043.78 608.403 1044.6 605.773Z"/><path fill="#27292B" fill-opacity="0.98431373" transform="scale(1.33333 1.33333)" d="M581.257 574.603L583.736 575.258C586.342 578.526 585.207 580.634 582.227 583.076C580.012 582.044 579.679 581.551 578.888 579.251C579.447 576.026 579.028 577.142 581.257 574.603Z"/><path fill="#3C3C3F" fill-opacity="0.98039216" transform="scale(1.33333 1.33333)" d="M821.21 137.587C822.085 138.206 823.278 138.991 824.04 139.685L816.654 146.739C815.644 144.215 815.395 143.24 816.052 140.912C818.134 140.595 819.528 139.023 821.21 137.587Z"/><path fill="#27292B" fill-opacity="0.97647059" transform="scale(1.33333 1.33333)" d="M805.265 413.205C805.928 416.951 807.06 425.714 804.273 428.616C802.517 427.416 802.528 425.492 802.389 423.423C802.555 421.401 802.465 421.009 803.42 419.293L803.36 420.407C804.579 418.211 804.773 415.745 805.265 413.205Z"/><path fill="#27292B" fill-opacity="0.98823529" transform="scale(1.33333 1.33333)" d="M588.504 598.159C593.206 598.548 593.697 602.729 591.609 606.258C589.912 606.392 589.342 606.603 587.892 605.871C586.468 602.799 587.316 601.542 588.504 598.159Z"/><path fill="#27292B" fill-opacity="0.98823529" transform="scale(1.33333 1.33333)" d="M1019.24 422.735C1021.78 421.955 1026.71 421.442 1029.28 421.848L1030.22 423.48L1030.55 423.245L1030.08 422.053L1030.83 422.86C1028.09 425.565 1021.1 425.522 1017.17 425.783C1018.58 425.051 1018.86 424.99 1019.91 423.844L1019.24 422.735Z"/><path fill="#27292B" transform="scale(1.33333 1.33333)" d="M938.396 153.234C940.814 150.965 942.194 148.639 945.231 147.975C945.748 149.435 946.012 150.661 947.084 151.743C946.349 152.623 944.144 155.133 943.699 155.977C942.506 155.198 939.803 153.939 938.396 153.234Z"/><path fill="#747376" transform="scale(1.33333 1.33333)" d="M447.921 607.676L448.676 606.28L448.878 607.628C450.04 605.642 450.3 602.121 450.759 599.712C451.107 603.853 453.894 614.445 449.405 615.105C447.864 613.094 448.19 610.377 447.921 607.676Z"/><path fill="#3C3C3F" fill-opacity="0.96470588" transform="scale(1.33333 1.33333)" d="M486.593 544.074C486.909 541.814 486.942 539.61 488.527 538.002L489.488 538.338C491.004 542.701 490.285 544.848 489.475 549.493C487.011 548.08 487.155 546.556 486.593 544.074Z"/><path fill="#4D4D4F" transform="scale(1.33333 1.33333)" d="M466.512 490.352C466.973 489.418 467.11 489.414 467.847 488.618C468.748 489.295 470.396 490.452 471.174 491.151L472.249 494.936C470.676 495.324 466.514 496.25 465.208 496.766L464.881 496.529C466.796 494.169 467.172 493.167 466.512 490.352Z"/><path fill="#5F5E61" transform="scale(1.33333 1.33333)" d="M922.351 487.731C927.632 488.8 929.19 490.2 930.87 495.092C925.999 494.958 923.337 492.39 922.351 487.731Z"/><path fill="#0A0B0C" fill-opacity="0.96470588" transform="scale(1.33333 1.33333)" d="M498.891 469.628L498.642 467.693L499.568 466.641C502.936 466.684 502.65 470.107 502.382 472.663C502.26 473.798 502.122 474.932 501.966 476.063L500.567 475.849C499.073 474.41 499.306 472.228 498.891 469.628Z"/><path fill="#0A0B0C" fill-opacity="0.98039216" transform="scale(1.33333 1.33333)" d="M595.973 510.451C596.322 512.623 596.883 516.918 597.399 518.892C597.226 521.317 597.563 522.592 596.326 524.304L595.53 524.461C595.246 521.453 594.689 519.927 593.78 517.032C595.908 515.461 595.743 512.923 595.973 510.451Z"/><path fill="#27292B" fill-opacity="0.96862745" transform="scale(1.33333 1.33333)" d="M782.256 525.098C783.068 522.927 783.665 520.445 785.553 519.225L786.532 519.701C787.193 522.143 786.151 524.744 785.159 527.077C782.867 526.567 783.65 527.084 782.256 525.098Z"/><path fill="#0A0B0C" fill-opacity="0.97647059" transform="scale(1.33333 1.33333)" d="M548.109 538.524L550.14 538.394L548.813 545.194L546.347 543.225C546.786 540.961 547.015 540.571 548.109 538.524Z"/></svg>